SplineFontDB: 3.0
FontName: Auvaiyar-Regular
FullName: Auvaiyar
FamilyName: Auvaiyar
Weight: Book
Copyright: Copyright (c) 1995-2015, NLCI (http://www.nlci.in/fonts/) Derived from TAM Auvaiyar Normal by ttfbuilder v0.33
Version: 1.0 Wed Feb 01 17:13:14 1995
ItalicAngle: 0
UnderlinePosition: -310
UnderlineWidth: 20
Ascent: 800
Descent: 200
InvalidEm: 0
sfntRevision: 0x00010000
LayerCount: 2
Layer: 0 0 "Back" 1
Layer: 1 0 "Fore" 0
XUID: [1021 811 -96131241 9541461]
StyleMap: 0x0040
FSType: 0
OS2Version: 1
OS2_WeightWidthSlopeOnly: 0
OS2_UseTypoMetrics: 0
CreationTime: 1547921071
ModificationTime: 1550014589
PfmFamily: 17
TTFWeight: 400
TTFWidth: 5
LineGap: 0
VLineGap: 0
Panose: 2 0 0 3 0 0 0 0 0 0
OS2TypoAscent: 750
OS2TypoAOffset: 0
OS2TypoDescent: -329
OS2TypoDOffset: 0
OS2TypoLinegap: 0
OS2WinAscent: 750
OS2WinAOffset: 0
OS2WinDescent: 329
OS2WinDOffset: 0
HheadAscent: 750
HheadAOffset: 0
HheadDescent: -329
HheadDOffset: 0
OS2SubXSize: 700
OS2SubYSize: 650
OS2SubXOff: 0
OS2SubYOff: 143
OS2SupXSize: 700
OS2SupYSize: 650
OS2SupXOff: 0
OS2SupYOff: 453
OS2StrikeYSize: 50
OS2StrikeYPos: 259
OS2Vendor: 'Alts'
OS2CodePages: 20000001.00000000
OS2UnicodeRanges: a01080ff.520021cb.08000028.00000000
Lookup: 260 0 0 "_holdAnchorsbase" { "_someAnchorsbase"  } []
DEI: 91125
ShortTable: maxp 16
  1
  0
  243
  246
  12
  340
  16
  1
  0
  0
  0
  0
  122
  0
  3
  2
EndShort

StartChar: .notdef
Encoding: 0 -1 0
Width: 500
Flags: HW
LayerCount: 2
Fore
SplineSet
31 0 m 1
 31 750 l 1
 469 750 l 1
 469 0 l 1
 31 0 l 1
438 31 m 1
 438 719 l 1
 62 719 l 1
 62 31 l 1
 438 31 l 1
EndSplineSet
EndChar

StartChar: exclam.taml
Encoding: 4 -1 4
Width: 320
Flags: HW
LayerCount: 2
Fore
SplineSet
178 450 m 0
 206.666666667 450 221 425.666666667 221 377 c 1
 211.666666667 310.333333333 202.666666667 242.333333333 194 173 c 0
 190.666666667 147 186.666666667 112.666666667 182 70 c 1
 175 70 l 1
 169.666666667 112 165.666666667 146 163 172 c 0
 155 237.333333333 146 305.666666667 136 377 c 0
 135.333333333 381 135 386.666666667 135 394 c 0
 135 410 138.666666667 423.333333333 146 434 c 128
 153.333333333 444.666666667 164 450 178 450 c 0
177 8 m 0
 189 8 198.833333333 4.16666666667 206.5 -3.5 c 128
 214.166666667 -11.1666666667 218 -20.6666666667 218 -32 c 0
 218 -44 214.166666667 -54.1666666667 206.5 -62.5 c 128
 198.833333333 -70.8333333333 189.333333333 -75 178 -75 c 256
 166.666666667 -75 157 -71 149 -63 c 128
 141 -55 137 -44.6666666667 137 -32 c 0
 137 -20.6666666667 140.833333333 -11.1666666667 148.5 -3.5 c 128
 156.166666667 4.16666666667 165.666666667 8 177 8 c 0
EndSplineSet
EndChar

StartChar: quoteleft.taml
Encoding: 5 -1 5
Width: 250
Flags: HW
LayerCount: 2
Fore
SplineSet
177 648 m 1
 145 637.333333333 119.333333333 619 100 593 c 0
 84 571.666666667 76 553 76 537 c 0
 76 532.333333333 77.3333333333 529 80 527 c 128
 82.6666666667 525 86.3333333333 524 91 524 c 256
 95.6666666667 524 102.833333333 527.166666667 112.5 533.5 c 128
 122.166666667 539.833333333 130 543 136 543 c 0
 143.333333333 543 149.666666667 541 155 537 c 0
 175 523 185 504 185 480 c 0
 185 467.333333333 181.666666667 456.333333333 175 447 c 0
 169.666666667 437.666666667 162.333333333 431 153 427 c 128
 143.666666667 423 133.333333333 421 122 421 c 0
 114.666666667 421 105 421.666666667 93 423 c 128
 81 424.333333333 69.3333333333 434.666666667 58 454 c 128
 46.6666666667 473.333333333 41 494.333333333 41 517 c 0
 41 526.333333333 41.6666666667 533.333333333 43 538 c 0
 52.3333333333 586 77.3333333333 623.333333333 118 650 c 0
 131.333333333 658.666666667 151 667.666666667 177 677 c 1
 177 648 l 1
EndSplineSet
EndChar

StartChar: u20A8
Encoding: 6 8360 6
Width: 800
Flags: HW
LayerCount: 2
Fore
SplineSet
696 86 m 0
 696 60 686.166666667 38.1666666667 666.5 20.5 c 128
 646.833333333 2.83333333333 624 -6 598 -6 c 0
 586 -6 570.333333333 -4 551 0 c 128
 531.666666667 4 519.666666667 6 515 6 c 0
 507.666666667 6 502.666666667 3.66666666667 500 -1 c 1
 500 100 l 1
 510 64.6666666667 523.666666667 39.6666666667 541 25 c 0
 555.666666667 12.3333333333 575 6 599 6 c 0
 613.666666667 6 627 11.6666666667 639 23 c 128
 651 34.3333333333 657 46 657 58 c 0
 657 75.3333333333 648.666666667 90.6666666667 632 104 c 0
 621.333333333 112.666666667 602.333333333 123.666666667 575 137 c 0
 546.333333333 152.333333333 528 163.666666667 520 171 c 0
 506 183.666666667 499 201.333333333 499 224 c 0
 499 249.333333333 506.833333333 269.5 522.5 284.5 c 128
 538.166666667 299.5 558.666666667 307 584 307 c 0
 596 307 609.833333333 305.5 625.5 302.5 c 128
 641.166666667 299.5 649.666666667 298 651 298 c 0
 658.333333333 298 663.333333333 301 666 307 c 1
 676 307 l 1
 676 213 l 1
 667 213 l 1
 660.333333333 245 650.333333333 267.166666667 637 279.5 c 128
 623.666666667 291.833333333 605.333333333 298 582 298 c 0
 568 298 555.5 293.833333333 544.5 285.5 c 128
 533.5 277.166666667 528 266.333333333 528 253 c 0
 528 237.666666667 533 225 543 215 c 0
 551 207 575.666666667 193 617 173 c 0
 643 159 661 147.666666667 671 139 c 0
 687.666666667 123.666666667 696 106 696 86 c 0
447 4 m 1
 332 4 l 1
 180 216 l 1
 129 214 l 1
 127 80 l 2
 127 50 131 31 139 23 c 0
 144.333333333 17.6666666667 157 15 177 15 c 2
 192 15 l 1
 192 4 l 1
 9 4 l 1
 9 15 l 1
 19 15 l 2
 39 15 52 17.6666666667 58 23 c 0
 68 31.6666666667 73 50.6666666667 73 80 c 2
 73 374 l 2
 73 401.333333333 69 418.166666667 61 424.5 c 128
 53 430.833333333 39 434 19 434 c 2
 7 433 l 1
 7 446 l 1
 165 446 l 2
 228.333333333 446 275 438.166666667 305 422.5 c 128
 335 406.833333333 350 378.333333333 350 337 c 0
 350 310.333333333 341.666666667 287.666666667 325 269 c 0
 305.666666667 247 276.333333333 231.333333333 237 222 c 1
 268.333333333 180 291.666666667 148.666666667 307 128 c 0
 355.666666667 64 383 30.1666666667 389 26.5 c 128
 395 22.8333333333 404 19.8333333333 416 17.5 c 128
 428 15.1666666667 438.333333333 13.3333333333 447 12 c 1
 447 4 l 1
285 326 m 0
 285 353.333333333 277.333333333 375.666666667 262 393 c 0
 242.666666667 415 213.666666667 426 175 426 c 0
 162 426 162 426 149 426 c 0
 139.666666667 424 133 422.666666667 129 422 c 1
 129 232 l 1
 135 231.333333333 143.333333333 231 154 231 c 0
 192.666666667 231 224.166666667 240.166666667 248.5 258.5 c 128
 272.833333333 276.833333333 285 299.333333333 285 326 c 0
EndSplineSet
EndChar

StartChar: percent.taml
Encoding: 7 -1 7
Width: 581
Flags: HW
LayerCount: 2
Fore
SplineSet
499 157 m 0
 499 109 487.666666667 72 465 46 c 0
 446.333333333 24.6666666667 424 14 398 14 c 0
 371.333333333 14 351 24.3333333333 337 45 c 128
 323 65.6666666667 316 95.6666666667 316 135 c 0
 316 187 328 226.333333333 352 253 c 0
 370 273 390.666666667 283 414 283 c 0
 436 283 454 275.666666667 468 261 c 0
 488.666666667 239 499 204.333333333 499 157 c 0
426 504 m 1
 138 12 l 1
 98 12 l 1
 385 504 l 1
 426 504 l 1
212 383 m 0
 212 331 200 291.666666667 176 265 c 0
 158 245 137.333333333 235 114 235 c 0
 92 235 74 242.333333333 60 257 c 0
 39.3333333333 279 29 313.666666667 29 361 c 0
 29 409 40.3333333333 446 63 472 c 0
 81.6666666667 493.333333333 104 504 130 504 c 0
 156.666666667 504 177 493.666666667 191 473 c 128
 205 452.333333333 212 422.333333333 212 383 c 0
459 119 m 0
 459 159 452.5 188 439.5 206 c 128
 426.5 224 410 233 390 233 c 0
 367.333333333 233 356 216.333333333 356 183 c 0
 356 143 362.333333333 113.166666667 375 93.5 c 128
 387.666666667 73.8333333333 405 64 427 64 c 0
 448.333333333 64 459 82.3333333333 459 119 c 0
172 335 m 0
 172 375 165.666666667 404.833333333 153 424.5 c 128
 140.333333333 444.166666667 123 454 101 454 c 0
 79.6666666667 454 69 435.666666667 69 399 c 0
 69 359 76 329.333333333 90 310 c 0
 102 293.333333333 118 285 138 285 c 0
 160.666666667 285 172 301.666666667 172 335 c 0
EndSplineSet
EndChar

StartChar: ampersand.taml
Encoding: 8 -1 8
Width: 505
Flags: HW
LayerCount: 2
Fore
SplineSet
331 286 m 1
 463 286 l 1
 463 274 l 1
 447 274 433.333333333 270 422 262 c 0
 416.666666667 257.333333333 411 250.5 405 241.5 c 128
 399 232.5 391.333333333 219.333333333 382 202 c 0
 365.333333333 170 344.333333333 138.333333333 319 107 c 1
 326.333333333 98.3333333333 335 89.6666666667 345 81 c 128
 355 72.3333333333 363.333333333 65.6666666667 370 61 c 0
 385.333333333 52.3333333333 400 48 414 48 c 0
 445.333333333 48 464.666666667 63.6666666667 472 95 c 1
 485 86 l 1
 469 28 437 -1 389 -1 c 0
 372.333333333 -1 354 3.66666666667 334 13 c 0
 324.666666667 18.3333333333 315.5 24.6666666667 306.5 32 c 128
 297.5 39.3333333333 287 49 275 61 c 1
 252.333333333 41 228.5 25.5 203.5 14.5 c 128
 178.5 3.5 155.666666667 -2 135 -2 c 0
 104.333333333 -2 78.1666666667 7.5 56.5 26.5 c 128
 34.8333333333 45.5 24 68.6666666667 24 96 c 0
 24 119.333333333 33.1666666667 144 51.5 170 c 128
 69.8333333333 196 104.333333333 222.333333333 155 249 c 1
 137.666666667 288.333333333 129 320 129 344 c 0
 129 375.333333333 139.5 400.5 160.5 419.5 c 128
 181.5 438.5 208 448 240 448 c 0
 264 448 284.166666667 440.833333333 300.5 426.5 c 128
 316.833333333 412.166666667 325 394 325 372 c 256
 325 350 317.333333333 330.333333333 302 313 c 128
 286.666666667 295.666666667 259.333333333 277 220 257 c 1
 234 232.333333333 248 209 262 187 c 128
 276 165 290.333333333 144.666666667 305 126 c 1
 341.666666667 170.666666667 360 208 360 238 c 0
 360 247.333333333 357.833333333 255.333333333 353.5 262 c 128
 349.166666667 268.666666667 341.666666667 272.666666667 331 274 c 1
 331 286 l 1
210 278 m 1
 262 303.333333333 288 335 288 373 c 0
 288 387 283.333333333 399.333333333 274 410 c 128
 264.666666667 420.666666667 253 426 239 426 c 0
 222.333333333 426 209 420 199 408 c 128
 189 396 184 383 184 369 c 0
 184 357 185.5 345 188.5 333 c 128
 191.5 321 198.666666667 302.666666667 210 278 c 1
258 79 m 1
 229.333333333 119.666666667 210 148 200 164 c 0
 192.666666667 176 181 197.333333333 165 228 c 1
 139 212 120 196 108 180 c 0
 96 162 90 143.333333333 90 124 c 0
 90 101.333333333 97 81 111 63 c 0
 119 54.3333333333 127.5 47.5 136.5 42.5 c 128
 145.5 37.5 155.666666667 35 167 35 c 0
 179.666666667 35 193.5 38.5 208.5 45.5 c 128
 223.5 52.5 240 63.6666666667 258 79 c 1
EndSplineSet
EndChar

StartChar: quoteright.taml
Encoding: 9 -1 9
Width: 250
Flags: HW
LayerCount: 2
Fore
SplineSet
150 550 m 0
 140.666666667 502 115.666666667 464.666666667 75 438 c 0
 61.6666666667 429.333333333 42 420.333333333 16 411 c 1
 16 440 l 1
 48 450.666666667 73.6666666667 469 93 495 c 0
 109 516.333333333 117 535 117 551 c 0
 117 555.666666667 115.666666667 559 113 561 c 128
 110.333333333 563 106.666666667 564 102 564 c 256
 97.3333333333 564 90.1666666667 560.833333333 80.5 554.5 c 128
 70.8333333333 548.166666667 63 545 57 545 c 0
 49.6666666667 545 43.3333333333 547 38 551 c 0
 18 565 8 584 8 608 c 0
 8 620.666666667 11.3333333333 631.666666667 18 641 c 0
 23.3333333333 650.333333333 30.6666666667 657 40 661 c 128
 49.3333333333 665 59.6666666667 667 71 667 c 0
 78.3333333333 667 88 666.333333333 100 665 c 128
 112 663.666666667 123.666666667 653.333333333 135 634 c 128
 146.333333333 614.666666667 152 593.666666667 152 571 c 0
 152 561.666666667 151.333333333 554.666666667 150 550 c 0
EndSplineSet
EndChar

StartChar: parenleft.taml
Encoding: 10 -1 10
Width: 280
Flags: HW
LayerCount: 2
Fore
SplineSet
301 -246 m 1
 295 -253 l 1
 214.333333333 -207.666666667 152.666666667 -144.666666667 110 -64 c 0
 70 12 50 96.3333333333 50 189 c 0
 50 283.666666667 69.6666666667 368.333333333 109 443 c 0
 151 523 213 586 295 632 c 1
 301 626 l 1
 245 581.333333333 202 520.166666667 172 442.5 c 128
 142 364.833333333 127 281 127 191 c 0
 127 103 141.833333333 20 171.5 -58 c 128
 201.166666667 -136 244.333333333 -198.666666667 301 -246 c 1
EndSplineSet
EndChar

StartChar: parenright.taml
Encoding: 11 -1 11
Width: 280
Flags: HW
LayerCount: 2
Fore
SplineSet
190 189 m 0
 190 95 170.333333333 10.6666666667 131 -64 c 0
 89 -144 27 -207 -55 -253 c 1
 -61 -246 l 1
 -5 -199.333333333 38.3333333333 -135.333333333 69 -54 c 0
 97.6666666667 22 112 103.666666667 112 191 c 0
 112 281.666666667 97.6666666667 364.333333333 69 439 c 0
 38.3333333333 519 -5 581.333333333 -61 626 c 1
 -55 632 l 1
 25.6666666667 586.666666667 87.3333333333 523.666666667 130 443 c 0
 170 367 190 282.333333333 190 189 c 0
EndSplineSet
EndChar

StartChar: asterisk.taml
Encoding: 12 -1 12
Width: 600
Flags: HW
LayerCount: 2
Fore
SplineSet
293 401 m 1
 279.666666667 393 266.333333333 382.333333333 253 369 c 0
 237 353 221.333333333 337 206 321 c 0
 199.333333333 315.666666667 192 313 184 313 c 0
 172.666666667 313 164 318 158 328 c 0
 155.333333333 331.333333333 154 336.333333333 154 343 c 0
 154 359 159 368.5 169 371.5 c 128
 179 374.5 202 381 238 391 c 0
 258 396.333333333 274.333333333 402.666666667 287 410 c 1
 275.666666667 415.333333333 263.666666667 420 251 424 c 0
 225.666666667 430.666666667 200.333333333 437.666666667 175 445 c 0
 161.666666667 451 155 461.333333333 155 476 c 0
 155 482 156 487 158 491 c 0
 165.333333333 501 175 506 187 506 c 0
 195 506 201.333333333 503.666666667 206 499 c 0
 229.333333333 474.333333333 245 458 253 450 c 0
 265.666666667 437.333333333 279 426.333333333 293 417 c 1
 293 433.666666667 289.5 453.833333333 282.5 477.5 c 128
 275.5 501.166666667 270.666666667 520.333333333 268 535 c 0
 268 545.666666667 271 554.333333333 277 561 c 128
 283 567.666666667 290.333333333 571 299 571 c 256
 307.666666667 571 314.666666667 567.666666667 320 561 c 128
 325.333333333 554.333333333 328 545.333333333 328 534 c 1
 318.666666667 500.666666667 312.666666667 478.666666667 310 468 c 0
 305.333333333 450.666666667 303 434.333333333 303 419 c 1
 316.333333333 427 330 438 344 452 c 0
 372.666666667 480.666666667 388.833333333 496.5 392.5 499.5 c 128
 396.166666667 502.5 401.666666667 504 409 504 c 0
 421 504 430.666666667 499.333333333 438 490 c 0
 440 484.666666667 441 479.666666667 441 475 c 0
 441 458.333333333 434.333333333 448.333333333 421 445 c 0
 419 444.333333333 397.333333333 438.666666667 356 428 c 0
 338.666666667 423.333333333 322.666666667 417.333333333 308 410 c 1
 321.333333333 402.666666667 338 396.166666667 358 390.5 c 128
 378 384.833333333 399 379 421 373 c 0
 434.333333333 369.666666667 441 360 441 344 c 0
 441 338.666666667 440 334 438 330 c 0
 431.333333333 319.333333333 421.666666667 314 409 314 c 0
 402.333333333 314 396.666666667 316.333333333 392 321 c 0
 382 329.666666667 366 344.666666667 344 366 c 0
 329.333333333 380.666666667 315.666666667 391.666666667 303 399 c 1
 303 381.666666667 306.333333333 361 313 337 c 0
 317.666666667 319 322.666666667 301.333333333 328 284 c 1
 328 273.333333333 325.166666667 264.5 319.5 257.5 c 128
 313.833333333 250.5 307 247 299 247 c 256
 291 247 283.833333333 250.5 277.5 257.5 c 128
 271.166666667 264.5 268 273.333333333 268 284 c 0
 271.333333333 302 276.333333333 322.5 283 345.5 c 128
 289.666666667 368.5 293 387 293 401 c 1
EndSplineSet
EndChar

StartChar: plus.taml
Encoding: 13 -1 13
Width: 420
Flags: HW
LayerCount: 2
Fore
SplineSet
176 259 m 1
 176 334 l 2
 176 340 179.333333333 344.666666667 186 348 c 128
 192.666666667 351.333333333 200.666666667 353 210 353 c 256
 219.333333333 353 227.333333333 351.5 234 348.5 c 128
 240.666666667 345.5 244 340.666666667 244 334 c 2
 244 259 l 1
 319 259 l 2
 327 259 332.333333333 255.166666667 335 247.5 c 128
 337.666666667 239.833333333 339 232.333333333 339 225 c 0
 339 216.333333333 337.166666667 208.5 333.5 201.5 c 128
 329.833333333 194.5 325 191 319 191 c 2
 244 191 l 1
 244 116 l 2
 244 108 240.166666667 102.666666667 232.5 100 c 128
 224.833333333 97.3333333333 217.333333333 96 210 96 c 0
 201.333333333 96 193.5 97.8333333333 186.5 101.5 c 128
 179.5 105.166666667 176 110 176 116 c 2
 176 191 l 1
 101 191 l 2
 95 191 90.3333333333 194.333333333 87 201 c 128
 83.6666666667 207.666666667 82 215.666666667 82 225 c 256
 82 234.333333333 83.5 242.333333333 86.5 249 c 128
 89.5 255.666666667 94.3333333333 259 101 259 c 2
 176 259 l 1
EndSplineSet
EndChar

StartChar: comma.taml
Encoding: 14 -1 14
Width: 220
Flags: HW
LayerCount: 2
Fore
SplineSet
154 34 m 0
 154 -4 140.666666667 -37 114 -65 c 0
 79.3333333333 -101.666666667 49 -120 23 -120 c 1
 23 -93 l 1
 34.3333333333 -93 52 -82.6666666667 76 -62 c 0
 104.666666667 -37.3333333333 119 -12 119 14 c 0
 119 22 115 26 107 26 c 0
 103 26 96.1666666667 22.8333333333 86.5 16.5 c 128
 76.8333333333 10.1666666667 69 7 63 7 c 0
 53 7 42.5 13.5 31.5 26.5 c 128
 20.5 39.5 15 53 15 67 c 0
 15 82.3333333333 20.6666666667 96 32 108 c 128
 43.3333333333 120 57 126 73 126 c 0
 96.3333333333 126 115.666666667 116.333333333 131 97 c 128
 146.333333333 77.6666666667 154 56.6666666667 154 34 c 0
EndSplineSet
EndChar

StartChar: hyphen.taml
Encoding: 15 -1 15
Width: 443
Flags: HW
LayerCount: 2
Fore
SplineSet
361 191 m 2
 81 191 l 2
 67.6666666667 191 57.1666666667 194.5 49.5 201.5 c 128
 41.8333333333 208.5 38 217 38 227 c 0
 38 236.333333333 41.6666666667 244.333333333 49 251 c 128
 56.3333333333 257.666666667 67 261 81 261 c 2
 361 261 l 2
 375 261 386 257.333333333 394 250 c 128
 402 242.666666667 406 234 406 224 c 0
 406 202 391 191 361 191 c 2
EndSplineSet
EndChar

StartChar: period.taml
Encoding: 16 -1 16
Width: 220
Flags: HW
LayerCount: 2
Fore
SplineSet
153 62 m 256
 153 44.6666666667 146.666666667 30 134 18 c 128
 121.333333333 6 106.333333333 0 89 0 c 0
 73 0 58.6666666667 6 46 18 c 128
 33.3333333333 30 27 44.6666666667 27 62 c 256
 27 79.3333333333 33 94 45 106 c 128
 57 118 71.6666666667 124 89 124 c 256
 106.333333333 124 121.333333333 118 134 106 c 128
 146.666666667 94 153 79.3333333333 153 62 c 256
EndSplineSet
EndChar

StartChar: slash.taml
Encoding: 18 -1 18
Width: 260
Flags: HW
LayerCount: 2
Fore
SplineSet
260 614 m 1
 21 -94 l 1
 -19 -94 l 1
 221 614 l 1
 260 614 l 1
EndSplineSet
EndChar

StartChar: zero.taml
Encoding: 19 -1 19
Width: 534
Flags: HW
LayerCount: 2
Fore
SplineSet
414 225 m 0
 414 150.333333333 393.333333333 93 352 53 c 0
 314.666666667 17 265 -1 203 -1 c 0
 189.666666667 -1 176 0 162 2 c 0
 103.333333333 10 61 33.6666666667 35 73 c 0
 11.6666666667 108.333333333 0 159 0 225 c 0
 0 290.333333333 11.6666666667 340.666666667 35 376 c 0
 61 415.333333333 103.333333333 438.666666667 162 446 c 0
 169.333333333 447.333333333 176.833333333 448 184.5 448 c 128
 196 448 196 448 202 448 c 0
 269.333333333 448 322 426.666666667 360 384 c 0
 396 343.333333333 414 290.333333333 414 225 c 0
294 223 m 0
 294 277 284.333333333 319.333333333 265 350 c 0
 242.333333333 385.333333333 208 403 162 403 c 0
 121.333333333 403 90.8333333333 385.833333333 70.5 351.5 c 128
 50.1666666667 317.166666667 40 274.333333333 40 223 c 0
 40 174.333333333 50.5 132.833333333 71.5 98.5 c 128
 92.5 64.1666666667 122.666666667 47 162 47 c 0
 207.333333333 47 241.666666667 65.3333333333 265 102 c 0
 284.333333333 132.666666667 294 173 294 223 c 0
EndSplineSet
EndChar

StartChar: one.taml
Encoding: 20 -1 20
Width: 347
Flags: HW
LayerCount: 2
Fore
SplineSet
227 424 m 0
 219 409.333333333 212.5 392.166666667 207.5 372.5 c 128
 202.5 352.833333333 200 332.333333333 200 311 c 0
 200 293 199.166666667 260.5 197.5 213.5 c 128
 195.833333333 166.5 195 139.333333333 195 132 c 0
 195 86 182.333333333 51 157 27 c 0
 135.666666667 6.33333333333 108.333333333 -4 75 -4 c 0
 61 -4 54 0.333333333333 54 9 c 0
 54 12.3333333333 55.6666666667 16.6666666667 59 22 c 0
 67 36.6666666667 73.5 53.8333333333 78.5 73.5 c 128
 83.5 93.1666666667 86 113.666666667 86 135 c 0
 86 141.666666667 88.3333333333 190.666666667 93 282 c 0
 93 296.666666667 93.3333333333 311.666666667 94 327 c 1
 89.3333333333 313 82 297.666666667 72 281 c 128
 62 264.333333333 50.6666666667 250.666666667 38 240 c 0
 31.3333333333 233.333333333 24.3333333333 230 17 230 c 256
 9.66666666667 230 4.66666666667 233.333333333 2 240 c 0
 -1.33333333333 252 1 261.333333333 9 268 c 0
 17 273.333333333 25.3333333333 279 34 285 c 0
 34.6666666667 286.333333333 36.6666666667 288.333333333 40 291 c 0
 46.6666666667 296.333333333 53.6666666667 306.333333333 61 321 c 0
 74.3333333333 349.666666667 83.6666666667 369.666666667 89 381 c 0
 98.3333333333 401.666666667 108.333333333 415.666666667 119 423 c 0
 142.333333333 441 173 450 211 450 c 0
 225 450 232 445.666666667 232 437 c 0
 232 433.666666667 230.333333333 429.333333333 227 424 c 0
EndSplineSet
EndChar

StartChar: two.taml
Encoding: 21 -1 21
Width: 475
Flags: HW
LayerCount: 2
Fore
SplineSet
8 361 m 0
 26.6666666667 397.666666667 46.6666666667 421.666666667 68 433 c 128
 89.3333333333 444.333333333 116.333333333 450 149 450 c 0
 216.333333333 450 265.333333333 438.166666667 296 414.5 c 128
 326.666666667 390.833333333 342 355.333333333 342 308 c 0
 342 246.666666667 315.333333333 202.666666667 262 176 c 1
 201.333333333 150.666666667 141 125.333333333 81 100 c 0
 69.6666666667 94 61.1666666667 87.5 55.5 80.5 c 128
 49.8333333333 73.5 47 67 47 61 c 0
 47 53.6666666667 50.3333333333 47.6666666667 57 43 c 128
 63.6666666667 38.3333333333 72.3333333333 36 83 36 c 0
 87.6666666667 36 95.5 37.6666666667 106.5 41 c 128
 117.5 44.3333333333 125.166666667 46.6666666667 129.5 48 c 128
 133.833333333 49.3333333333 137.333333333 50 140 50 c 0
 142 50 146.5 49.6666666667 153.5 49 c 128
 160.5 48.3333333333 167.666666667 48 175 48 c 0
 191.666666667 48 204.333333333 46.6666666667 213 44 c 128
 221.666666667 41.3333333333 233.666666667 40 249 40 c 0
 269.666666667 40 285 42 295 46 c 0
 306.333333333 52.6666666667 316.333333333 58.1666666667 325 62.5 c 128
 333.666666667 66.8333333333 342 69 350 69 c 0
 366.666666667 69 375 62.3333333333 375 49 c 0
 375 39 368.833333333 30.8333333333 356.5 24.5 c 128
 344.166666667 18.1666666667 332.5 12.5 321.5 7.5 c 128
 310.5 2.5 293.333333333 0 270 0 c 0
 248.666666667 0 233 1.33333333333 223 4 c 128
 213 6.66666666667 197.666666667 8 177 8 c 0
 155.666666667 8 138 7 124 5 c 0
 86.6666666667 -0.333333333333 64.3333333333 -3 57 -3 c 0
 41.6666666667 -3 29.3333333333 0.333333333333 20 7 c 0
 6.66666666667 16.3333333333 0 32.3333333333 0 55 c 0
 0 84.3333333333 19.3333333333 109.833333333 58 131.5 c 128
 96.6666666667 153.166666667 134.666666667 174.333333333 172 195 c 1
 212 225 232 264 232 312 c 0
 232 346.666666667 226 371.666666667 214 387 c 128
 202 402.333333333 181.333333333 410 152 410 c 2
 132 410 l 2
 108.666666667 410 90.3333333333 404.5 77 393.5 c 128
 63.6666666667 382.5 51.6666666667 366.333333333 41 345 c 0
 36.3333333333 335 29.6666666667 330 21 330 c 0
 10.3333333333 330 5 336 5 348 c 0
 5 351.333333333 6 355.666666667 8 361 c 0
EndSplineSet
EndChar

StartChar: three.taml
Encoding: 22 -1 22
Width: 424
Flags: HW
LayerCount: 2
Fore
SplineSet
21 408 m 0
 24.3333333333 415.333333333 34 423.333333333 50 432 c 128
 66 440.666666667 79.1666666667 446 89.5 448 c 128
 99.8333333333 450 109 451.333333333 117 452 c 128
 125 452.666666667 132.666666667 453 140 453 c 0
 186 453 224.333333333 442 255 420 c 128
 285.666666667 398 301 370 301 336 c 0
 301 318 295.833333333 299.666666667 285.5 281 c 128
 275.166666667 262.333333333 259 243.666666667 237 225 c 1
 259.666666667 208.333333333 276.5 190.666666667 287.5 172 c 128
 298.5 153.333333333 304 134.666666667 304 116 c 0
 304 82.6666666667 288.166666667 54.3333333333 256.5 31 c 128
 224.833333333 7.66666666667 185 -4 137 -4 c 0
 123 -4 123 -4 109 -4 c 0
 100.333333333 -2 94 -0.666666666667 90 0 c 0
 42.6666666667 8.66666666667 12.6666666667 31.3333333333 0 68 c 0
 -2.66666666667 74.6666666667 -2 81.1666666667 2 87.5 c 128
 6 93.8333333333 11.3333333333 97 18 97 c 0
 26 97 33.3333333333 90.8333333333 40 78.5 c 128
 46.6666666667 66.1666666667 55 56.8333333333 65 50.5 c 128
 75 44.1666666667 88.3333333333 41 105 41 c 0
 127 41 148 50.3333333333 168 69 c 128
 188 87.6666666667 198 109.666666667 198 135 c 0
 198 150.333333333 193 165.666666667 183 181 c 128
 173 196.333333333 157.333333333 211 136 225 c 1
 157.333333333 239.666666667 173 255.166666667 183 271.5 c 128
 193 287.833333333 198 304 198 320 c 0
 198 344 188.666666667 364.333333333 170 381 c 128
 151.333333333 397.666666667 129.666666667 406 105 406 c 2
 92 406 l 2
 84.6666666667 406 78.5 404.833333333 73.5 402.5 c 128
 68.5 400.166666667 62.6666666667 394.5 56 385.5 c 128
 49.3333333333 376.5 42.3333333333 372 35 372 c 0
 23 372 17 379 17 393 c 0
 17 398.333333333 18.3333333333 403.333333333 21 408 c 0
EndSplineSet
EndChar

StartChar: four.taml
Encoding: 23 -1 23
Width: 509
Flags: HW
LayerCount: 2
Fore
SplineSet
197 162 m 1
 197 188.666666667 201.333333333 241.666666667 210 321 c 0
 210.666666667 335 211.666666667 349 213 363 c 1
 195.666666667 333 169 295.333333333 133 250 c 0
 95 202 65.3333333333 169.333333333 44 152 c 1
 54 152 76 153.666666667 110 157 c 128
 144 160.333333333 173 162 197 162 c 1
305 123 m 1
 305 81 292 48.6666666667 266 26 c 0
 243.333333333 6 216.333333333 -4 185 -4 c 0
 171 -4 164 0.333333333333 164 9 c 0
 164 12.3333333333 165.666666667 16.6666666667 169 22 c 0
 177 36.6666666667 183.5 52.3333333333 188.5 69 c 128
 193.5 85.6666666667 196 103.666666667 196 123 c 1
 21 119 l 2
 7 119 0 125.333333333 0 138 c 0
 0 142 1.66666666667 146.666666667 5 152 c 0
 49 198 92.3333333333 248 135 302 c 0
 166.333333333 342 197.666666667 382.333333333 229 423 c 0
 237.666666667 433.666666667 249.333333333 440.833333333 264 444.5 c 128
 278.666666667 448.166666667 297.666666667 450 321 450 c 0
 335 450 342 445.666666667 342 437 c 0
 342 433.666666667 340.333333333 429.333333333 337 424 c 0
 329 409.333333333 322.5 392.166666667 317.5 372.5 c 128
 312.5 352.833333333 310 332.333333333 310 311 c 2
 305 157 l 1
 310 157 l 2
 321.333333333 157 331.833333333 159.333333333 341.5 164 c 128
 351.166666667 168.666666667 359.333333333 172.666666667 366 176 c 128
 372.666666667 179.333333333 379 181 385 181 c 0
 397.666666667 181 404 176 404 166 c 0
 404 158 398.5 150.833333333 387.5 144.5 c 128
 376.5 138.166666667 365.666666667 133 355 129 c 128
 344.333333333 125 333 123 321 123 c 2
 305 123 l 1
EndSplineSet
EndChar

StartChar: five.taml
Encoding: 24 -1 24
Width: 483
Flags: HW
LayerCount: 2
Fore
SplineSet
184 428 m 0
 196.666666667 428 209.833333333 427.5 223.5 426.5 c 128
 237.166666667 425.5 244.333333333 425 245 425 c 0
 259.666666667 425 271.666666667 426.166666667 281 428.5 c 128
 290.333333333 430.833333333 301.666666667 435.666666667 315 443 c 0
 324.333333333 447.666666667 333 450 341 450 c 0
 357.666666667 450 366 443.333333333 366 430 c 0
 366 420 359.333333333 411.666666667 346 405 c 0
 316.666666667 391.666666667 290 385 266 385 c 0
 251.333333333 385 236.166666667 385.5 220.5 386.5 c 128
 204.833333333 387.5 193.333333333 388 186 388 c 2
 133 386 l 1
 85 311 l 1
 108.333333333 315 130.666666667 317 152 317 c 0
 213.333333333 317 263 303.333333333 301 276 c 0
 342.333333333 246 363 203.666666667 363 149 c 0
 363 89 339 47 291 23 c 0
 257 6.33333333333 208 -2 144 -2 c 0
 112.666666667 -2 88.5 0.333333333333 71.5 5 c 128
 54.5 9.66666666667 37.3333333333 19.3333333333 20 34 c 0
 15.3333333333 38 13 42.6666666667 13 48 c 256
 13 53.3333333333 15.3333333333 58 20 62 c 128
 24.6666666667 66 29.6666666667 68 35 68 c 0
 39.6666666667 68 43.3333333333 66.6666666667 46 64 c 0
 60.6666666667 52.6666666667 74 45.5 86 42.5 c 128
 98 39.5 117.333333333 38 144 38 c 0
 171.333333333 38 195.333333333 48.3333333333 216 69 c 128
 236.666666667 89.6666666667 247 116.666666667 247 150 c 0
 247 197.333333333 227 231.333333333 187 252 c 0
 159 266.666666667 122.333333333 274 77 274 c 0
 56.3333333333 274 46 279.333333333 46 290 c 0
 46 296 49 303 55 311 c 2
 98 414 l 1
 116 426 l 2
 122.666666667 429.333333333 131 431 141 431 c 0
 146.333333333 431 154.333333333 430.5 165 429.5 c 128
 175.666666667 428.5 182 428 184 428 c 0
EndSplineSet
EndChar

StartChar: six.taml
Encoding: 25 -1 25
Width: 374
Flags: HW
LayerCount: 2
Fore
SplineSet
241 410 m 0
 185 410 140.666666667 394.666666667 108 364 c 0
 79.3333333333 336.666666667 65 303.666666667 65 265 c 1
 86.3333333333 277.666666667 113.666666667 284 147 284 c 0
 189.666666667 284 225.333333333 274.666666667 254 256 c 0
 287.333333333 234.666666667 304 205 304 167 c 0
 304 115 295.333333333 76 278 50 c 0
 256 16.6666666667 218.333333333 0 165 0 c 0
 105 0 64 15.6666666667 42 47 c 0
 23.3333333333 73 14 116.666666667 14 178 c 0
 14 263.333333333 30.3333333333 328.333333333 63 373 c 0
 101 424.333333333 161 450 243 450 c 0
 261.666666667 450 271 443.333333333 271 430 c 256
 271 416.666666667 261 410 241 410 c 0
194 146 m 0
 194 175.333333333 187.666666667 196.666666667 175 210 c 128
 162.333333333 223.333333333 145 230 123 230 c 0
 83.6666666667 230 64 203.666666667 64 151 c 0
 64 119 69.3333333333 92.5 80 71.5 c 128
 90.6666666667 50.5 104.666666667 40 122 40 c 0
 150.666666667 40 169.833333333 47.8333333333 179.5 63.5 c 128
 189.166666667 79.1666666667 194 106.666666667 194 146 c 0
EndSplineSet
EndChar

StartChar: seven.taml
Encoding: 26 -1 26
Width: 455
Flags: HW
LayerCount: 2
Fore
SplineSet
28 405 m 0
 8.66666666667 412.333333333 1.33333333333 421.666666667 6 433 c 0
 9.33333333333 442.333333333 15.3333333333 447 24 447 c 0
 28.6666666667 447 35.3333333333 445.166666667 44 441.5 c 128
 52.6666666667 437.833333333 58.6666666667 435.666666667 62 435 c 0
 62.6666666667 435 71.3333333333 434 88 432 c 128
 104.666666667 430 120 429 134 429 c 0
 152.666666667 429 171 431.166666667 189 435.5 c 128
 207 439.833333333 220.5 442.333333333 229.5 443 c 128
 238.5 443.666666667 250.5 444.833333333 265.5 446.5 c 128
 280.5 448.166666667 288.666666667 449 290 449 c 0
 304.666666667 449 316.666666667 446.5 326 441.5 c 128
 335.333333333 436.5 340 432.666666667 340 430 c 0
 340 428 338.333333333 424.666666667 335 420 c 0
 327 408.666666667 320 395.833333333 314 381.5 c 128
 308 367.166666667 303.666666667 350.666666667 301 332 c 2
 268 98 l 2
 263.333333333 66.6666666667 251 42.3333333333 231 25 c 0
 213.666666667 10.3333333333 193.666666667 3 171 3 c 0
 165 3 158.833333333 3.5 152.5 4.5 c 128
 146.166666667 5.5 143 9 143 15 c 0
 143 19 144.666666667 22.6666666667 148 26 c 0
 156 37.3333333333 163 50.3333333333 169 65 c 128
 175 79.6666666667 179.333333333 95.6666666667 182 113 c 2
 215 347 l 2
 217 363 218.833333333 374.5 220.5 381.5 c 128
 222.166666667 388.5 225.333333333 396 230 404 c 1
 210 400 190.833333333 396.5 172.5 393.5 c 128
 154.166666667 390.5 134 389 112 389 c 0
 102 389 87.8333333333 390.833333333 69.5 394.5 c 128
 51.1666666667 398.166666667 37.3333333333 401.666666667 28 405 c 0
EndSplineSet
EndChar

StartChar: eight.taml
Encoding: 27 -1 27
Width: 399
Flags: HW
LayerCount: 2
Fore
SplineSet
179 121 m 0
 179 151 173.333333333 175 162 193 c 128
 150.666666667 211 132.333333333 220 107 220 c 0
 85 220 68.3333333333 210.5 57 191.5 c 128
 45.6666666667 172.5 40 149 40 121 c 0
 40 96.3333333333 46 76.6666666667 58 62 c 128
 70 47.3333333333 87 40 109 40 c 0
 134.333333333 40 152.333333333 47.1666666667 163 61.5 c 128
 173.666666667 75.8333333333 179 95.6666666667 179 121 c 0
107 245 m 1
 126.333333333 248.333333333 141.666666667 257.666666667 153 273 c 128
 164.333333333 288.333333333 170 306.666666667 170 328 c 0
 170 356 166 376 158 388 c 0
 148 402.666666667 130 410 104 410 c 0
 84 410 69.1666666667 402.5 59.5 387.5 c 128
 49.8333333333 372.5 45 352.666666667 45 328 c 0
 45 304.666666667 50.5 285 61.5 269 c 128
 72.5 253 87.6666666667 245 107 245 c 1
183 234 m 1
 212.333333333 226 235.666666667 214.333333333 253 199 c 0
 275 179 286 153.666666667 286 123 c 0
 286 79.6666666667 271.333333333 47.3333333333 242 26 c 0
 216.666666667 7.33333333333 184 -2 144 -2 c 0
 131.333333333 -2 119 -1 107 1 c 0
 73 6.33333333333 46.6666666667 19.3333333333 28 40 c 128
 9.33333333333 60.6666666667 0 88.3333333333 0 123 c 0
 0 149 6.66666666667 171.666666667 20 191 c 0
 31.3333333333 207.666666667 47.3333333333 221 68 231 c 1
 50.6666666667 241 36.3333333333 254 25 270 c 0
 11.6666666667 289.333333333 5 309.333333333 5 330 c 0
 5 362.666666667 12.8333333333 389.5 28.5 410.5 c 128
 44.1666666667 431.5 69.3333333333 444.666666667 104 450 c 0
 118 452 131.333333333 453 144 453 c 0
 188 453 221.666666667 440.666666667 245 416 c 0
 266.333333333 394 277 365.333333333 277 330 c 0
 277 306 267.333333333 284.666666667 248 266 c 128
 228.666666667 247.333333333 207 236.666666667 183 234 c 1
EndSplineSet
EndChar

StartChar: nine.taml
Encoding: 28 -1 28
Width: 435
Flags: HW
LayerCount: 2
Fore
SplineSet
315 282 m 0
 315 194 298 127 264 81 c 0
 223.333333333 25.6666666667 156 -2 62 -2 c 0
 44 -2 35 4.66666666667 35 18 c 256
 35 31.3333333333 44.6666666667 38 64 38 c 0
 128 38 178.333333333 55.3333333333 215 90 c 0
 246.333333333 120 262 155 262 195 c 1
 248 179.666666667 231.666666667 168.166666667 213 160.5 c 128
 194.333333333 152.833333333 175 149 155 149 c 0
 115 149 79.3333333333 161.833333333 48 187.5 c 128
 16.6666666667 213.166666667 1 244.333333333 1 281 c 0
 1 333 9.66666666667 372 27 398 c 0
 49 431.333333333 86.6666666667 448 140 448 c 0
 202.666666667 448 247.5 434.5 274.5 407.5 c 128
 301.5 380.5 315 338.666666667 315 282 c 0
265 309 m 0
 265 338.333333333 256.166666667 362.166666667 238.5 380.5 c 128
 220.833333333 398.833333333 202.333333333 408 183 408 c 0
 154.333333333 408 134.5 399 123.5 381 c 128
 112.5 363 107 335.333333333 107 298 c 0
 107 268.666666667 114.666666667 245.333333333 130 228 c 128
 145.333333333 210.666666667 164 202 186 202 c 0
 214 202 234.666666667 213 248 235 c 0
 259.333333333 253.666666667 265 278.333333333 265 309 c 0
EndSplineSet
EndChar

StartChar: colon.taml
Encoding: 29 -1 29
Width: 235
Flags: HW
LayerCount: 2
Fore
SplineSet
160 332 m 256
 160 314.666666667 153.666666667 300 141 288 c 128
 128.333333333 276 113.333333333 270 96 270 c 0
 80 270 65.6666666667 276 53 288 c 128
 40.3333333333 300 34 314.666666667 34 332 c 256
 34 349.333333333 40 364 52 376 c 128
 64 388 78.6666666667 394 96 394 c 256
 113.333333333 394 128.333333333 388 141 376 c 128
 153.666666667 364 160 349.333333333 160 332 c 256
160 52 m 256
 160 34.6666666667 153.666666667 20 141 8 c 128
 128.333333333 -4 113.333333333 -10 96 -10 c 0
 80 -10 65.6666666667 -4 53 8 c 128
 40.3333333333 20 34 34.6666666667 34 52 c 256
 34 69.3333333333 40 84 52 96 c 128
 64 108 78.6666666667 114 96 114 c 256
 113.333333333 114 128.333333333 108 141 96 c 128
 153.666666667 84 160 69.3333333333 160 52 c 256
EndSplineSet
EndChar

StartChar: semicolon.taml
Encoding: 30 -1 30
Width: 235
Flags: HW
LayerCount: 2
Fore
SplineSet
154 332 m 256
 154 314.666666667 147.666666667 300 135 288 c 128
 122.333333333 276 107.333333333 270 90 270 c 0
 74 270 59.6666666667 276 47 288 c 128
 34.3333333333 300 28 314.666666667 28 332 c 256
 28 349.333333333 34 364 46 376 c 128
 58 388 72.6666666667 394 90 394 c 256
 107.333333333 394 122.333333333 388 135 376 c 128
 147.666666667 364 154 349.333333333 154 332 c 256
154 34 m 0
 154 -4 140.666666667 -37 114 -65 c 0
 79.3333333333 -101.666666667 49 -120 23 -120 c 1
 23 -103 l 1
 33.6666666667 -103 51.3333333333 -91 76 -67 c 0
 104.666666667 -39 119 -12 119 14 c 0
 119 22 115 26 107 26 c 0
 103 26 96.1666666667 22.8333333333 86.5 16.5 c 128
 76.8333333333 10.1666666667 69 7 63 7 c 0
 53 7 42.5 13.5 31.5 26.5 c 128
 20.5 39.5 15 53 15 67 c 0
 15 82.3333333333 20.6666666667 96 32 108 c 128
 43.3333333333 120 57 126 73 126 c 0
 96.3333333333 126 115.666666667 116.333333333 131 97 c 128
 146.333333333 77.6666666667 154 56.6666666667 154 34 c 0
EndSplineSet
EndChar

StartChar: less.taml
Encoding: 31 -1 31
Width: 527
Flags: HW
LayerCount: 2
Fore
SplineSet
427 48 m 1
 427 -6 l 1
 23 178 l 1
 23 227 l 1
 427 410 l 1
 427 356 l 1
 89 202 l 1
 427 48 l 1
EndSplineSet
EndChar

StartChar: equal.taml
Encoding: 32 -1 32
Width: 564
Flags: HW
LayerCount: 2
Fore
SplineSet
484 359 m 1
 484 307 l 1
 80 307 l 1
 80 359 l 1
 484 359 l 1
484 199 m 1
 484 147 l 1
 80 147 l 1
 80 199 l 1
 484 199 l 1
EndSplineSet
EndChar

StartChar: greater.taml
Encoding: 33 -1 33
Width: 527
Flags: HW
LayerCount: 2
Fore
SplineSet
23 48 m 1
 361 202 l 1
 23 356 l 1
 23 410 l 1
 427 227 l 1
 427 178 l 1
 23 -6 l 1
 23 48 l 1
EndSplineSet
EndChar

StartChar: question.taml
Encoding: 34 -1 34
Width: 398
Flags: HW
LayerCount: 2
Fore
SplineSet
173 42 m 1
 159 42 l 1
 159 63.3333333333 162.333333333 86.6666666667 169 112 c 0
 171.666666667 122.666666667 176.333333333 137 183 155 c 2
 206 207 l 2
 212.666666667 223.666666667 219.166666667 244 225.5 268 c 128
 231.833333333 292 235 311 235 325 c 0
 235 352.333333333 228.333333333 375.333333333 215 394 c 0
 199 416 176.333333333 427 147 427 c 0
 129.666666667 427 113 422.166666667 97 412.5 c 128
 81 402.833333333 73 391.333333333 73 378 c 0
 73 372 76 365.333333333 82 358 c 0
 96 340.666666667 103 327.333333333 103 318 c 0
 103 309.333333333 100.666666667 301.833333333 96 295.5 c 128
 91.3333333333 289.166666667 83.3333333333 286 72 286 c 0
 58 286 47.8333333333 290.666666667 41.5 300 c 128
 35.1666666667 309.333333333 32 321.333333333 32 336 c 0
 32 372.666666667 47 402 77 424 c 0
 101.666666667 442 130.333333333 451 163 451 c 0
 185.666666667 451 208 446.5 230 437.5 c 128
 252 428.5 268.5 417.333333333 279.5 404 c 128
 290.5 390.666666667 298 378.166666667 302 366.5 c 128
 306 354.833333333 308 338.666666667 308 318 c 0
 308 299.333333333 301 277 287 251 c 0
 276.333333333 230.333333333 263.333333333 211 248 193 c 0
 224.666666667 166.333333333 208.333333333 143.666666667 199 125 c 0
 187.666666667 102.333333333 179 74.6666666667 173 42 c 1
168 -95 m 0
 156.666666667 -95 147.333333333 -92.3333333333 140 -87 c 0
 130 -79.6666666667 125 -68.6666666667 125 -54 c 0
 125 -42 129.166666667 -31.8333333333 137.5 -23.5 c 128
 145.833333333 -15.1666666667 156 -11 168 -11 c 0
 179.333333333 -11 189.333333333 -15.3333333333 198 -24 c 128
 206.666666667 -32.6666666667 211 -42.6666666667 211 -54 c 0
 211 -67.3333333333 206.5 -77.5 197.5 -84.5 c 128
 188.5 -91.5 178.666666667 -95 168 -95 c 0
EndSplineSet
EndChar

StartChar: u0952
Encoding: 38 2386 38
Width: 10
Flags: HW
LayerCount: 2
Fore
SplineSet
-100 -359 m 1
 -552 -359 l 1
 -588 -302 l 1
 -136 -302 l 1
 -100 -359 l 1
2 0 m 1
 0 2 l 1
 2 0 l 1
2 0 m 1
 0 2 l 1
 2 0 l 1
EndSplineSet
EndChar

StartChar: u0B82
Encoding: 39 2946 39
Width: 680
Flags: HW
LayerCount: 2
Fore
SplineSet
355 582 m 256
 355 597.333007812 349.333007812 610.666992188 338 622 c 128
 326.666992188 633.333007812 313.333007812 639 298 639 c 256
 282.666992188 639 269.333007812 633.333007812 258 622 c 128
 246.666992188 610.666992188 241 597.333007812 241 582 c 256
 241 566.666992188 246.666992188 553.333007812 258 542 c 128
 269.333007812 530.666992188 282.666992188 525 298 525 c 256
 313.333007812 525 326.666992188 530.666992188 338 542 c 128
 349.333007812 553.333007812 355 566.666992188 355 582 c 256
298 676 m 256
 324 676 346.166992188 666.833007812 364.5 648.5 c 128
 382.833007812 630.166992188 392 608 392 582 c 256
 392 556 382.833007812 533.833007812 364.5 515.5 c 128
 346.166992188 497.166992188 324 488 298 488 c 256
 272 488 249.833007812 497.166992188 231.5 515.5 c 128
 213.166992188 533.833007812 204 556 204 582 c 256
 204 608 213.166992188 630.166992188 231.5 648.5 c 128
 249.833007812 666.833007812 272 676 298 676 c 256
EndSplineSet
EndChar

StartChar: u0B83
Encoding: 40 2947 40
Width: 611
Flags: HW
LayerCount: 2
Fore
SplineSet
365 370 m 256
 365 348 357.333333333 329.333333333 342 314 c 128
 326.666666667 298.666666667 307.666666667 291 285 291 c 0
 263.666666667 291 245 298.666666667 229 314 c 128
 213 329.333333333 205 348 205 370 c 256
 205 392 212.833333333 410.833333333 228.5 426.5 c 128
 244.166666667 442.166666667 263 450 285 450 c 256
 307 450 325.833333333 442.166666667 341.5 426.5 c 128
 357.166666667 410.833333333 365 392 365 370 c 256
491 79 m 256
 491 57 483.333333333 38.3333333333 468 23 c 128
 452.666666667 7.66666666667 433.666666667 0 411 0 c 0
 389.666666667 0 371 7.66666666667 355 23 c 128
 339 38.3333333333 331 57 331 79 c 256
 331 101 338.833333333 119.833333333 354.5 135.5 c 128
 370.166666667 151.166666667 389 159 411 159 c 256
 433 159 451.833333333 151.166666667 467.5 135.5 c 128
 483.166666667 119.833333333 491 101 491 79 c 256
221 79 m 256
 221 57 213.333333333 38.3333333333 198 23 c 128
 182.666666667 7.66666666667 163.666666667 0 141 0 c 0
 119.666666667 0 101 7.66666666667 85 23 c 128
 69 38.3333333333 61 57 61 79 c 256
 61 101 68.8333333333 119.833333333 84.5 135.5 c 128
 100.166666667 151.166666667 119 159 141 159 c 256
 163 159 181.833333333 151.166666667 197.5 135.5 c 128
 213.166666667 119.833333333 221 101 221 79 c 256
EndSplineSet
EndChar

StartChar: u0B85
Encoding: 41 2949 41
Width: 908
Flags: HW
AnchorPoint: "V" 396.5 455 basechar 0
AnchorPoint: "N" 396.5 -45.3263 basechar 0
LayerCount: 2
Fore
SplineSet
788 439 m 0
 780 424.333333333 773.5 406.833333333 768.5 386.5 c 128
 763.5 366.166666667 761 345.333333333 761 324 c 2
 761 43 l 2
 761 -2.33333333333 748.333333333 -37 723 -61 c 0
 701 -82.3333333333 673.666666667 -93 641 -93 c 0
 627 -93 620 -88.6666666667 620 -80 c 0
 620 -76.6666666667 621.666666667 -72.3333333333 625 -67 c 0
 632.333333333 -53 638.666666667 -35.8333333333 644 -15.5 c 128
 649.333333333 4.83333333333 652 25.3333333333 652 46 c 2
 652 142 l 1
 632 122 597.666666667 112 549 112 c 1
 528.333333333 65.3333333333 491.333333333 26.6666666667 438 -4 c 0
 380 -37.3333333333 314 -54 240 -54 c 0
 174 -54 120 -40 78 -12 c 0
 26 22.6666666667 0 61 0 103 c 0
 0 119 5.5 131.166666667 16.5 139.5 c 128
 27.5 147.833333333 41.3333333333 152 58 152 c 2
 445 152 l 1
 449.666666667 164 453.333333333 182.666666667 456 208 c 128
 458.666666667 233.333333333 460 251.666666667 460 263 c 0
 460 313 449.666666667 351 429 377 c 0
 411.666666667 399 388.333333333 410 359 410 c 0
 341 410 325.666666667 406.333333333 313 399 c 1
 333 395 349 387 361 375 c 0
 377.666666667 358.333333333 386 335 386 305 c 0
 386 290.333333333 383 275.5 377 260.5 c 128
 371 245.5 361.333333333 233.333333333 348 224 c 0
 332 212 308.666666667 206 278 206 c 0
 253.333333333 206 233.833333333 214.666666667 219.5 232 c 128
 205.166666667 249.333333333 198 270.333333333 198 295 c 0
 198 346.333333333 215.333333333 385.666666667 250 413 c 0
 281.333333333 437.666666667 323.666666667 450 377 450 c 0
 439.666666667 450 487.5 431.5 520.5 394.5 c 128
 553.5 357.5 570 305.333333333 570 238 c 0
 570 226 569.333333333 210.833333333 568 192.5 c 128
 566.666666667 174.166666667 564.666666667 160.666666667 562 152 c 1
 580.666666667 152 598.166666667 154.666666667 614.5 160 c 128
 630.833333333 165.333333333 643.333333333 172.666666667 652 182 c 1
 652 327 l 2
 652 372.333333333 664.666666667 407.333333333 690 432 c 0
 712.666666667 454 740 465 772 465 c 0
 786 465 793 460.666666667 793 452 c 0
 793 448.666666667 791.333333333 444.333333333 788 439 c 0
314 306 m 0
 314 321.333333333 310.666666667 335.833333333 304 349.5 c 128
 297.333333333 363.166666667 287.666666667 370 275 370 c 1
 264.333333333 367.333333333 255.166666667 358.166666667 247.5 342.5 c 128
 239.833333333 326.833333333 236 311.666666667 236 297 c 0
 236 283.666666667 239.5 271.833333333 246.5 261.5 c 128
 253.5 251.166666667 263 246 275 246 c 256
 287 246 296.5 251.5 303.5 262.5 c 128
 310.5 273.5 314 288 314 306 c 0
432 112 m 1
 99 112 l 2
 91 112 84.1666666667 108.833333333 78.5 102.5 c 128
 72.8333333333 96.1666666667 70 88.6666666667 70 80 c 0
 70 57.3333333333 82 37 106 19 c 0
 136 -3 178.333333333 -14 233 -14 c 0
 279.666666667 -14 321.666666667 0 359 28 c 0
 388.333333333 50 412.666666667 78 432 112 c 1
EndSplineSet
EndChar

StartChar: u0B86
Encoding: 42 2950 42
Width: 1051
Flags: HW
AnchorPoint: "V" 465.5 455 basechar 0
AnchorPoint: "N" 465.5 -183.587 basechar 0
LayerCount: 2
Fore
SplineSet
931 63 m 0
 931 -18.3333333333 900.333333333 -82 839 -128 c 0
 783.666666667 -169.333333333 715.333333333 -190 634 -190 c 0
 566.666666667 -190 512 -183 470 -169 c 0
 420 -152.333333333 395 -127.333333333 395 -94 c 0
 395 -76 402.666666667 -62.1666666667 418 -52.5 c 128
 433.333333333 -42.8333333333 452.333333333 -38 475 -38 c 0
 489 -38 502.833333333 -39 516.5 -41 c 128
 530.166666667 -43 543 -46.6666666667 555 -52 c 0
 558.333333333 -54 560 -56.6666666667 560 -60 c 0
 560 -65.3333333333 557.166666667 -68.8333333333 551.5 -70.5 c 128
 545.833333333 -72.1666666667 541 -72.3333333333 537 -71 c 256
 533 -69.6666666667 527.333333333 -68.3333333333 520 -67 c 0
 503.333333333 -63.6666666667 488 -62 474 -62 c 0
 459.333333333 -62 446.5 -64.5 435.5 -69.5 c 128
 424.5 -74.5 419 -81.3333333333 419 -90 c 0
 419 -111.333333333 437.333333333 -127.333333333 474 -138 c 0
 503.333333333 -146.666666667 538.666666667 -151 580 -151 c 0
 668 -151 735.666666667 -130.666666667 783 -90 c 0
 825 -54 846 -7.66666666667 846 49 c 0
 846 69.6666666667 840.666666667 87.5 830 102.5 c 128
 819.333333333 117.5 807 125 793 125 c 0
 783 125 772.333333333 120 761 110 c 1
 761 43 l 2
 761 -2.33333333333 748.333333333 -37 723 -61 c 0
 701 -82.3333333333 673.666666667 -93 641 -93 c 0
 627 -93 620 -88.6666666667 620 -80 c 0
 620 -76.6666666667 621.666666667 -72.3333333333 625 -67 c 0
 632.333333333 -53 638.666666667 -35.8333333333 644 -15.5 c 128
 649.333333333 4.83333333333 652 25.3333333333 652 46 c 2
 652 142 l 1
 632 122 597.666666667 112 549 112 c 1
 528.333333333 65.3333333333 491.333333333 26.6666666667 438 -4 c 0
 380 -37.3333333333 314 -54 240 -54 c 0
 174 -54 120 -40 78 -12 c 0
 26 22.6666666667 0 61 0 103 c 0
 0 119 5.5 131.166666667 16.5 139.5 c 128
 27.5 147.833333333 41.3333333333 152 58 152 c 2
 445 152 l 1
 449.666666667 164 453.333333333 182.666666667 456 208 c 128
 458.666666667 233.333333333 460 251.666666667 460 263 c 0
 460 313 449.666666667 351 429 377 c 0
 411.666666667 399 388.333333333 410 359 410 c 0
 341 410 325.666666667 406.333333333 313 399 c 1
 333 395 349 387 361 375 c 0
 377.666666667 358.333333333 386 335 386 305 c 0
 386 290.333333333 383 275.5 377 260.5 c 128
 371 245.5 361.333333333 233.333333333 348 224 c 0
 332 212 308.666666667 206 278 206 c 0
 253.333333333 206 233.833333333 214.666666667 219.5 232 c 128
 205.166666667 249.333333333 198 270.333333333 198 295 c 0
 198 346.333333333 215.333333333 385.666666667 250 413 c 0
 281.333333333 437.666666667 323.666666667 450 377 450 c 0
 439.666666667 450 487.5 431.5 520.5 394.5 c 128
 553.5 357.5 570 305.333333333 570 238 c 0
 570 226 569.333333333 210.833333333 568 192.5 c 128
 566.666666667 174.166666667 564.666666667 160.666666667 562 152 c 1
 580.666666667 152 598.166666667 154.666666667 614.5 160 c 128
 630.833333333 165.333333333 643.333333333 172.666666667 652 182 c 1
 652 327 l 2
 652 372.333333333 664.666666667 407.333333333 690 432 c 0
 712.666666667 454 740 465 772 465 c 0
 786 465 793 460.666666667 793 452 c 0
 793 448.666666667 791.333333333 444.333333333 788 439 c 0
 780 424.333333333 773.5 406.833333333 768.5 386.5 c 128
 763.5 366.166666667 761 345.333333333 761 324 c 2
 761 150 l 1
 779 168 802 177 830 177 c 0
 857.333333333 177 880.333333333 168 899 150 c 0
 920.333333333 129.333333333 931 100.333333333 931 63 c 0
314 306 m 0
 314 321.333333333 310.666666667 335.833333333 304 349.5 c 128
 297.333333333 363.166666667 287.666666667 370 275 370 c 1
 264.333333333 367.333333333 255.166666667 358.166666667 247.5 342.5 c 128
 239.833333333 326.833333333 236 311.666666667 236 297 c 0
 236 283.666666667 239.5 271.833333333 246.5 261.5 c 128
 253.5 251.166666667 263 246 275 246 c 256
 287 246 296.5 251.5 303.5 262.5 c 128
 310.5 273.5 314 288 314 306 c 0
432 112 m 1
 99 112 l 2
 91 112 84.1666666667 108.833333333 78.5 102.5 c 128
 72.8333333333 96.1666666667 70 88.6666666667 70 80 c 0
 70 57.3333333333 82 37 106 19 c 0
 136 -3 178.333333333 -14 233 -14 c 0
 279.666666667 -14 321.666666667 0 359 28 c 0
 388.333333333 50 412.666666667 78 432 112 c 1
EndSplineSet
EndChar

StartChar: u0B87
Encoding: 43 2951 43
Width: 756
Flags: HW
AnchorPoint: "V" 320.5 633.364 basechar 0
AnchorPoint: "N" 320.5 -160 basechar 0
LayerCount: 2
Fore
SplineSet
641 376 m 0
 641 355.333333333 639.333333333 332 636 306 c 128
 632.666666667 280 627.666666667 255.333333333 621 232 c 1
 621 222 623.5 212.333333333 628.5 203 c 128
 633.5 193.666666667 636 185.666666667 636 179 c 256
 636 172.333333333 633.5 166.5 628.5 161.5 c 128
 623.5 156.5 617.666666667 154 611 154 c 0
 601.666666667 154 594.5 158.833333333 589.5 168.5 c 128
 584.5 178.166666667 582.666666667 188 584 198 c 0
 589.333333333 224.666666667 592 250.333333333 592 275 c 0
 592 345 571 403.333333333 529 450 c 0
 483.666666667 500 424 525 350 525 c 0
 258.666666667 525 187 494 135 432 c 0
 88.3333333333 376 65 307 65 225 c 0
 65 198.333333333 67.8333333333 173.666666667 73.5 151 c 128
 79.1666666667 128.333333333 88 105.666666667 100 83 c 1
 134 101 174.333333333 113.833333333 221 121.5 c 128
 267.666666667 129.166666667 319.333333333 133 376 133 c 1
 386.666666667 173 392 212.333333333 392 251 c 256
 392 289.666666667 384.666666667 321.666666667 370 347 c 0
 353.333333333 375.666666667 330 390 300 390 c 0
 282 390 266.666666667 386.333333333 254 379 c 1
 273.333333333 375 288.666666667 367 300 355 c 0
 315.333333333 338.333333333 323 315 323 285 c 0
 323 270.333333333 319.666666667 255.666666667 313 241 c 128
 306.333333333 226.333333333 295.5 213.5 280.5 202.5 c 128
 265.5 191.5 242.666666667 186 212 186 c 0
 187.333333333 186 168.333333333 194.5 155 211.5 c 128
 141.666666667 228.5 135 249.666666667 135 275 c 0
 135 324.333333333 151.333333333 363.333333333 184 392 c 0
 214 418 252.333333333 431 299 431 c 0
 363.666666667 431 412.333333333 416.666666667 445 388 c 0
 482.333333333 355.333333333 501 303 501 231 c 0
 501 191.666666667 493.666666667 151 479 109 c 1
 509 96.3333333333 532.166666667 79.5 548.5 58.5 c 128
 564.833333333 37.5 573 11.6666666667 573 -19 c 0
 573 -61.6666666667 557 -95.8333333333 525 -121.5 c 128
 493 -147.166666667 444.666666667 -160 380 -160 c 0
 360.666666667 -160 340.5 -157.333333333 319.5 -152 c 128
 298.5 -146.666666667 278.333333333 -139.333333333 259 -130 c 1
 213 -150 165 -160 115 -160 c 0
 77.6666666667 -160 49.1666666667 -151.166666667 29.5 -133.5 c 128
 9.83333333333 -115.833333333 0 -91.6666666667 0 -61 c 0
 0 -13.6666666667 21.3333333333 26.6666666667 64 60 c 1
 48 92 35.8333333333 126.666666667 27.5 164 c 128
 19.1666666667 201.333333333 15 232 15 256 c 0
 15 307.333333333 21.3333333333 354.666666667 34 398 c 0
 53.3333333333 464.666666667 85.6666666667 518 131 558 c 0
 189 609.333333333 265.666666667 635 361 635 c 0
 438.333333333 635 503.333333333 612.333333333 556 567 c 0
 612.666666667 518.333333333 641 454.666666667 641 376 c 0
251 286 m 0
 251 302 248.666666667 315.666666667 244 327 c 0
 237.333333333 342.333333333 228 350 216 350 c 1
 204.666666667 347.333333333 194.666666667 338.166666667 186 322.5 c 128
 177.333333333 306.833333333 173 291.666666667 173 277 c 256
 173 262.333333333 176 250.166666667 182 240.5 c 128
 188 230.833333333 197 226 209 226 c 256
 221 226 231 231.666666667 239 243 c 128
 247 254.333333333 251 268.666666667 251 286 c 0
503 -33 m 0
 503 -1 487 28 455 54 c 1
 437 20.6666666667 415.333333333 -9.66666666667 390 -37 c 128
 364.666666667 -64.3333333333 336.333333333 -87.3333333333 305 -106 c 1
 330.333333333 -113.333333333 356.666666667 -117 384 -117 c 0
 423.333333333 -117 453 -109 473 -93 c 128
 493 -77 503 -57 503 -33 c 0
364 93 m 1
 357.333333333 95 348 96.3333333333 336 97 c 128
 324 97.6666666667 317 98 315 98 c 0
 283.666666667 98 251 93.1666666667 217 83.5 c 128
 183 73.8333333333 152.666666667 59.3333333333 126 40 c 1
 141.333333333 16 161.666666667 -7.33333333333 187 -30 c 0
 207 -48 228.666666667 -64.3333333333 252 -79 c 1
 277.333333333 -59 299.666666667 -33.6666666667 319 -3 c 0
 336.333333333 25 351.333333333 57 364 93 c 1
213 -105 m 1
 188.333333333 -89 165.333333333 -70.5 144 -49.5 c 128
 122.666666667 -28.5 106 -8 94 12 c 1
 84.6666666667 1.33333333333 77.5 -10 72.5 -22 c 128
 67.5 -34 65 -47 65 -61 c 0
 65 -79 70.1666666667 -94.3333333333 80.5 -107 c 128
 90.8333333333 -119.666666667 105.333333333 -126 124 -126 c 0
 155.333333333 -126 185 -119 213 -105 c 1
EndSplineSet
EndChar

StartChar: u0B88
Encoding: 44 2952 44
Width: 627
Flags: HW
AnchorPoint: "V" 253.5 455 basechar 0
AnchorPoint: "N" 253.5 -4 basechar 0
LayerCount: 2
Fore
SplineSet
507 216 m 256
 507 202.666666667 502.166666667 191.166666667 492.5 181.5 c 128
 482.833333333 171.833333333 471.333333333 167 458 167 c 256
 444.666666667 167 433.166666667 171.833333333 423.5 181.5 c 128
 413.833333333 191.166666667 409 202.666666667 409 216 c 256
 409 229.333333333 413.833333333 240.833333333 423.5 250.5 c 128
 433.166666667 260.166666667 444.666666667 265 458 265 c 256
 471.333333333 265 482.833333333 260.166666667 492.5 250.5 c 128
 502.166666667 240.833333333 507 229.333333333 507 216 c 256
411 410 m 0
 391 401.333333333 376.5 386.333333333 367.5 365 c 128
 358.5 343.666666667 352.666666667 315.666666667 350 281 c 0
 350 271 349.166666667 246.5 347.5 207.5 c 128
 345.833333333 168.5 345 143.333333333 345 132 c 0
 345 86 332.333333333 51 307 27 c 0
 285.666666667 6.33333333333 258.333333333 -4 225 -4 c 0
 211 -4 204 0.333333333333 204 9 c 0
 204 12.3333333333 205.666666667 16.6666666667 209 22 c 0
 217 36.6666666667 223.5 53.8333333333 228.5 73.5 c 128
 233.5 93.1666666667 236 113.666666667 236 135 c 0
 236 154.333333333 236.833333333 183.166666667 238.5 221.5 c 128
 240.166666667 259.833333333 241 280.333333333 241 283 c 0
 241 323.666666667 252.333333333 362.666666667 275 400 c 1
 263.666666667 402.666666667 250.5 405 235.5 407 c 128
 220.5 409 204 410 186 410 c 0
 148.666666667 410 121 400.333333333 103 381 c 128
 85 361.666666667 76 329.666666667 76 285 c 0
 76 214.333333333 73.6666666667 159.166666667 69 119.5 c 128
 64.3333333333 79.8333333333 53.6666666667 44.6666666667 37 14 c 0
 31 3.33333333333 23.3333333333 -2 14 -2 c 256
 4.66666666667 -2 0 3 0 13 c 0
 0 18.3333333333 1.66666666667 23.6666666667 5 29 c 0
 17.6666666667 53 26 82.1666666667 30 116.5 c 128
 34 150.833333333 36 194.666666667 36 248 c 2
 36 305 l 2
 36 345.666666667 44.6666666667 377.333333333 62 400 c 0
 87.3333333333 433.333333333 129.333333333 450 188 450 c 0
 214.666666667 450 240.833333333 447.666666667 266.5 443 c 128
 292.166666667 438.333333333 319.333333333 433.666666667 348 429 c 0
 358.666666667 429 368 430.166666667 376 432.5 c 128
 384 434.833333333 393.333333333 439.333333333 404 446 c 0
 409.333333333 449.333333333 414.666666667 451 420 451 c 0
 429.333333333 451 434 446.333333333 434 437 c 0
 434 431.666666667 432.166666667 426.666666667 428.5 422 c 128
 424.833333333 417.333333333 419 413.333333333 411 410 c 0
207 216 m 256
 207 202.666666667 202.166666667 191.166666667 192.5 181.5 c 128
 182.833333333 171.833333333 171.333333333 167 158 167 c 256
 144.666666667 167 133.166666667 171.833333333 123.5 181.5 c 128
 113.833333333 191.166666667 109 202.666666667 109 216 c 256
 109 229.333333333 113.833333333 240.833333333 123.5 250.5 c 128
 133.166666667 260.166666667 144.666666667 265 158 265 c 256
 171.333333333 265 182.833333333 260.166666667 192.5 250.5 c 128
 202.166666667 240.833333333 207 229.333333333 207 216 c 256
EndSplineSet
EndChar

StartChar: u0B89
Encoding: 45 2953 45
Width: 965
Flags: HW
AnchorPoint: "V" 432.5 455 basechar 0
AnchorPoint: "N" 432.5 7.96906 basechar 0
LayerCount: 2
Fore
SplineSet
845 24 m 0
 829 16.6666666667 810.666666667 10.8333333333 790 6.5 c 128
 769.333333333 2.16666666667 746 0 720 0 c 0
 702.666666667 0 655.333333333 1.66666666667 578 5 c 128
 500.666666667 8.33333333333 440.666666667 10 398 10 c 0
 359.333333333 10 309 8.5 247 5.5 c 128
 185 2.5 121.666666667 -0.333333333333 57 -3 c 0
 41.6666666667 -3 29.3333333333 0.333333333333 20 7 c 0
 6.66666666667 16.3333333333 0 32.3333333333 0 55 c 0
 0 83.6666666667 29.6666666667 101.333333333 89 108 c 1
 131 110 173.333333333 112 216 114 c 1
 264 121.333333333 298.333333333 142 319 176 c 0
 335 202 343 236.333333333 343 279 c 0
 343 320.333333333 332.833333333 352.5 312.5 375.5 c 128
 292.166666667 398.5 264.666666667 410 230 410 c 0
 200 410 171.666666667 405 145 395 c 128
 118.333333333 385 99.6666666667 370 89 350 c 1
 102.333333333 361.333333333 119.666666667 367 141 367 c 256
 162.333333333 367 181 359.333333333 197 344 c 128
 213 328.666666667 221 307.666666667 221 281 c 0
 221 240.333333333 214.333333333 210 201 190 c 0
 185 166 157.333333333 154 118 154 c 0
 89.3333333333 154 67.3333333333 165.333333333 52 188 c 128
 36.6666666667 210.666666667 29 242.666666667 29 284 c 0
 29 328.666666667 45.3333333333 366.666666667 78 398 c 0
 114.666666667 432.666666667 164.333333333 450 227 450 c 0
 306.333333333 450 365.666666667 431 405 393 c 0
 437 362.333333333 453 322.333333333 453 273 c 0
 453 234.333333333 447.666666667 202.5 437 177.5 c 128
 426.333333333 152.5 407 131.333333333 379 114 c 0
 333.666666667 85.3333333333 259.666666667 71 157 71 c 0
 123 71 106 64.6666666667 106 52 c 0
 106 46.6666666667 108.666666667 42.6666666667 114 40 c 1
 126.666666667 40 168 41.6666666667 238 45 c 128
 308 48.3333333333 360.666666667 50 396 50 c 256
 431.333333333 50 477.166666667 48.8333333333 533.5 46.5 c 128
 589.833333333 44.1666666667 648.333333333 42 709 40 c 0
 731.666666667 40 751.333333333 41.8333333333 768 45.5 c 128
 784.666666667 49.1666666667 800 54.6666666667 814 62 c 0
 823.333333333 66.6666666667 832 69 840 69 c 0
 856.666666667 69 865 62.3333333333 865 49 c 0
 865 39 858.333333333 30.6666666667 845 24 c 0
137 266 m 0
 137 296 125.333333333 311 102 311 c 0
 92.6666666667 311 85.5 307 80.5 299 c 128
 75.5 291 73 278.666666667 73 262 c 0
 73 219.333333333 83.3333333333 198 104 198 c 0
 116.666666667 198 125.333333333 204 130 216 c 128
 134.666666667 228 137 244.666666667 137 266 c 0
EndSplineSet
EndChar

StartChar: u0B8A
Encoding: 46 2954 46
Width: 1270
Flags: HW
AnchorPoint: "V" 579.5 455 basechar 0
AnchorPoint: "N" 579.5 7.65893 basechar 0
LayerCount: 2
Fore
SplineSet
1150 418 m 0
 1134 411.333333333 1122.33333333 399.333333333 1115 382 c 128
 1107.66666667 364.666666667 1102.83333333 342.833333333 1100.5 316.5 c 128
 1098.16666667 290.166666667 1097 250 1097 196 c 0
 1097 160 1085.33333333 132 1062 112 c 0
 1042 95.3333333333 1018.33333333 87 991 87 c 0
 982.333333333 87 975.333333333 88.8333333333 970 92.5 c 128
 964.666666667 96.1666666667 964 101.333333333 968 108 c 0
 975.333333333 120.666666667 980.833333333 134.333333333 984.5 149 c 128
 988.166666667 163.666666667 990 180 990 198 c 2
 994 317 l 2
 994 349 1001.66666667 377.333333333 1017 402 c 1
 995.666666667 407.333333333 969.666666667 410 939 410 c 1
 923.666666667 403.333333333 913 392.666666667 907 378 c 128
 901 363.333333333 896.833333333 342.833333333 894.5 316.5 c 128
 892.166666667 290.166666667 891 250 891 196 c 0
 891 160 879 132 855 112 c 0
 835 95.3333333333 811.666666667 87 785 87 c 0
 768.333333333 87 760 91.6666666667 760 101 c 0
 760 103 760.666666667 105.333333333 762 108 c 0
 776 134 783 164 783 198 c 2
 787 317 l 2
 787 327 787.666666667 335 789 341 c 128
 790.333333333 347 792.666666667 355.333333333 796 366 c 1
 788 377.333333333 775.333333333 387 758 395 c 0
 737.333333333 405 716.666666667 410 696 410 c 0
 663.333333333 410 634.666666667 400.166666667 610 380.5 c 128
 585.333333333 360.833333333 567.666666667 334.666666667 557 302 c 1
 573 314 593 320 617 320 c 0
 640.333333333 320 659 313 673 299 c 0
 690.333333333 282.333333333 699 257.333333333 699 224 c 0
 699 182.666666667 692.333333333 151.333333333 679 130 c 0
 662.333333333 103.333333333 634.333333333 90 595 90 c 0
 564.333333333 90 542 101.5 528 124.5 c 128
 514 147.5 507 181.333333333 507 226 c 0
 507 293.333333333 524.333333333 347.5 559 388.5 c 128
 593.666666667 429.5 641 450 701 450 c 0
 726.333333333 450 750 445.333333333 772 436 c 0
 789.333333333 428.666666667 804 418.666666667 816 406 c 1
 827.333333333 420 843 430.833333333 863 438.5 c 128
 883 446.166666667 908 450 938 450 c 0
 958 450 984.666666667 447.333333333 1018 442 c 128
 1051.33333333 436.666666667 1071.66666667 434 1079 434 c 0
 1089 434 1096.83333333 434.833333333 1102.5 436.5 c 128
 1108.16666667 438.166666667 1115.33333333 441.666666667 1124 447 c 0
 1128.66666667 449.666666667 1133.66666667 451 1139 451 c 0
 1145.66666667 451 1151.16666667 449.166666667 1155.5 445.5 c 128
 1159.83333333 441.833333333 1162 437.333333333 1162 432 c 256
 1162 426.666666667 1158 422 1150 418 c 0
1112 24 m 0
 1096 16.6666666667 1077.66666667 10.8333333333 1057 6.5 c 128
 1036.33333333 2.16666666667 1013 0 987 0 c 0
 957 0 914.666666667 0.666666666667 860 2 c 128
 805.333333333 3.33333333333 742.5 5 671.5 7 c 128
 600.5 9 555 10 535 10 c 0
 496.333333333 10 430.666666667 8.5 338 5.5 c 128
 245.333333333 2.5 150.666666667 -0.333333333333 54 -3 c 0
 38.6666666667 -3 26.3333333333 0.333333333333 17 7 c 0
 3.66666666667 16.3333333333 -3 32.3333333333 -3 55 c 0
 -3 83.6666666667 26.6666666667 101.333333333 86 108 c 1
 128 110 170.333333333 112 213 114 c 1
 261 121.333333333 295.333333333 142 316 176 c 0
 332 202 340 236.333333333 340 279 c 0
 340 320.333333333 329.833333333 352.5 309.5 375.5 c 128
 289.166666667 398.5 261.666666667 410 227 410 c 0
 197 410 168.666666667 405 142 395 c 128
 115.333333333 385 96.6666666667 370 86 350 c 1
 99.3333333333 361.333333333 116.666666667 367 138 367 c 256
 159.333333333 367 178 359.333333333 194 344 c 128
 210 328.666666667 218 307.666666667 218 281 c 0
 218 240.333333333 211.333333333 210 198 190 c 0
 182 166 154.333333333 154 115 154 c 0
 86.3333333333 154 64.3333333333 165.333333333 49 188 c 128
 33.6666666667 210.666666667 26 242.666666667 26 284 c 0
 26 328.666666667 42.3333333333 366.666666667 75 398 c 0
 111.666666667 432.666666667 161.333333333 450 224 450 c 0
 303.333333333 450 362.666666667 431 402 393 c 0
 434 362.333333333 450 322.333333333 450 273 c 0
 450 234.333333333 444.666666667 202.5 434 177.5 c 128
 423.333333333 152.5 404 131.333333333 376 114 c 0
 330.666666667 85.3333333333 256.666666667 71 154 71 c 0
 120 71 103 64.6666666667 103 52 c 0
 103 46.6666666667 105.666666667 42.6666666667 111 40 c 1
 135 40 209.166666667 41.6666666667 333.5 45 c 128
 457.833333333 48.3333333333 524.333333333 50 533 50 c 0
 569.666666667 50 630.166666667 48.8333333333 714.5 46.5 c 128
 798.833333333 44.1666666667 886 42 976 40 c 0
 998.666666667 40 1018.33333333 41.8333333333 1035 45.5 c 128
 1051.66666667 49.1666666667 1067 54.6666666667 1081 62 c 0
 1090.33333333 66.6666666667 1099 69 1107 69 c 0
 1123.66666667 69 1132 62.3333333333 1132 49 c 0
 1132 39 1125.33333333 30.6666666667 1112 24 c 0
611 205 m 0
 611 221 608.833333333 233 604.5 241 c 128
 600.166666667 249 591.666666667 253 579 253 c 0
 565 253 556.166666667 247.833333333 552.5 237.5 c 128
 548.833333333 227.166666667 547 215.666666667 547 203 c 0
 547 159 557 137 577 137 c 0
 590.333333333 137 599.333333333 143 604 155 c 128
 608.666666667 167 611 183.666666667 611 205 c 0
134 266 m 0
 134 296 122.333333333 311 99 311 c 0
 89.6666666667 311 82.5 307 77.5 299 c 128
 72.5 291 70 278.666666667 70 262 c 0
 70 219.333333333 80.3333333333 198 101 198 c 0
 113.666666667 198 122.333333333 204 127 216 c 128
 131.666666667 228 134 244.666666667 134 266 c 0
EndSplineSet
EndChar

StartChar: u0B8E
Encoding: 47 2958 47
Width: 631
Flags: HW
AnchorPoint: "V" 267 455 basechar 0
AnchorPoint: "N" 267 -4 basechar 0
LayerCount: 2
Fore
SplineSet
511 410 m 0
 491 401.333333333 476.5 386.333333333 467.5 365 c 128
 458.5 343.666666667 452.666666667 315.666666667 450 281 c 0
 450 271 449.166666667 246.5 447.5 207.5 c 128
 445.833333333 168.5 445 143.333333333 445 132 c 0
 445 86 432.333333333 51 407 27 c 0
 385.666666667 6.33333333333 358.333333333 -4 325 -4 c 0
 311 -4 304 0.333333333333 304 9 c 0
 304 12.3333333333 305.666666667 16.6666666667 309 22 c 0
 317 36.6666666667 323.5 53.8333333333 328.5 73.5 c 128
 333.5 93.1666666667 336 113.666666667 336 135 c 0
 336 154.333333333 336.833333333 183.166666667 338.5 221.5 c 128
 340.166666667 259.833333333 341 280.333333333 341 283 c 0
 341 323.666666667 352.333333333 362.666666667 375 400 c 1
 363 402.666666667 349 405 333 407 c 128
 317 409 297.333333333 410 274 410 c 0
 218.666666667 410 171.166666667 396.333333333 131.5 369 c 128
 91.8333333333 341.666666667 65.6666666667 306.333333333 53 263 c 1
 75 279.666666667 98 288 122 288 c 0
 156.666666667 288 184 279 204 261 c 0
 228 239.666666667 240 208.333333333 240 167 c 0
 240 115 231.666666667 75.6666666667 215 49 c 0
 194.333333333 16.3333333333 159.666666667 0 111 0 c 0
 72.3333333333 0 44.1666666667 14.3333333333 26.5 43 c 128
 8.83333333333 71.6666666667 0 114 0 170 c 0
 0 254.666666667 23 321.666666667 69 371 c 0
 118.333333333 423.666666667 187.333333333 450 276 450 c 0
 311.333333333 450 342 447.666666667 368 443 c 128
 394 438.333333333 420.666666667 433.666666667 448 429 c 0
 458.666666667 429 468 430.166666667 476 432.5 c 128
 484 434.833333333 493.333333333 439.333333333 504 446 c 0
 509.333333333 449.333333333 514.666666667 451 520 451 c 0
 529.333333333 451 534 446.333333333 534 437 c 0
 534 431.666666667 532.166666667 426.666666667 528.5 422 c 128
 524.833333333 417.333333333 519 413.333333333 511 410 c 0
140 146 m 0
 140 170.666666667 137 188.333333333 131 199 c 0
 123 213 109.666666667 220 91 220 c 0
 69.6666666667 220 55 209.666666667 47 189 c 0
 42.3333333333 177 40 161 40 141 c 0
 40 73.6666666667 56 40 88 40 c 0
 108 40 121.666666667 49.6666666667 129 69 c 128
 136.333333333 88.3333333333 140 114 140 146 c 0
EndSplineSet
EndChar

StartChar: u0B8F
Encoding: 48 2959 48
Width: 631
Flags: HW
AnchorPoint: "V" 267 455 basechar 0
AnchorPoint: "N" 267 -109.175 basechar 0
LayerCount: 2
Fore
SplineSet
511 410 m 0
 491 401.333333333 476.5 386.333333333 467.5 365 c 128
 458.5 343.666666667 452.666666667 315.666666667 450 281 c 0
 450 271 449.166666667 246.5 447.5 207.5 c 128
 445.833333333 168.5 445 143.333333333 445 132 c 0
 445 94 436 63.3333333333 418 40 c 0
 410 28.6666666667 391.666666667 16.6666666667 363 4 c 0
 340.333333333 -6 324.666666667 -13.3333333333 316 -18 c 0
 301.333333333 -25.3333333333 285.833333333 -34.6666666667 269.5 -46 c 128
 253.166666667 -57.3333333333 236 -69.6666666667 218 -83 c 1
 210.666666667 -94.3333333333 205 -102.333333333 201 -107 c 0
 193.666666667 -115 184.333333333 -117.666666667 173 -115 c 0
 163 -110.333333333 158 -103.666666667 158 -95 c 0
 158 -89 160.333333333 -83.6666666667 165 -79 c 0
 182.333333333 -68.3333333333 200 -56 218 -42 c 0
 230.666666667 -32.6666666667 252 -15 282 11 c 0
 300.666666667 27 314.333333333 45.5 323 66.5 c 128
 331.666666667 87.5 336 110.333333333 336 135 c 0
 336 154.333333333 336.833333333 183.166666667 338.5 221.5 c 128
 340.166666667 259.833333333 341 280.333333333 341 283 c 0
 341 323.666666667 352.333333333 362.666666667 375 400 c 1
 363 402.666666667 349 405 333 407 c 128
 317 409 297.333333333 410 274 410 c 0
 218.666666667 410 171.166666667 396.333333333 131.5 369 c 128
 91.8333333333 341.666666667 65.6666666667 306.333333333 53 263 c 1
 75 279.666666667 98 288 122 288 c 0
 156.666666667 288 184 279 204 261 c 0
 228 239.666666667 240 208.333333333 240 167 c 0
 240 115 231.666666667 75.6666666667 215 49 c 0
 194.333333333 16.3333333333 159.666666667 0 111 0 c 0
 72.3333333333 0 44.1666666667 14.3333333333 26.5 43 c 128
 8.83333333333 71.6666666667 0 114 0 170 c 0
 0 254.666666667 23 321.666666667 69 371 c 0
 118.333333333 423.666666667 187.333333333 450 276 450 c 0
 311.333333333 450 342 447.666666667 368 443 c 128
 394 438.333333333 420.666666667 433.666666667 448 429 c 0
 458.666666667 429 468 430.166666667 476 432.5 c 128
 484 434.833333333 493.333333333 439.333333333 504 446 c 0
 509.333333333 449.333333333 514.666666667 451 520 451 c 0
 529.333333333 451 534 446.333333333 534 437 c 0
 534 431.666666667 532.166666667 426.666666667 528.5 422 c 128
 524.833333333 417.333333333 519 413.333333333 511 410 c 0
140 146 m 0
 140 170.666666667 137 188.333333333 131 199 c 0
 123 213 109.666666667 220 91 220 c 0
 69.6666666667 220 55 209.666666667 47 189 c 0
 42.3333333333 177 40 161 40 141 c 0
 40 73.6666666667 56 40 88 40 c 0
 108 40 121.666666667 49.6666666667 129 69 c 128
 136.333333333 88.3333333333 140 114 140 146 c 0
EndSplineSet
EndChar

StartChar: u0B90
Encoding: 49 2960 49
Width: 725
Flags: HW
AnchorPoint: "V" 302.5 455 basechar 0
AnchorPoint: "N" 302.5 -137.313 basechar 0
LayerCount: 2
Fore
SplineSet
117 302 m 0
 117 313.333333333 114.166666667 323.5 108.5 332.5 c 128
 102.833333333 341.5 95.3333333333 346 86 346 c 0
 77.3333333333 346 70 341 64 331 c 128
 58 321 55 309 55 295 c 0
 55 277.666666667 57 263.333333333 61 252 c 128
 65 240.666666667 72.6666666667 235 84 235 c 0
 97.3333333333 235 106.166666667 240.833333333 110.5 252.5 c 128
 114.833333333 264.166666667 117 280.666666667 117 302 c 0
349 389 m 1
 355 405 366.666666667 418.666666667 384 430 c 0
 404 443.333333333 427.666666667 450 455 450 c 0
 550.333333333 450 598 405 598 315 c 0
 598 267.666666667 572.333333333 227.333333333 521 194 c 0
 483 169.333333333 432 149 368 133 c 0
 322 122.333333333 277 111.5 233 100.5 c 128
 189 89.5 158 77 140 63 c 0
 118.666666667 46.3333333333 108 22 108 -10 c 0
 108 -38 113 -61.6666666667 123 -81 c 128
 133 -100.333333333 147 -110 165 -110 c 0
 189 -110 210.333333333 -103 229 -89 c 128
 247.666666667 -75 260.333333333 -55 267 -29 c 1
 267 -1 l 2
 267 23.6666666667 274.333333333 44.3333333333 289 61 c 128
 303.666666667 77.6666666667 323.666666667 86 349 86 c 0
 361 86 375.666666667 83.3333333333 393 78 c 1
 377 55.3333333333 369 24.6666666667 369 -14 c 0
 369 -41.3333333333 374.833333333 -64.1666666667 386.5 -82.5 c 128
 398.166666667 -100.833333333 417.333333333 -110 444 -110 c 0
 468.666666667 -110 485.666666667 -98.6666666667 495 -76 c 0
 501.666666667 -59.3333333333 505 -34 505 0 c 0
 505 23.3333333333 504.5 40 503.5 50 c 128
 502.5 60 499 70 493 80 c 1
 503 82 512.333333333 83 521 83 c 0
 547 83 567.5 74.5 582.5 57.5 c 128
 597.5 40.5 605 18 605 -10 c 0
 605 -55.3333333333 593.333333333 -89.3333333333 570 -112 c 0
 544 -137.333333333 504 -150 450 -150 c 0
 412.666666667 -150 382 -141.666666667 358 -125 c 128
 334 -108.333333333 317.333333333 -87 308 -61 c 1
 298 -87.6666666667 283 -108 263 -122 c 0
 237 -140.666666667 201 -150 155 -150 c 0
 104.333333333 -150 65.8333333333 -136.5 39.5 -109.5 c 128
 13.1666666667 -82.5 0 -49.3333333333 0 -10 c 0
 0 32.6666666667 19 65 57 87 c 0
 83 102.333333333 127.666666667 115.666666667 191 127 c 0
 278.333333333 143 329 152.666666667 343 156 c 0
 387 168 421.333333333 186.666666667 446 212 c 0
 474 240.666666667 488 276.333333333 488 319 c 0
 488 379.666666667 472 410 440 410 c 0
 420.666666667 410 405 402.666666667 393 388 c 0
 383.666666667 376 377.333333333 362 374 346 c 1
 378 334 380 323 380 313 c 2
 380 278 l 2
 380 255.333333333 372.5 235.5 357.5 218.5 c 128
 342.5 201.5 322.333333333 193 297 193 c 0
 287 193 275.333333333 195 262 199 c 1
 269.333333333 210.333333333 274.166666667 222 276.5 234 c 128
 278.833333333 246 280 262 280 282 c 2
 280 323 l 2
 280 352.333333333 273.333333333 374.166666667 260 388.5 c 128
 246.666666667 402.833333333 228.333333333 410 205 410 c 0
 183 410 164.333333333 407.833333333 149 403.5 c 128
 133.666666667 399.166666667 119.333333333 391.666666667 106 381 c 1
 110 381.666666667 116 382 124 382 c 0
 182.666666667 382 212 351.333333333 212 290 c 0
 212 257.333333333 200 232.666666667 176 216 c 0
 156 202 131.666666667 195 103 195 c 0
 73.6666666667 195 51.6666666667 202.333333333 37 217 c 128
 22.3333333333 231.666666667 15 256.333333333 15 291 c 0
 15 340.333333333 32.8333333333 379.166666667 68.5 407.5 c 128
 104.166666667 435.833333333 150.333333333 450 207 450 c 0
 240.333333333 450 269.666666667 444 295 432 c 0
 316.333333333 422 334.333333333 407.666666667 349 389 c 1
EndSplineSet
EndChar

StartChar: u0B92
Encoding: 50 2962 50
Width: 695
Flags: HW
AnchorPoint: "V" 287.5 455 basechar 0
AnchorPoint: "N" 287.5 -146.77 basechar 0
LayerCount: 2
Fore
SplineSet
575 229 m 0
 575 178.333333333 561.666666667 139.333333333 535 112 c 0
 506.333333333 82 463.666666667 67 407 67 c 0
 368.333333333 67 340.333333333 82.3333333333 323 113 c 0
 309 137.666666667 302 170 302 210 c 1
 294 190.666666667 290 171.333333333 290 152 c 0
 290 114 307 84 341 62 c 0
 370.333333333 42.6666666667 405.333333333 33 446 33 c 0
 456 33 461 27 461 15 c 0
 461 5 456 0 446 0 c 2
 397 0 l 2
 379 0 358 -24.6666666667 334 -74 c 128
 310 -123.333333333 263.666666667 -148 195 -148 c 0
 162.333333333 -148 135 -137.333333333 113 -116 c 128
 91 -94.6666666667 77 -67 71 -33 c 1
 92 -26 l 1
 98 -51.3333333333 108.833333333 -71.3333333333 124.5 -86 c 128
 140.166666667 -100.666666667 161 -108 187 -108 c 0
 207.666666667 -108 223.333333333 -97.6666666667 234 -77 c 1
 244.666666667 -47.6666666667 253.333333333 -25.3333333333 260 -10 c 0
 264.666666667 1.33333333333 273 9.83333333333 285 15.5 c 128
 297 21.1666666667 315.333333333 24 340 24 c 1
 324 27.3333333333 307.333333333 38.6666666667 290 58 c 0
 268.666666667 82 258 109 258 139 c 0
 258 175 264.666666667 207.333333333 278 236 c 0
 286.666666667 254 301.333333333 276 322 302 c 0
 331.333333333 313.333333333 341.333333333 319 352 319 c 0
 358 319 362.666666667 317.333333333 366 314 c 128
 369.333333333 310.666666667 369.333333333 306.666666667 366 302 c 0
 352 282 344.666666667 271 344 269 c 0
 338 254.333333333 335 230 335 196 c 0
 335 168.666666667 340.5 147 351.5 131 c 128
 362.5 115 380.333333333 107 405 107 c 0
 425.666666667 107 441 119.5 451 144.5 c 128
 461 169.5 466 200.666666667 466 238 c 0
 466 286 452.666666667 325 426 355 c 0
 393.333333333 391.666666667 343.666666667 410 277 410 c 0
 224.333333333 410 178 397.333333333 138 372 c 0
 102 349.333333333 79.6666666667 322.666666667 71 292 c 1
 83 300 97 304 113 304 c 0
 139.666666667 304 162.666666667 295 182 277 c 0
 204.666666667 256.333333333 216 228.666666667 216 194 c 0
 216 157.333333333 205.333333333 127.333333333 184 104 c 0
 160 78 127 65 85 65 c 0
 61 65 41.3333333333 74.6666666667 26 94 c 0
 8.66666666667 116 0 147.666666667 0 189 c 0
 0 273 28.3333333333 338.666666667 85 386 c 0
 136.333333333 428.666666667 202 450 282 450 c 0
 364 450 431.333333333 433 484 399 c 0
 544.666666667 359.666666667 575 303 575 229 c 0
75 248 m 0
 63 248 54.1666666667 241.166666667 48.5 227.5 c 128
 42.8333333333 213.833333333 40 196.333333333 40 175 c 0
 40 148.333333333 43.1666666667 130 49.5 120 c 128
 55.8333333333 110 65.3333333333 105 78 105 c 0
 92.6666666667 105 102.666666667 113.333333333 108 130 c 0
 111.333333333 140.666666667 113 159 113 185 c 0
 113 227 100.333333333 248 75 248 c 0
EndSplineSet
EndChar

StartChar: u0B93
Encoding: 51 2963 51
Width: 695
Flags: HW
AnchorPoint: "V" 287.5 455 basechar 0
AnchorPoint: "N" 287.5 -146.77 basechar 0
LayerCount: 2
Fore
SplineSet
124 -80 m 0
 134.666666667 -80 142.833333333 -75.5 148.5 -66.5 c 128
 154.166666667 -57.5 157 -47 157 -35 c 0
 157 -5 146 10 124 10 c 0
 108.666666667 10 98.3333333333 5.16666666667 93 -4.5 c 128
 87.6666666667 -14.1666666667 85 -26.6666666667 85 -42 c 0
 85 -50 88.1666666667 -58.3333333333 94.5 -67 c 128
 100.833333333 -75.6666666667 110.666666667 -80 124 -80 c 0
75 248 m 0
 63 248 54.1666666667 241.166666667 48.5 227.5 c 128
 42.8333333333 213.833333333 40 196.333333333 40 175 c 0
 40 148.333333333 43.1666666667 130 49.5 120 c 128
 55.8333333333 110 65.3333333333 105 78 105 c 0
 92.6666666667 105 102.666666667 113.333333333 108 130 c 0
 111.333333333 140.666666667 113 159 113 185 c 0
 113 227 100.333333333 248 75 248 c 0
187 -108 m 0
 207.666666667 -108 223.333333333 -97.6666666667 234 -77 c 1
 244.666666667 -47.6666666667 253.333333333 -25.3333333333 260 -10 c 0
 264.666666667 1.33333333333 273 9.83333333333 285 15.5 c 128
 297 21.1666666667 315.333333333 24 340 24 c 1
 324 27.3333333333 307.333333333 38.6666666667 290 58 c 0
 268.666666667 82 258 109 258 139 c 0
 258 175 264.666666667 207.333333333 278 236 c 0
 286.666666667 254 301.333333333 276 322 302 c 0
 331.333333333 313.333333333 341.333333333 319 352 319 c 0
 358 319 362.666666667 317.333333333 366 314 c 128
 369.333333333 310.666666667 369.333333333 306.666666667 366 302 c 0
 352 282 344.666666667 271 344 269 c 0
 338 254.333333333 335 230 335 196 c 0
 335 168.666666667 340.5 147 351.5 131 c 128
 362.5 115 380.333333333 107 405 107 c 0
 425.666666667 107 441 119.5 451 144.5 c 128
 461 169.5 466 200.666666667 466 238 c 0
 466 286 452.666666667 325 426 355 c 0
 393.333333333 391.666666667 343.666666667 410 277 410 c 0
 224.333333333 410 178 397.333333333 138 372 c 0
 102 349.333333333 79.6666666667 322.666666667 71 292 c 1
 83 300 97 304 113 304 c 0
 139.666666667 304 162.666666667 295 182 277 c 0
 204.666666667 256.333333333 216 228.666666667 216 194 c 0
 216 157.333333333 205.333333333 127.333333333 184 104 c 0
 160 78 127 65 85 65 c 0
 61 65 41.3333333333 74.6666666667 26 94 c 0
 8.66666666667 116 0 147.666666667 0 189 c 0
 0 273 28.3333333333 338.666666667 85 386 c 0
 136.333333333 428.666666667 202 450 282 450 c 0
 364 450 431.333333333 433 484 399 c 0
 544.666666667 359.666666667 575 303 575 229 c 0
 575 178.333333333 561.666666667 139.333333333 535 112 c 0
 506.333333333 82 463.666666667 67 407 67 c 0
 368.333333333 67 340.333333333 82.3333333333 323 113 c 0
 309 137.666666667 302 170 302 210 c 1
 294 190.666666667 290 171.333333333 290 152 c 0
 290 114 307 84 341 62 c 0
 370.333333333 42.6666666667 405.333333333 33 446 33 c 0
 456 33 461 27 461 15 c 0
 461 5 456 0 446 0 c 2
 397 0 l 2
 379 0 358 -24.6666666667 334 -74 c 128
 310 -123.333333333 263.666666667 -148 195 -148 c 0
 153 -148 119 -138.666666667 93 -120 c 0
 64.3333333333 -99.3333333333 50 -70 50 -32 c 0
 50 -9.33333333333 56.8333333333 9.16666666667 70.5 23.5 c 128
 84.1666666667 37.8333333333 105 45 133 45 c 0
 159.666666667 45 179.666666667 37.6666666667 193 23 c 0
 204.333333333 10.3333333333 210 -6.66666666667 210 -28 c 0
 210 -46.6666666667 205.666666667 -63.1666666667 197 -77.5 c 128
 188.333333333 -91.8333333333 179 -101 169 -105 c 1
 171.666666667 -105.666666667 177.666666667 -106.666666667 187 -108 c 0
EndSplineSet
EndChar

StartChar: u0B95
Encoding: 53 2965 53
Width: 668
Flags: HW
AnchorPoint: "V" 330 455 basechar 0
AnchorPoint: "N" 330 -3.09524 basechar 0
LayerCount: 2
Fore
SplineSet
548 150 m 0
 548 105.333333333 536.666666667 69.3333333333 514 42 c 0
 488.666666667 11.3333333333 453 -4 407 -4 c 0
 393 -4 386 1.33333333333 386 12 c 0
 386 16.6666666667 387.666666667 20 391 22 c 0
 409.666666667 34.6666666667 422.666666667 55.6666666667 430 85 c 0
 435.333333333 105.666666667 438 129 438 155 c 0
 438 185.666666667 431.333333333 207.666666667 418 221 c 128
 404.666666667 234.333333333 381.333333333 241 348 241 c 1
 348 231 347.666666667 217 347 199 c 128
 346.333333333 181 346 168.666666667 346 162 c 0
 346 111.333333333 332.666666667 71.6666666667 306 43 c 128
 279.333333333 14.3333333333 239 0 185 0 c 0
 128.333333333 0 83.3333333333 10.3333333333 50 31 c 128
 16.6666666667 51.6666666667 0 81 0 119 c 0
 0 157.666666667 8.33333333333 189 25 213 c 128
 41.6666666667 237 69 254.666666667 107 266 c 1
 107 305 l 2
 107 349 115.666666667 383 133 407 c 0
 153.666666667 435.666666667 185.666666667 450 229 450 c 0
 250.333333333 450 268.333333333 448.333333333 283 445 c 0
 320.333333333 436.333333333 342.333333333 432 349 432 c 0
 361 432 371 432.833333333 379 434.5 c 128
 387 436.166666667 395.666666667 440 405 446 c 0
 410.333333333 449.333333333 415.666666667 451 421 451 c 0
 430.333333333 451 435 446.333333333 435 437 c 0
 435 431.666666667 433.166666667 426.666666667 429.5 422 c 128
 425.833333333 417.333333333 420 413.333333333 412 410 c 0
 388.666666667 399.333333333 372.333333333 380.333333333 363 353 c 0
 360.333333333 345.666666667 357.666666667 335.333333333 355 322 c 128
 352.333333333 308.666666667 351 295 351 281 c 1
 414.333333333 281 462 271.333333333 494 252 c 0
 530 230 548 196 548 150 c 0
280 401 m 1
 270 404.333333333 262.166666667 406.666666667 256.5 408 c 128
 250.833333333 409.333333333 241 410 227 410 c 0
 210.333333333 410 197 407.833333333 187 403.5 c 128
 177 399.166666667 169 391.666666667 163 381 c 128
 157 370.333333333 152.666666667 355.666666667 150 337 c 128
 147.333333333 318.333333333 146 297.333333333 146 274 c 1
 148.666666667 274.666666667 160.666666667 276 182 278 c 128
 203.333333333 280 223.333333333 281 242 281 c 1
 244 298.333333333 245.833333333 311.833333333 247.5 321.5 c 128
 249.166666667 331.166666667 251.166666667 339.666666667 253.5 347 c 128
 255.833333333 354.333333333 259.166666667 362.333333333 263.5 371 c 128
 267.833333333 379.666666667 273.333333333 389.666666667 280 401 c 1
239 240 m 1
 223 240 208.333333333 238.666666667 195 236 c 128
 181.666666667 233.333333333 170.333333333 229.666666667 161 225 c 0
 143 214.333333333 130 199 122 179 c 128
 114 159 110 136.666666667 110 112 c 0
 110 86 115.166666667 67.5 125.5 56.5 c 128
 135.833333333 45.5 151 40 171 40 c 0
 198.333333333 40 217 51.3333333333 227 74 c 0
 233.666666667 89.3333333333 237 112.666666667 237 144 c 2
 237 165 l 2
 237 171 237.333333333 182.5 238 199.5 c 128
 238.666666667 216.5 239 230 239 240 c 1
EndSplineSet
EndChar

StartChar: u0B95_u0BBF
Encoding: 54 -1 54
Width: 679
Flags: HW
AnchorPoint: "V" 330 658.74 basechar 0
AnchorPoint: "N" 330 -3.09524 basechar 0
LayerCount: 2
Fore
SplineSet
280 401 m 1
 270 404.333333333 262.166666667 406.666666667 256.5 408 c 128
 250.833333333 409.333333333 241 410 227 410 c 0
 210.333333333 410 197 407.833333333 187 403.5 c 128
 177 399.166666667 169 391.666666667 163 381 c 128
 157 370.333333333 152.666666667 355.666666667 150 337 c 128
 147.333333333 318.333333333 146 297.333333333 146 274 c 1
 148.666666667 274.666666667 160.666666667 276 182 278 c 128
 203.333333333 280 223.333333333 281 242 281 c 1
 244 298.333333333 245.833333333 311.833333333 247.5 321.5 c 128
 249.166666667 331.166666667 251.166666667 339.666666667 253.5 347 c 128
 255.833333333 354.333333333 259.166666667 362.333333333 263.5 371 c 128
 267.833333333 379.666666667 273.333333333 389.666666667 280 401 c 1
239 240 m 1
 223 240 208.333333333 238.666666667 195 236 c 128
 181.666666667 233.333333333 170.333333333 229.666666667 161 225 c 0
 143 214.333333333 130 199 122 179 c 128
 114 159 110 136.666666667 110 112 c 0
 110 86 115.166666667 67.5 125.5 56.5 c 128
 135.833333333 45.5 151 40 171 40 c 0
 198.333333333 40 217 51.3333333333 227 74 c 0
 233.666666667 89.3333333333 237 112.666666667 237 144 c 2
 237 165 l 2
 237 171 237.333333333 182.5 238 199.5 c 128
 238.666666667 216.5 239 230 239 240 c 1
268 533 m 0
 268 576.333333333 279.333333333 610.666666667 302 636 c 0
 328 664.666666667 366 679 416 679 c 0
 464 679 500.333333333 662.666666667 525 630 c 0
 547.666666667 600 559 558 559 504 c 0
 559 480 557.166666667 458.166666667 553.5 438.5 c 128
 549.833333333 418.833333333 543.333333333 392.666666667 534 360 c 0
 534 350.666666667 538.333333333 339.666666667 547 327 c 0
 551.666666667 320.333333333 554 313.666666667 554 307 c 256
 554 300.333333333 551.5 294.5 546.5 289.5 c 128
 541.5 284.5 535.666666667 282 529 282 c 0
 519 282 510.833333333 286.833333333 504.5 296.5 c 128
 498.166666667 306.166666667 495.666666667 316 497 326 c 0
 499 337.333333333 504.666666667 360 514 394 c 128
 523.333333333 428 528 454.333333333 528 473 c 0
 528 509 519 537 501 557 c 128
 483 577 455.333333333 587 418 587 c 0
 382.666666667 587 356 578 338 560 c 128
 320 542 311 519 311 491 c 0
 311 481 312.5 470.333333333 315.5 459 c 128
 318.5 447.666666667 322.666666667 439.333333333 328 434 c 1
 349 432 l 2
 361 432 371 432.833333333 379 434.5 c 128
 387 436.166666667 395.666666667 440 405 446 c 0
 410.333333333 449.333333333 415.666666667 451 421 451 c 0
 430.333333333 451 435 446.333333333 435 437 c 0
 435 431.666666667 433.166666667 426.666666667 429.5 422 c 128
 425.833333333 417.333333333 420 413.333333333 412 410 c 0
 388.666666667 399.333333333 372.333333333 380.333333333 363 353 c 0
 360.333333333 345.666666667 357.666666667 335.333333333 355 322 c 128
 352.333333333 308.666666667 351 295 351 281 c 1
 414.333333333 281 462 271.333333333 494 252 c 0
 530 230 548 196 548 150 c 0
 548 105.333333333 536.666666667 69.3333333333 514 42 c 0
 488.666666667 11.3333333333 453 -4 407 -4 c 0
 393 -4 386 1.33333333333 386 12 c 0
 386 16.6666666667 387.666666667 20 391 22 c 0
 409.666666667 34.6666666667 422.666666667 55.6666666667 430 85 c 0
 435.333333333 105.666666667 438 129 438 155 c 0
 438 185.666666667 431.333333333 207.666666667 418 221 c 128
 404.666666667 234.333333333 381.333333333 241 348 241 c 1
 348 231 347.666666667 217 347 199 c 128
 346.333333333 181 346 168.666666667 346 162 c 0
 346 111.333333333 332.666666667 71.6666666667 306 43 c 128
 279.333333333 14.3333333333 239 0 185 0 c 0
 128.333333333 0 83.3333333333 10.3333333333 50 31 c 128
 16.6666666667 51.6666666667 0 81 0 119 c 0
 0 157.666666667 8.33333333333 189 25 213 c 128
 41.6666666667 237 69 254.666666667 107 266 c 1
 107 305 l 2
 107 349 115.666666667 383 133 407 c 0
 153.666666667 435.666666667 185.666666667 450 229 450 c 0
 239.666666667 450 248.5 449.666666667 255.5 449 c 128
 262.5 448.333333333 272.666666667 446.333333333 286 443 c 1
 282 451.666666667 278 465 274 483 c 128
 270 501 268 517.666666667 268 533 c 0
EndSplineSet
EndChar

StartChar: u0B95_u0BC0
Encoding: 55 -1 55
Width: 669
Flags: HW
AnchorPoint: "V" 330 666.361 basechar 0
AnchorPoint: "N" 330 -3.09524 basechar 0
LayerCount: 2
Fore
SplineSet
242 281 m 1
 244 298.333333333 245.833333333 311.833333333 247.5 321.5 c 128
 249.166666667 331.166666667 251.166666667 339.666666667 253.5 347 c 128
 255.833333333 354.333333333 259.166666667 362.333333333 263.5 371 c 128
 267.833333333 379.666666667 273.333333333 389.666666667 280 401 c 1
 270 404.333333333 262.166666667 406.666666667 256.5 408 c 128
 250.833333333 409.333333333 241 410 227 410 c 0
 210.333333333 410 197 407.833333333 187 403.5 c 128
 177 399.166666667 169 391.666666667 163 381 c 128
 157 370.333333333 152.666666667 355.666666667 150 337 c 128
 147.333333333 318.333333333 146 297.333333333 146 274 c 1
 148.666666667 274.666666667 160.666666667 276 182 278 c 128
 203.333333333 280 223.333333333 281 242 281 c 1
239 240 m 1
 223 240 208.333333333 238.666666667 195 236 c 128
 181.666666667 233.333333333 170.333333333 229.666666667 161 225 c 0
 143 214.333333333 130 199 122 179 c 128
 114 159 110 136.666666667 110 112 c 0
 110 86 115.166666667 67.5 125.5 56.5 c 128
 135.833333333 45.5 151 40 171 40 c 0
 198.333333333 40 217 51.3333333333 227 74 c 0
 233.666666667 89.3333333333 237 112.666666667 237 144 c 2
 237 165 l 2
 237 171 237.333333333 182.5 238 199.5 c 128
 238.666666667 216.5 239 230 239 240 c 1
443 578 m 0
 443 588.666666667 439.666666667 597.666666667 433 605 c 128
 426.333333333 612.333333333 417.666666667 616 407 616 c 256
 396.333333333 616 387.333333333 612.666666667 380 606 c 128
 372.666666667 599.333333333 369 590.666666667 369 580 c 256
 369 569.333333333 372.333333333 560.333333333 379 553 c 128
 385.666666667 545.666666667 394.333333333 542 405 542 c 0
 430.333333333 542 443 554 443 578 c 0
243 536 m 0
 243 576.666666667 257.666666667 610.666666667 287 638 c 0
 319 668 362.666666667 683 418 683 c 0
 452.666666667 683 483.166666667 674.333333333 509.5 657 c 128
 535.833333333 639.666666667 549 616.666666667 549 588 c 0
 549 566.666666667 541.666666667 547 527 529 c 0
 507 504.333333333 478.666666667 492 442 492 c 0
 404.666666667 492 376.666666667 501 358 519 c 0
 343.333333333 533.666666667 336 552.666666667 336 576 c 0
 336 586.666666667 337.666666667 597.666666667 341 609 c 1
 323 603.666666667 308.833333333 593 298.5 577 c 128
 288.166666667 561 283 544.666666667 283 528 c 256
 283 511.333333333 287.5 494.333333333 296.5 477 c 128
 305.5 459.666666667 317 445 331 433 c 1
 349 432 l 2
 361 432 371 432.833333333 379 434.5 c 128
 387 436.166666667 395.666666667 440 405 446 c 0
 410.333333333 449.333333333 415.666666667 451 421 451 c 0
 430.333333333 451 435 446.333333333 435 437 c 0
 435 431.666666667 433.166666667 426.666666667 429.5 422 c 128
 425.833333333 417.333333333 420 413.333333333 412 410 c 0
 388.666666667 399.333333333 372.333333333 380.333333333 363 353 c 0
 360.333333333 345.666666667 357.666666667 335.333333333 355 322 c 128
 352.333333333 308.666666667 351 295 351 281 c 1
 414.333333333 281 462 271.333333333 494 252 c 0
 530 230 548 196 548 150 c 0
 548 105.333333333 536.666666667 69.3333333333 514 42 c 0
 488.666666667 11.3333333333 453 -4 407 -4 c 0
 393 -4 386 1.33333333333 386 12 c 0
 386 16.6666666667 387.666666667 20 391 22 c 0
 409.666666667 34.6666666667 422.666666667 55.6666666667 430 85 c 0
 435.333333333 105.666666667 438 129 438 155 c 0
 438 185.666666667 431.333333333 207.666666667 418 221 c 128
 404.666666667 234.333333333 381.333333333 241 348 241 c 1
 348 231 347.666666667 217 347 199 c 128
 346.333333333 181 346 168.666666667 346 162 c 0
 346 111.333333333 332.666666667 71.6666666667 306 43 c 128
 279.333333333 14.3333333333 239 0 185 0 c 0
 128.333333333 0 83.3333333333 10.3333333333 50 31 c 128
 16.6666666667 51.6666666667 0 81 0 119 c 0
 0 157.666666667 8.33333333333 189 25 213 c 128
 41.6666666667 237 69 254.666666667 107 266 c 1
 107 305 l 2
 107 349 115.666666667 383 133 407 c 0
 153.666666667 435.666666667 185.666666667 450 229 450 c 2
 265 450 l 1
 258.333333333 462 253 474.833333333 249 488.5 c 128
 245 502.166666667 243 518 243 536 c 0
EndSplineSet
EndChar

StartChar: u0B95_u0BC1
Encoding: 56 -1 56
Width: 818
Flags: HW
AnchorPoint: "V" 330 455 basechar 0
AnchorPoint: "N" 330 -3.09524 basechar 0
LayerCount: 2
Fore
SplineSet
392 281 m 1
 395.333333333 311.666666667 399.333333333 334 404 348 c 0
 406 354.666666667 409.166666667 362.333333333 413.5 371 c 128
 417.833333333 379.666666667 423.333333333 389.666666667 430 401 c 1
 420 404.333333333 412.166666667 406.666666667 406.5 408 c 128
 400.833333333 409.333333333 391 410 377 410 c 0
 360.333333333 410 347 407.833333333 337 403.5 c 128
 327 399.166666667 319 391.666666667 313 381 c 128
 307 370.333333333 302.666666667 355.666666667 300 337 c 128
 297.333333333 318.333333333 296 297.333333333 296 274 c 1
 298.666666667 274.666666667 310.666666667 276 332 278 c 128
 353.333333333 280 373.333333333 281 392 281 c 1
389 240 m 1
 373 240 358.333333333 238.666666667 345 236 c 128
 331.666666667 233.333333333 320.333333333 229.666666667 311 225 c 0
 293 214.333333333 280 199 272 179 c 128
 264 159 260 136.666666667 260 112 c 0
 260 86 265.166666667 67.5 275.5 56.5 c 128
 285.833333333 45.5 301 40 321 40 c 0
 348.333333333 40 367 51.3333333333 377 74 c 0
 383.666666667 89.3333333333 387 112.666666667 387 144 c 2
 387 165 l 2
 387 171 387.333333333 182.5 388 199.5 c 128
 388.666666667 216.5 389 230 389 240 c 1
588 115 m 0
 588 161.666666667 581.333333333 194.333333333 568 213 c 128
 554.666666667 231.666666667 531.333333333 241 498 241 c 1
 498 231 497.666666667 217 497 199 c 128
 496.333333333 181 496 168.666666667 496 162 c 0
 496 111.333333333 482.666666667 71.6666666667 456 43 c 128
 429.333333333 14.3333333333 389 0 335 0 c 0
 278.333333333 0 233.333333333 10.3333333333 200 31 c 128
 166.666666667 51.6666666667 150 81 150 119 c 0
 150 157.666666667 158.333333333 189 175 213 c 128
 191.666666667 237 219 254.666666667 257 266 c 1
 257 305 l 2
 257 349 265.666666667 383 283 407 c 0
 303.666666667 435.666666667 335.666666667 450 379 450 c 0
 400.333333333 450 418.333333333 448.333333333 433 445 c 0
 470.333333333 436.333333333 492.333333333 432 499 432 c 0
 511 432 521 432.833333333 529 434.5 c 128
 537 436.166666667 545.666666667 440 555 446 c 0
 560.333333333 449.333333333 565.666666667 451 571 451 c 0
 580.333333333 451 585 446.333333333 585 437 c 0
 585 431.666666667 583.166666667 426.666666667 579.5 422 c 128
 575.833333333 417.333333333 570 413.333333333 562 410 c 0
 538.666666667 399.333333333 522.333333333 380.333333333 513 353 c 0
 510.333333333 345.666666667 507.666666667 335.333333333 505 322 c 128
 502.333333333 308.666666667 501 295 501 281 c 1
 565.666666667 281 613.333333333 269.333333333 644 246 c 0
 680 218.666666667 698 173.333333333 698 110 c 0
 698 20 671.666666667 -52.3333333333 619 -107 c 0
 555.666666667 -172.333333333 458.333333333 -205 327 -205 c 0
 220.333333333 -205 139.166666667 -176.166666667 83.5 -118.5 c 128
 27.8333333333 -60.8333333333 0 19.3333333333 0 122 c 0
 0 198 11 259.666666667 33 307 c 0
 44.3333333333 331 63.3333333333 357.333333333 90 386 c 0
 96 392 102.333333333 395 109 395 c 0
 119.666666667 395 125 389.666666667 125 379 c 0
 125 374.333333333 123 368.333333333 119 361 c 0
 103.666666667 337.666666667 88.6666666667 314.333333333 74 291 c 1
 51.3333333333 243 40 185.666666667 40 119 c 0
 40 29.6666666667 68 -40 124 -90 c 0
 176.666666667 -136.666666667 244 -160 326 -160 c 0
 410.666666667 -160 475.5 -135.5 520.5 -86.5 c 128
 565.5 -37.5 588 29.6666666667 588 115 c 0
EndSplineSet
EndChar

StartChar: u0B95_u0BC2
Encoding: 57 -1 57
Width: 1098
Flags: HW
AnchorPoint: "V" 330 455 basechar 0
AnchorPoint: "N" 330 -3.09524 basechar 0
LayerCount: 2
Fore
SplineSet
978 18 m 0
 962 10.6666666667 943.666666667 4.83333333333 923 0.5 c 128
 902.333333333 -3.83333333333 879 -6 853 -6 c 0
 828 -6 828 -6 801 -6 c 128
 783 -6 764.333333333 -6.33333333333 745 -7 c 2
 725 -7 l 2
 672.333333333 -7 631 -4.66666666667 601 0 c 0
 595.666666667 1.33333333333 593 4.66666666667 593 10 c 256
 593 15.3333333333 595.666666667 20 601 24 c 0
 621.666666667 39.3333333333 638 55.6666666667 650 73 c 0
 666 96.3333333333 674 120.333333333 674 145 c 0
 674 175 665.333333333 202 648 226 c 0
 626.666666667 256 597.333333333 271 560 271 c 0
 547.333333333 271 533 267.666666667 517 261 c 1
 547.666666667 249 569.333333333 231 582 207 c 0
 592.666666667 187 598 160.666666667 598 128 c 0
 598 104 586 77 562 47 c 0
 534.666666667 13 504.666666667 -4 472 -4 c 0
 436 -4 409.833333333 5.33333333333 393.5 24 c 128
 377.166666667 42.6666666667 369 67.3333333333 369 98 c 0
 369 125.333333333 372.5 149 379.5 169 c 128
 386.5 189 397.333333333 208 412 226 c 1
 402.666666667 231.333333333 392.833333333 235.166666667 382.5 237.5 c 128
 372.166666667 239.833333333 360.666666667 241 348 241 c 1
 348 231 347.666666667 217 347 199 c 128
 346.333333333 181 346 168.666666667 346 162 c 0
 346 111.333333333 332.666666667 71.6666666667 306 43 c 128
 279.333333333 14.3333333333 239 0 185 0 c 0
 128.333333333 0 83.3333333333 10.3333333333 50 31 c 128
 16.6666666667 51.6666666667 0 81 0 119 c 0
 0 157.666666667 8.33333333333 189 25 213 c 128
 41.6666666667 237 69 254.666666667 107 266 c 1
 107 305 l 2
 107 349 115.666666667 383 133 407 c 0
 153.666666667 435.666666667 185.666666667 450 229 450 c 0
 250.333333333 450 268.333333333 448.333333333 283 445 c 0
 320.333333333 436.333333333 342.333333333 432 349 432 c 0
 361 432 371 432.833333333 379 434.5 c 128
 387 436.166666667 395.666666667 440 405 446 c 0
 410.333333333 449.333333333 415.666666667 451 421 451 c 0
 430.333333333 451 435 446.333333333 435 437 c 0
 435 431.666666667 433.166666667 426.666666667 429.5 422 c 128
 425.833333333 417.333333333 420 413.333333333 412 410 c 0
 388.666666667 399.333333333 372.333333333 380.333333333 363 353 c 0
 360.333333333 345.666666667 357.666666667 335.333333333 355 322 c 128
 352.333333333 308.666666667 351 295 351 281 c 1
 356.333333333 281.666666667 361.5 282.166666667 366.5 282.5 c 128
 371.5 282.833333333 377.333333333 283 384 283 c 0
 396.666666667 283 410 282.166666667 424 280.5 c 128
 438 278.833333333 453 276.666666667 469 274 c 1
 492.333333333 288 516.666666667 298.333333333 542 305 c 128
 567.333333333 311.666666667 591 315 613 315 c 0
 669 315 712.333333333 299.333333333 743 268 c 0
 770.333333333 240 784 204 784 160 c 0
 784 139.333333333 777.333333333 116.666666667 764 92 c 0
 748 62 729.333333333 44.6666666667 708 40 c 1
 720.666666667 38 739.166666667 36.6666666667 763.5 36 c 128
 787.833333333 35.3333333333 815 35 845 35 c 0
 869.666666667 35 889.333333333 36.6666666667 904 40 c 128
 918.666666667 43.3333333333 933 48.6666666667 947 56 c 0
 956.333333333 60.6666666667 965 63 973 63 c 0
 989.666666667 63 998 56.3333333333 998 43 c 0
 998 33 991.333333333 24.6666666667 978 18 c 0
471 125 m 0
 471 129.666666667 471.5 136.5 472.5 145.5 c 128
 473.5 154.5 474 159.333333333 474 160 c 0
 474 169.333333333 472.166666667 178 468.5 186 c 128
 464.833333333 194 458 201.666666667 448 209 c 1
 435.333333333 193.666666667 425.5 177.333333333 418.5 160 c 128
 411.5 142.666666667 408 122.333333333 408 99 c 0
 408 83 409.166666667 70 411.5 60 c 128
 413.833333333 50 421.666666667 45 435 45 c 0
 445 45 453.5 54 460.5 72 c 128
 467.5 90 471 107.666666667 471 125 c 0
280 401 m 1
 270 404.333333333 262.166666667 406.666666667 256.5 408 c 128
 250.833333333 409.333333333 241 410 227 410 c 0
 210.333333333 410 197 407.833333333 187 403.5 c 128
 177 399.166666667 169 391.666666667 163 381 c 128
 157 370.333333333 152.666666667 355.666666667 150 337 c 128
 147.333333333 318.333333333 146 297.333333333 146 274 c 1
 148.666666667 274.666666667 160.666666667 276 182 278 c 128
 203.333333333 280 223.333333333 281 242 281 c 1
 244 298.333333333 245.833333333 311.833333333 247.5 321.5 c 128
 249.166666667 331.166666667 251.166666667 339.666666667 253.5 347 c 128
 255.833333333 354.333333333 259.166666667 362.333333333 263.5 371 c 128
 267.833333333 379.666666667 273.333333333 389.666666667 280 401 c 1
239 240 m 1
 223 240 208.333333333 238.666666667 195 236 c 128
 181.666666667 233.333333333 170.333333333 229.666666667 161 225 c 0
 143 214.333333333 130 199 122 179 c 128
 114 159 110 136.666666667 110 112 c 0
 110 86 115.166666667 67.5 125.5 56.5 c 128
 135.833333333 45.5 151 40 171 40 c 0
 198.333333333 40 217 51.3333333333 227 74 c 0
 233.666666667 89.3333333333 237 112.666666667 237 144 c 2
 237 165 l 2
 237 171 237.333333333 182.5 238 199.5 c 128
 238.666666667 216.5 239 230 239 240 c 1
EndSplineSet
EndChar

StartChar: u0B95_u0BC2.old
Encoding: 58 -1 58
Width: 940
Flags: HW
AnchorPoint: "V" 330 455 basechar 0
AnchorPoint: "N" 330 -3.09524 basechar 0
LayerCount: 2
Fore
SplineSet
480 230 m 1
 487.333333333 241.333333333 501.666666667 250.5 523 257.5 c 128
 544.333333333 264.5 573.333333333 268 610 268 c 0
 648.666666667 268 681.333333333 259 708 241 c 0
 739.333333333 219.666666667 755 190 755 152 c 0
 755 128 746.666666667 104.666666667 730 82 c 0
 716.666666667 64 700 48.3333333333 680 35 c 1
 840 35 l 1
 840 0 l 1
 577 0 l 1
 577 35 l 1
 599.666666667 47.6666666667 618.666666667 61.3333333333 634 76 c 0
 657.333333333 98.6666666667 669 122.333333333 669 147 c 0
 669 169 660.666666667 187.666666667 644 203 c 128
 627.333333333 218.333333333 607.333333333 226 584 226 c 0
 558.666666667 226 537.5 221.666666667 520.5 213 c 128
 503.5 204.333333333 493.333333333 193.666666667 490 181 c 1
 490 0 l 1
 415 0 l 1
 415 225 l 1
 316 225 l 1
 316 106 l 2
 316 78.6666666667 299 54.1666666667 265 32.5 c 128
 231 10.8333333333 194.333333333 0 155 0 c 0
 107.666666667 0 70.6666666667 11 44 33 c 0
 14.6666666667 57.6666666667 0 93.6666666667 0 141 c 0
 0 177.666666667 12.3333333333 207.666666667 37 231 c 0
 56.3333333333 249.666666667 74.3333333333 259 91 259 c 1
 91 450 l 1
 416 450 l 1
 416 415 l 1
 316 415 l 1
 316 260 l 1
 439 260 l 2
 447 260 455 257.666666667 463 253 c 128
 471 248.333333333 476.666666667 240.666666667 480 230 c 1
241 260 m 1
 241 415 l 1
 126 415 l 1
 126 260 l 1
 241 260 l 1
241 103 m 2
 241 225 l 1
 110 225 l 2
 93.3333333333 225 78 218.666666667 64 206 c 0
 44.6666666667 188.666666667 35 164 35 132 c 0
 35 99.3333333333 44.3333333333 75 63 59 c 128
 81.6666666667 43 108.666666667 35 144 35 c 0
 164.666666667 35 186 42 208 56 c 128
 230 70 241 85.6666666667 241 103 c 2
EndSplineSet
EndChar

StartChar: u0B95_u0BCD
Encoding: 59 -1 59
Width: 668
Flags: HW
AnchorPoint: "N" 330 -3.09524 basechar 0
LayerCount: 2
Fore
SplineSet
392 587 m 0
 392 569.666666667 386 555 374 543 c 128
 362 531 347.333333333 525 330 525 c 256
 312.666666667 525 298 531 286 543 c 128
 274 555 268 569.666666667 268 587 c 256
 268 604.333333333 273.833333333 619.166666667 285.5 631.5 c 128
 297.166666667 643.833333333 312 650 330 650 c 0
 347.333333333 650 362 644 374 632 c 128
 386 620 392 605 392 587 c 0
548 150 m 0
 548 105.333333333 536.666666667 69.3333333333 514 42 c 0
 488.666666667 11.3333333333 453 -4 407 -4 c 0
 393 -4 386 1.33333333333 386 12 c 0
 386 16.6666666667 387.666666667 20 391 22 c 0
 409.666666667 34.6666666667 422.666666667 55.6666666667 430 85 c 0
 435.333333333 105.666666667 438 129 438 155 c 0
 438 185.666666667 431.333333333 207.666666667 418 221 c 128
 404.666666667 234.333333333 381.333333333 241 348 241 c 1
 348 231 347.666666667 217 347 199 c 128
 346.333333333 181 346 168.666666667 346 162 c 0
 346 111.333333333 332.666666667 71.6666666667 306 43 c 128
 279.333333333 14.3333333333 239 0 185 0 c 0
 128.333333333 0 83.3333333333 10.3333333333 50 31 c 128
 16.6666666667 51.6666666667 0 81 0 119 c 0
 0 157.666666667 8.33333333333 189 25 213 c 128
 41.6666666667 237 69 254.666666667 107 266 c 1
 107 305 l 2
 107 349 115.666666667 383 133 407 c 0
 153.666666667 435.666666667 185.666666667 450 229 450 c 0
 250.333333333 450 268.333333333 448.333333333 283 445 c 0
 320.333333333 436.333333333 342.333333333 432 349 432 c 0
 361 432 371 432.833333333 379 434.5 c 128
 387 436.166666667 395.666666667 440 405 446 c 0
 410.333333333 449.333333333 415.666666667 451 421 451 c 0
 430.333333333 451 435 446.333333333 435 437 c 0
 435 431.666666667 433.166666667 426.666666667 429.5 422 c 128
 425.833333333 417.333333333 420 413.333333333 412 410 c 0
 388.666666667 399.333333333 372.333333333 380.333333333 363 353 c 0
 360.333333333 345.666666667 357.666666667 335.333333333 355 322 c 128
 352.333333333 308.666666667 351 295 351 281 c 1
 414.333333333 281 462 271.333333333 494 252 c 0
 530 230 548 196 548 150 c 0
280 401 m 1
 270 404.333333333 262.166666667 406.666666667 256.5 408 c 128
 250.833333333 409.333333333 241 410 227 410 c 0
 210.333333333 410 197 407.833333333 187 403.5 c 128
 177 399.166666667 169 391.666666667 163 381 c 128
 157 370.333333333 152.666666667 355.666666667 150 337 c 128
 147.333333333 318.333333333 146 297.333333333 146 274 c 1
 148.666666667 274.666666667 160.666666667 276 182 278 c 128
 203.333333333 280 223.333333333 281 242 281 c 1
 244 298.333333333 245.833333333 311.833333333 247.5 321.5 c 128
 249.166666667 331.166666667 251.166666667 339.666666667 253.5 347 c 128
 255.833333333 354.333333333 259.166666667 362.333333333 263.5 371 c 128
 267.833333333 379.666666667 273.333333333 389.666666667 280 401 c 1
239 240 m 1
 223 240 208.333333333 238.666666667 195 236 c 128
 181.666666667 233.333333333 170.333333333 229.666666667 161 225 c 0
 143 214.333333333 130 199 122 179 c 128
 114 159 110 136.666666667 110 112 c 0
 110 86 115.166666667 67.5 125.5 56.5 c 128
 135.833333333 45.5 151 40 171 40 c 0
 198.333333333 40 217 51.3333333333 227 74 c 0
 233.666666667 89.3333333333 237 112.666666667 237 144 c 2
 237 165 l 2
 237 171 237.333333333 182.5 238 199.5 c 128
 238.666666667 216.5 239 230 239 240 c 1
EndSplineSet
EndChar

StartChar: u0B99
Encoding: 60 2969 60
Width: 838
Flags: HW
AnchorPoint: "V" 330 455 basechar 0
AnchorPoint: "N" 330 -1.57143 basechar 0
LayerCount: 2
Fore
SplineSet
718 439 m 0
 710 424.333333333 703.5 406.833333333 698.5 386.5 c 128
 693.5 366.166666667 691 345.333333333 691 324 c 2
 691 143 l 2
 691 95.6666666667 677.333333333 58.6666666667 650 32 c 128
 622.666666667 5.33333333333 587.333333333 -8 544 -8 c 1
 524 -5.33333333333 507.666666667 -3.66666666667 495 -3 c 0
 457 0.333333333333 424.333333333 2 397 2 c 0
 378.333333333 2 363 1 351 -1 c 0
 342.333333333 -2.33333333333 334.666666667 -1.33333333333 328 2 c 128
 321.333333333 5.33333333333 318 10.6666666667 318 18 c 0
 318 26.6666666667 325.666666667 38.3333333333 341 53 c 0
 351 61.6666666667 359 74 365 90 c 128
 371 106 374 125 374 147 c 0
 374 178.333333333 369 203 359 221 c 128
 349 239 335.333333333 248 318 248 c 0
 306 248 292.333333333 243 277 233 c 1
 275 132 l 2
 275 86 262.333333333 51 237 27 c 0
 215.666666667 6.33333333333 188.333333333 -4 155 -4 c 0
 141 -4 134 0.333333333333 134 9 c 0
 134 12.3333333333 135.666666667 16.6666666667 139 22 c 0
 147 36.6666666667 153.5 53.8333333333 158.5 73.5 c 128
 163.5 93.1666666667 166 113.666666667 166 135 c 0
 166 154.333333333 166.833333333 183.166666667 168.5 221.5 c 128
 170.166666667 259.833333333 171 280.333333333 171 283 c 0
 171 303 175 324 183 346 c 0
 189 363.333333333 198 381.666666667 210 401 c 1
 202 403 193.666666667 405 185 407 c 128
 176.333333333 409 165 410 151 410 c 0
 125 410 106 400.833333333 94 382.5 c 128
 82 364.166666667 76 331.666666667 76 285 c 0
 76 214.333333333 73.6666666667 159.166666667 69 119.5 c 128
 64.3333333333 79.8333333333 53.6666666667 44.6666666667 37 14 c 0
 31 3.33333333333 23.3333333333 -2 14 -2 c 256
 4.66666666667 -2 0 3 0 13 c 0
 0 18.3333333333 1.66666666667 23.6666666667 5 29 c 0
 17.6666666667 53 26 82.1666666667 30 116.5 c 128
 34 150.833333333 36 194.666666667 36 248 c 2
 36 305 l 2
 36 349 45.6666666667 384.166666667 65 410.5 c 128
 84.3333333333 436.833333333 113.666666667 450 153 450 c 0
 175.666666667 450 198.666666667 447 222 441 c 128
 245.333333333 435 264 432 278 432 c 0
 290 432 300 432.833333333 308 434.5 c 128
 316 436.166666667 324.666666667 440 334 446 c 0
 339.333333333 449.333333333 344.666666667 451 350 451 c 0
 359.333333333 451 364 446.333333333 364 437 c 0
 364 431.666666667 362.166666667 426.666666667 358.5 422 c 128
 354.833333333 417.333333333 349 413.333333333 341 410 c 0
 321 400.666666667 306.5 384.833333333 297.5 362.5 c 128
 288.5 340.166666667 282.333333333 310.333333333 279 273 c 1
 306.333333333 289 334 297 362 297 c 0
 397.333333333 297 425.666666667 285.333333333 447 262 c 0
 471 236 483 199.333333333 483 152 c 0
 483 128.666666667 473.666666667 105 455 81 c 0
 439.666666667 61.6666666667 424.666666667 48.3333333333 410 41 c 1
 423.333333333 39 434.833333333 37.3333333333 444.5 36 c 128
 454.166666667 34.6666666667 464 34 474 34 c 0
 488 34 500 35 510 37 c 128
 520 39 532.333333333 43.3333333333 547 50 c 128
 561.666666667 56.6666666667 571.666666667 74.3333333333 577 103 c 0
 580.333333333 121 582 145.333333333 582 176 c 2
 582 327 l 2
 582 372.333333333 594.666666667 407.333333333 620 432 c 0
 642.666666667 454 670 465 702 465 c 0
 716 465 723 460.666666667 723 452 c 0
 723 448.666666667 721.333333333 444.333333333 718 439 c 0
EndSplineSet
EndChar

StartChar: u0B99_u0BBF
Encoding: 61 -1 61
Width: 959
Flags: HW
AnchorPoint: "V" 330 455 basechar 0
AnchorPoint: "N" 330 -1.57143 basechar 0
LayerCount: 2
Fore
SplineSet
596 397 m 1
 578.666666667 416.333333333 566.333333333 437.166666667 559 459.5 c 128
 551.666666667 481.833333333 548 506.333333333 548 533 c 0
 548 576.333333333 559.333333333 610.666666667 582 636 c 0
 608 664.666666667 646 679 696 679 c 0
 744 679 780.333333333 662.666666667 805 630 c 0
 827.666666667 600 839 558 839 504 c 0
 839 480 837.166666667 458.166666667 833.5 438.5 c 128
 829.833333333 418.833333333 823.333333333 392.666666667 814 360 c 0
 814 350.666666667 818.333333333 339.666666667 827 327 c 0
 831.666666667 320.333333333 834 313.666666667 834 307 c 256
 834 300.333333333 831.5 294.5 826.5 289.5 c 128
 821.5 284.5 815.666666667 282 809 282 c 0
 799 282 790.833333333 286.833333333 784.5 296.5 c 128
 778.166666667 306.166666667 775.666666667 316 777 326 c 0
 779 337.333333333 784.666666667 360 794 394 c 128
 803.333333333 428 808 454.333333333 808 473 c 0
 808 509 799 537 781 557 c 128
 763 577 735.333333333 587 698 587 c 0
 662.666666667 587 636 578 618 560 c 128
 600 542 591 519 591 491 c 0
 591 465 598.333333333 442.666666667 613 424 c 1
 624.333333333 437.333333333 637.666666667 447.5 653 454.5 c 128
 668.333333333 461.5 684.666666667 465 702 465 c 0
 716 465 723 460.666666667 723 452 c 0
 723 448.666666667 721.333333333 444.333333333 718 439 c 0
 710 424.333333333 703.5 406.833333333 698.5 386.5 c 128
 693.5 366.166666667 691 345.333333333 691 324 c 2
 691 143 l 2
 691 95.6666666667 677.333333333 58.6666666667 650 32 c 128
 622.666666667 5.33333333333 587.333333333 -8 544 -8 c 1
 524 -5.33333333333 507.666666667 -3.66666666667 495 -3 c 0
 457 0.333333333333 424.333333333 2 397 2 c 0
 378.333333333 2 363 1 351 -1 c 0
 342.333333333 -2.33333333333 334.666666667 -1.33333333333 328 2 c 128
 321.333333333 5.33333333333 318 10.6666666667 318 18 c 0
 318 26.6666666667 325.666666667 38.3333333333 341 53 c 0
 351 61.6666666667 359 74 365 90 c 128
 371 106 374 125 374 147 c 0
 374 178.333333333 369 203 359 221 c 128
 349 239 335.333333333 248 318 248 c 0
 306 248 292.333333333 243 277 233 c 1
 275 132 l 2
 275 86 262.333333333 51 237 27 c 0
 215.666666667 6.33333333333 188.333333333 -4 155 -4 c 0
 141 -4 134 0.333333333333 134 9 c 0
 134 12.3333333333 135.666666667 16.6666666667 139 22 c 0
 147 36.6666666667 153.5 53.8333333333 158.5 73.5 c 128
 163.5 93.1666666667 166 113.666666667 166 135 c 0
 166 154.333333333 166.833333333 183.166666667 168.5 221.5 c 128
 170.166666667 259.833333333 171 280.333333333 171 283 c 0
 171 303 175 324 183 346 c 0
 189 363.333333333 198 381.666666667 210 401 c 1
 202 403 193.666666667 405 185 407 c 128
 176.333333333 409 165 410 151 410 c 0
 125 410 106 400.833333333 94 382.5 c 128
 82 364.166666667 76 331.666666667 76 285 c 0
 76 214.333333333 73.6666666667 159.166666667 69 119.5 c 128
 64.3333333333 79.8333333333 53.6666666667 44.6666666667 37 14 c 0
 31 3.33333333333 23.3333333333 -2 14 -2 c 256
 4.66666666667 -2 0 3 0 13 c 0
 0 18.3333333333 1.66666666667 23.6666666667 5 29 c 0
 17.6666666667 53 26 82.1666666667 30 116.5 c 128
 34 150.833333333 36 194.666666667 36 248 c 2
 36 305 l 2
 36 349 45.6666666667 384.166666667 65 410.5 c 128
 84.3333333333 436.833333333 113.666666667 450 153 450 c 0
 175.666666667 450 198.666666667 447 222 441 c 128
 245.333333333 435 264 432 278 432 c 0
 290 432 300 432.833333333 308 434.5 c 128
 316 436.166666667 324.666666667 440 334 446 c 0
 339.333333333 449.333333333 344.666666667 451 350 451 c 0
 359.333333333 451 364 446.333333333 364 437 c 0
 364 431.666666667 362.166666667 426.666666667 358.5 422 c 128
 354.833333333 417.333333333 349 413.333333333 341 410 c 0
 321 400.666666667 306.5 384.833333333 297.5 362.5 c 128
 288.5 340.166666667 282.333333333 310.333333333 279 273 c 1
 306.333333333 289 334 297 362 297 c 0
 397.333333333 297 425.666666667 285.333333333 447 262 c 0
 471 236 483 199.333333333 483 152 c 0
 483 128.666666667 473.666666667 105 455 81 c 0
 439.666666667 61.6666666667 424.666666667 48.3333333333 410 41 c 1
 423.333333333 39 434.833333333 37.3333333333 444.5 36 c 128
 454.166666667 34.6666666667 464 34 474 34 c 0
 488 34 500 35 510 37 c 128
 520 39 532.333333333 43.3333333333 547 50 c 128
 561.666666667 56.6666666667 571.666666667 74.3333333333 577 103 c 0
 580.333333333 121 582 145.333333333 582 176 c 2
 582 327 l 2
 582 353.666666667 586.666666667 377 596 397 c 1
EndSplineSet
EndChar

StartChar: u0B99_u0BC0
Encoding: 62 -1 62
Width: 838
Flags: HW
AnchorPoint: "V" 330 682.445 basechar 0
AnchorPoint: "N" 330 -1.57143 basechar 0
LayerCount: 2
Fore
SplineSet
373 578 m 0
 373 588.666666667 369.666666667 597.666666667 363 605 c 128
 356.333333333 612.333333333 347.666666667 616 337 616 c 256
 326.333333333 616 317.333333333 612.666666667 310 606 c 128
 302.666666667 599.333333333 299 590.666666667 299 580 c 256
 299 569.333333333 302.333333333 560.333333333 309 553 c 128
 315.666666667 545.666666667 324.333333333 542 335 542 c 0
 360.333333333 542 373 554 373 578 c 0
151 410 m 1
 125 410 106 400.833333333 94 382.5 c 128
 82 364.166666667 76 331.666666667 76 285 c 0
 76 214.333333333 73.6666666667 159.166666667 69 119.5 c 128
 64.3333333333 79.8333333333 53.6666666667 44.6666666667 37 14 c 0
 31 3.33333333333 23.3333333333 -2 14 -2 c 256
 4.66666666667 -2 0 3 0 13 c 0
 0 18.3333333333 1.66666666667 23.6666666667 5 29 c 0
 17.6666666667 53 26 82.1666666667 30 116.5 c 128
 34 150.833333333 36 194.666666667 36 248 c 2
 36 305 l 2
 36 349 45.6666666667 384.166666667 65 410.5 c 128
 84.3333333333 436.833333333 113.666666667 450 153 450 c 0
 163 450 171.333333333 449.833333333 178 449.5 c 128
 184.666666667 449.166666667 191.333333333 448.333333333 198 447 c 1
 190.666666667 458.333333333 184.666666667 471.5 180 486.5 c 128
 175.333333333 501.5 173 518 173 536 c 0
 173 576.666666667 187.666666667 610.666666667 217 638 c 0
 249 668 292.666666667 683 348 683 c 0
 382.666666667 683 413.166666667 674.333333333 439.5 657 c 128
 465.833333333 639.666666667 479 616.666666667 479 588 c 0
 479 566.666666667 471.666666667 547 457 529 c 0
 437 504.333333333 408.666666667 492 372 492 c 0
 334 492 306 500.666666667 288 518 c 0
 272.666666667 532.666666667 265 552 265 576 c 0
 265 584.666666667 267 595.666666667 271 609 c 1
 253 603.666666667 238.833333333 593 228.5 577 c 128
 218.166666667 561 213 544.666666667 213 528 c 256
 213 511.333333333 217.5 494.5 226.5 477.5 c 128
 235.5 460.5 247 445.666666667 261 433 c 1
 278 432 l 2
 290 432 300 432.833333333 308 434.5 c 128
 316 436.166666667 324.666666667 440 334 446 c 0
 339.333333333 449.333333333 344.666666667 451 350 451 c 0
 359.333333333 451 364 446.333333333 364 437 c 0
 364 431.666666667 362.166666667 426.666666667 358.5 422 c 128
 354.833333333 417.333333333 349 413.333333333 341 410 c 0
 321 400.666666667 306.5 384.833333333 297.5 362.5 c 128
 288.5 340.166666667 282.333333333 310.333333333 279 273 c 1
 306.333333333 289 334 297 362 297 c 0
 397.333333333 297 425.666666667 285.333333333 447 262 c 0
 471 236 483 199.333333333 483 152 c 0
 483 128.666666667 473.666666667 105 455 81 c 0
 439.666666667 61.6666666667 424.666666667 48.3333333333 410 41 c 1
 423.333333333 39 434.833333333 37.3333333333 444.5 36 c 128
 454.166666667 34.6666666667 464 34 474 34 c 0
 488 34 500 35 510 37 c 128
 520 39 532.333333333 43.3333333333 547 50 c 128
 561.666666667 56.6666666667 571.666666667 74.3333333333 577 103 c 0
 580.333333333 121 582 145.333333333 582 176 c 2
 582 327 l 2
 582 372.333333333 594.666666667 407.333333333 620 432 c 0
 642.666666667 454 670 465 702 465 c 0
 716 465 723 460.666666667 723 452 c 0
 723 448.666666667 721.333333333 444.333333333 718 439 c 0
 710 424.333333333 703.5 406.833333333 698.5 386.5 c 128
 693.5 366.166666667 691 345.333333333 691 324 c 2
 691 143 l 2
 691 95.6666666667 677.333333333 58.6666666667 650 32 c 128
 622.666666667 5.33333333333 587.333333333 -8 544 -8 c 1
 524 -5.33333333333 507.666666667 -3.66666666667 495 -3 c 0
 457 0.333333333333 424.333333333 2 397 2 c 0
 378.333333333 2 363 1 351 -1 c 0
 342.333333333 -2.33333333333 334.666666667 -1.33333333333 328 2 c 128
 321.333333333 5.33333333333 318 10.6666666667 318 18 c 0
 318 26.6666666667 325.666666667 38.3333333333 341 53 c 0
 351 61.6666666667 359 74 365 90 c 128
 371 106 374 125 374 147 c 0
 374 178.333333333 369 203 359 221 c 128
 349 239 335.333333333 248 318 248 c 0
 306 248 292.333333333 243 277 233 c 1
 275 132 l 2
 275 86 262.333333333 51 237 27 c 0
 215.666666667 6.33333333333 188.333333333 -4 155 -4 c 0
 141 -4 134 0.333333333333 134 9 c 0
 134 12.3333333333 135.666666667 16.6666666667 139 22 c 0
 147 36.6666666667 153.5 53.8333333333 158.5 73.5 c 128
 163.5 93.1666666667 166 113.666666667 166 135 c 0
 166 154.333333333 166.833333333 183.166666667 168.5 221.5 c 128
 170.166666667 259.833333333 171 280.333333333 171 283 c 2
 151 410 l 1
EndSplineSet
EndChar

StartChar: u0B99_u0BC1
Encoding: 63 -1 63
Width: 838
Flags: HW
AnchorPoint: "V" 330 455 basechar 0
AnchorPoint: "N" 330 -1.57143 basechar 0
LayerCount: 2
Fore
SplineSet
718 439 m 0
 709.333333333 423 702.833333333 405.5 698.5 386.5 c 128
 694.166666667 367.5 692 346.666666667 692 324 c 2
 691 -54 l 2
 691 -99.3333333333 678.333333333 -134.333333333 653 -159 c 0
 631 -180.333333333 603.666666667 -191 571 -191 c 0
 557 -191 550 -186.666666667 550 -178 c 0
 550 -174.666666667 551.666666667 -170.333333333 555 -165 c 0
 563 -150.333333333 569.5 -134.666666667 574.5 -118 c 128
 579.5 -101.333333333 582 -81 582 -57 c 2
 582 -4 l 1
 571.333333333 -6.66666666667 558.666666667 -8 544 -8 c 0
 524 -5.33333333333 507.666666667 -3.66666666667 495 -3 c 0
 457 0.333333333333 424.333333333 2 397 2 c 0
 378.333333333 2 363 1 351 -1 c 0
 342.333333333 -2.33333333333 334.666666667 -1.33333333333 328 2 c 128
 321.333333333 5.33333333333 318 10.6666666667 318 18 c 0
 318 26.6666666667 325.666666667 38.3333333333 341 53 c 0
 351 61.6666666667 359 74 365 90 c 128
 371 106 374 125 374 147 c 0
 374 178.333333333 369 203 359 221 c 128
 349 239 335.333333333 248 318 248 c 0
 306 248 292.333333333 243 277 233 c 1
 275 132 l 2
 275 86 262.333333333 51 237 27 c 0
 215.666666667 6.33333333333 188.333333333 -4 155 -4 c 0
 141 -4 134 0.333333333333 134 9 c 0
 134 12.3333333333 135.666666667 16.6666666667 139 22 c 0
 147 36.6666666667 153.5 53.8333333333 158.5 73.5 c 128
 163.5 93.1666666667 166 113.666666667 166 135 c 0
 166 154.333333333 166.833333333 183.166666667 168.5 221.5 c 128
 170.166666667 259.833333333 171 280.333333333 171 283 c 0
 171 303 175 324 183 346 c 0
 189 363.333333333 198 381.666666667 210 401 c 1
 202 403 193.666666667 405 185 407 c 128
 176.333333333 409 165 410 151 410 c 0
 125 410 106 400.833333333 94 382.5 c 128
 82 364.166666667 76 331.666666667 76 285 c 0
 76 214.333333333 73.6666666667 159.166666667 69 119.5 c 128
 64.3333333333 79.8333333333 53.6666666667 44.6666666667 37 14 c 0
 31 3.33333333333 23.3333333333 -2 14 -2 c 256
 4.66666666667 -2 0 3 0 13 c 0
 0 18.3333333333 1.66666666667 23.6666666667 5 29 c 0
 17.6666666667 53 26 82.1666666667 30 116.5 c 128
 34 150.833333333 36 194.666666667 36 248 c 2
 36 305 l 2
 36 349 45.6666666667 384.166666667 65 410.5 c 128
 84.3333333333 436.833333333 113.666666667 450 153 450 c 0
 175.666666667 450 198.666666667 447 222 441 c 128
 245.333333333 435 264 432 278 432 c 0
 290 432 300 432.833333333 308 434.5 c 128
 316 436.166666667 324.666666667 440 334 446 c 0
 339.333333333 449.333333333 344.666666667 451 350 451 c 0
 359.333333333 451 364 446.333333333 364 437 c 0
 364 431.666666667 362.166666667 426.666666667 358.5 422 c 128
 354.833333333 417.333333333 349 413.333333333 341 410 c 0
 321 400.666666667 306.5 384.833333333 297.5 362.5 c 128
 288.5 340.166666667 282.333333333 310.333333333 279 273 c 1
 306.333333333 289 334 297 362 297 c 0
 397.333333333 297 425.666666667 285.333333333 447 262 c 0
 471 236 483 199.333333333 483 152 c 0
 483 128.666666667 473.666666667 105 455 81 c 0
 439.666666667 61.6666666667 424.666666667 48.3333333333 410 41 c 1
 424 38.3333333333 436 36.3333333333 446 35 c 128
 456 33.6666666667 467 33 479 33 c 256
 491 33 502.166666667 34 512.5 36 c 128
 522.833333333 38 534 41.6666666667 546 47 c 128
 558 52.3333333333 567 62.6666666667 573 78 c 128
 579 93.3333333333 582 118.333333333 582 153 c 2
 582 176 l 1
 582 327 l 2
 582 372.333333333 594.666666667 407.333333333 620 432 c 0
 642.666666667 454 670 465 702 465 c 0
 716 465 723 460.666666667 723 452 c 0
 723 448.666666667 721.333333333 444.333333333 718 439 c 0
EndSplineSet
EndChar

StartChar: u0B99_u0BC2
Encoding: 64 -1 64
Width: 996
Flags: HW
AnchorPoint: "V" 330 455 basechar 0
AnchorPoint: "N" 330 -1.57143 basechar 0
LayerCount: 2
Fore
SplineSet
690 105 m 1
 707.333333333 115.666666667 729.333333333 121 756 121 c 0
 789.333333333 121 816.666666667 112 838 94 c 0
 863.333333333 72.6666666667 876 41.6666666667 876 1 c 0
 876 -92.3333333333 839 -158 765 -196 c 0
 699 -230 593 -247 447 -247 c 0
 358.333333333 -247 288 -240.666666667 236 -228 c 0
 161.333333333 -210 124 -179.666666667 124 -137 c 0
 124 -119.666666667 131.833333333 -105.166666667 147.5 -93.5 c 128
 163.166666667 -81.8333333333 183.666666667 -76 209 -76 c 0
 233.666666667 -76 260.666666667 -82.3333333333 290 -95 c 0
 296 -98.3333333333 299 -101.333333333 299 -104 c 0
 299 -108 294 -110 284 -110 c 0
 278 -110 273.333333333 -109.333333333 270 -108 c 0
 250 -102.666666667 231.333333333 -100 214 -100 c 0
 195.333333333 -100 180.666666667 -102.833333333 170 -108.5 c 128
 159.333333333 -114.166666667 154 -123.333333333 154 -136 c 0
 154 -168 189.666666667 -189 261 -199 c 0
 299.666666667 -204.333333333 362 -207 448 -207 c 0
 540.666666667 -207 615.333333333 -191 672 -159 c 0
 735.333333333 -123 767 -71 767 -3 c 0
 767 17.6666666667 762.666666667 34.3333333333 754 47 c 128
 745.333333333 59.6666666667 733.333333333 66 718 66 c 0
 708.666666667 66 699.333333333 63.6666666667 690 59 c 1
 690 27 l 2
 690 -18.3333333333 677.333333333 -53.3333333333 652 -78 c 0
 630 -99.3333333333 602.666666667 -110 570 -110 c 0
 556 -110 549 -105.666666667 549 -97 c 0
 549 -93.6666666667 550.666666667 -89.3333333333 554 -84 c 0
 572 -50 581 -22.3333333333 581 -1 c 1
 575.666666667 -4.33333333333 570.5 -6.33333333333 565.5 -7 c 128
 560.5 -7.66666666667 553.333333333 -8 544 -8 c 0
 524 -5.33333333333 507.666666667 -3.66666666667 495 -3 c 0
 457 0.333333333333 424.333333333 2 397 2 c 0
 378.333333333 2 363 1 351 -1 c 0
 342.333333333 -2.33333333333 334.666666667 -1.33333333333 328 2 c 128
 321.333333333 5.33333333333 318 10.6666666667 318 18 c 0
 318 26.6666666667 325.666666667 38.3333333333 341 53 c 0
 351 61.6666666667 359 74 365 90 c 128
 371 106 374 125 374 147 c 0
 374 178.333333333 369 203 359 221 c 128
 349 239 335.333333333 248 318 248 c 0
 306 248 292.333333333 243 277 233 c 1
 275 132 l 2
 275 86 262.333333333 51 237 27 c 0
 215.666666667 6.33333333333 188.333333333 -4 155 -4 c 0
 141 -4 134 0.333333333333 134 9 c 0
 134 12.3333333333 135.666666667 16.6666666667 139 22 c 0
 147 36.6666666667 153.5 53.8333333333 158.5 73.5 c 128
 163.5 93.1666666667 166 113.666666667 166 135 c 0
 166 154.333333333 166.833333333 183.166666667 168.5 221.5 c 128
 170.166666667 259.833333333 171 280.333333333 171 283 c 0
 171 303 175 324 183 346 c 0
 189 363.333333333 198 381.666666667 210 401 c 1
 202 403 193.666666667 405 185 407 c 128
 176.333333333 409 165 410 151 410 c 0
 125 410 106 400.833333333 94 382.5 c 128
 82 364.166666667 76 331.666666667 76 285 c 0
 76 214.333333333 73.6666666667 159.166666667 69 119.5 c 128
 64.3333333333 79.8333333333 53.6666666667 44.6666666667 37 14 c 0
 31 3.33333333333 23.3333333333 -2 14 -2 c 256
 4.66666666667 -2 0 3 0 13 c 0
 0 18.3333333333 1.66666666667 23.6666666667 5 29 c 0
 17.6666666667 53 26 82.1666666667 30 116.5 c 128
 34 150.833333333 36 194.666666667 36 248 c 2
 36 305 l 2
 36 349 45.6666666667 384.166666667 65 410.5 c 128
 84.3333333333 436.833333333 113.666666667 450 153 450 c 0
 175.666666667 450 198.666666667 447 222 441 c 128
 245.333333333 435 264 432 278 432 c 0
 290 432 300 432.833333333 308 434.5 c 128
 316 436.166666667 324.666666667 440 334 446 c 0
 339.333333333 449.333333333 344.666666667 451 350 451 c 0
 359.333333333 451 364 446.333333333 364 437 c 0
 364 431.666666667 362.166666667 426.666666667 358.5 422 c 128
 354.833333333 417.333333333 349 413.333333333 341 410 c 0
 321 400.666666667 306.5 384.833333333 297.5 362.5 c 128
 288.5 340.166666667 282.333333333 310.333333333 279 273 c 1
 306.333333333 289 334 297 362 297 c 0
 397.333333333 297 425.666666667 285.333333333 447 262 c 0
 471 236 483 199.333333333 483 152 c 0
 483 128.666666667 473.666666667 105 455 81 c 0
 439.666666667 61.6666666667 424.666666667 48.3333333333 410 41 c 1
 424 38.3333333333 436 36.3333333333 446 35 c 128
 456 33.6666666667 467 33 479 33 c 256
 491 33 502.166666667 34 512.5 36 c 128
 522.833333333 38 534 41.6666666667 546 47 c 128
 558 52.3333333333 567 62.6666666667 573 78 c 128
 579 93.3333333333 582 118.333333333 582 153 c 2
 582 176 l 1
 582 327 l 2
 582 372.333333333 594.666666667 407.333333333 620 432 c 0
 642.666666667 454 670 465 702 465 c 0
 716 465 723 460.666666667 723 452 c 0
 723 448.666666667 721.333333333 444.333333333 718 439 c 0
 709.333333333 423 702.833333333 405.5 698.5 386.5 c 128
 694.166666667 367.5 692 346.666666667 692 324 c 2
 690 105 l 1
EndSplineSet
EndChar

StartChar: u0B99_u0BCD
Encoding: 65 -1 65
Width: 838
Flags: HW
AnchorPoint: "N" 330 -1.57143 basechar 0
LayerCount: 2
Fore
SplineSet
392 587 m 0
 392 569.666666667 386 555 374 543 c 128
 362 531 347.333333333 525 330 525 c 256
 312.666666667 525 298 531 286 543 c 128
 274 555 268 569.666666667 268 587 c 256
 268 604.333333333 273.833333333 619.166666667 285.5 631.5 c 128
 297.166666667 643.833333333 312 650 330 650 c 0
 347.333333333 650 362 644 374 632 c 128
 386 620 392 605 392 587 c 0
718 439 m 0
 710 424.333333333 703.5 406.833333333 698.5 386.5 c 128
 693.5 366.166666667 691 345.333333333 691 324 c 2
 691 143 l 2
 691 95.6666666667 677.333333333 58.6666666667 650 32 c 128
 622.666666667 5.33333333333 587.333333333 -8 544 -8 c 1
 524 -5.33333333333 507.666666667 -3.66666666667 495 -3 c 0
 457 0.333333333333 424.333333333 2 397 2 c 0
 378.333333333 2 363 1 351 -1 c 0
 342.333333333 -2.33333333333 334.666666667 -1.33333333333 328 2 c 128
 321.333333333 5.33333333333 318 10.6666666667 318 18 c 0
 318 26.6666666667 325.666666667 38.3333333333 341 53 c 0
 351 61.6666666667 359 74 365 90 c 128
 371 106 374 125 374 147 c 0
 374 178.333333333 369 203 359 221 c 128
 349 239 335.333333333 248 318 248 c 0
 306 248 292.333333333 243 277 233 c 1
 275 132 l 2
 275 86 262.333333333 51 237 27 c 0
 215.666666667 6.33333333333 188.333333333 -4 155 -4 c 0
 141 -4 134 0.333333333333 134 9 c 0
 134 12.3333333333 135.666666667 16.6666666667 139 22 c 0
 147 36.6666666667 153.5 53.8333333333 158.5 73.5 c 128
 163.5 93.1666666667 166 113.666666667 166 135 c 0
 166 154.333333333 166.833333333 183.166666667 168.5 221.5 c 128
 170.166666667 259.833333333 171 280.333333333 171 283 c 0
 171 303 175 324 183 346 c 0
 189 363.333333333 198 381.666666667 210 401 c 1
 202 403 193.666666667 405 185 407 c 128
 176.333333333 409 165 410 151 410 c 0
 125 410 106 400.833333333 94 382.5 c 128
 82 364.166666667 76 331.666666667 76 285 c 0
 76 214.333333333 73.6666666667 159.166666667 69 119.5 c 128
 64.3333333333 79.8333333333 53.6666666667 44.6666666667 37 14 c 0
 31 3.33333333333 23.3333333333 -2 14 -2 c 256
 4.66666666667 -2 0 3 0 13 c 0
 0 18.3333333333 1.66666666667 23.6666666667 5 29 c 0
 17.6666666667 53 26 82.1666666667 30 116.5 c 128
 34 150.833333333 36 194.666666667 36 248 c 2
 36 305 l 2
 36 349 45.6666666667 384.166666667 65 410.5 c 128
 84.3333333333 436.833333333 113.666666667 450 153 450 c 0
 175.666666667 450 198.666666667 447 222 441 c 128
 245.333333333 435 264 432 278 432 c 0
 290 432 300 432.833333333 308 434.5 c 128
 316 436.166666667 324.666666667 440 334 446 c 0
 339.333333333 449.333333333 344.666666667 451 350 451 c 0
 359.333333333 451 364 446.333333333 364 437 c 0
 364 431.666666667 362.166666667 426.666666667 358.5 422 c 128
 354.833333333 417.333333333 349 413.333333333 341 410 c 0
 321 400.666666667 306.5 384.833333333 297.5 362.5 c 128
 288.5 340.166666667 282.333333333 310.333333333 279 273 c 1
 306.333333333 289 334 297 362 297 c 0
 397.333333333 297 425.666666667 285.333333333 447 262 c 0
 471 236 483 199.333333333 483 152 c 0
 483 128.666666667 473.666666667 105 455 81 c 0
 439.666666667 61.6666666667 424.666666667 48.3333333333 410 41 c 1
 423.333333333 39 434.833333333 37.3333333333 444.5 36 c 128
 454.166666667 34.6666666667 464 34 474 34 c 0
 488 34 500 35 510 37 c 128
 520 39 532.333333333 43.3333333333 547 50 c 128
 561.666666667 56.6666666667 571.666666667 74.3333333333 577 103 c 0
 580.333333333 121 582 145.333333333 582 176 c 2
 582 327 l 2
 582 372.333333333 594.666666667 407.333333333 620 432 c 0
 642.666666667 454 670 465 702 465 c 0
 716 465 723 460.666666667 723 452 c 0
 723 448.666666667 721.333333333 444.333333333 718 439 c 0
EndSplineSet
EndChar

StartChar: u0B99_u0BCD.alt
Encoding: 66 -1 66
Width: 680
Flags: HW
AnchorPoint: "N" 330 -1.57143 basechar 0
LayerCount: 2
Fore
SplineSet
600 0 m 1
 150 0 l 1
 150 30 l 1
 266 30 l 1
 292 40.6666666667 311.666666667 58.1666666667 325 82.5 c 128
 338.333333333 106.833333333 345 134.666666667 345 166 c 0
 345 192.666666667 338 213.333333333 324 228 c 128
 310 242.666666667 294 250 276 250 c 0
 263.333333333 250 252.5 246.666666667 243.5 240 c 128
 234.5 233.333333333 228.333333333 223.333333333 225 210 c 1
 225 130 l 1
 150 130 l 1
 150 415 l 1
 35 415 l 1
 35 0 l 1
 0 0 l 1
 0 450 l 1
 325 450 l 1
 325 415 l 1
 225 415 l 1
 225 267 l 1
 241 287 263.666666667 297 293 297 c 0
 324.333333333 297 351.666666667 285.666666667 375 263 c 0
 401.666666667 237 415 203.333333333 415 162 c 0
 415 127.333333333 408.666666667 99 396 77 c 128
 383.333333333 55 366 39.3333333333 344 30 c 1
 530 30 l 1
 530 450 l 1
 600 450 l 1
 600 0 l 1
355 582 m 256
 355 597.333333333 349.333333333 610.666666667 338 622 c 128
 326.666666667 633.333333333 313.333333333 639 298 639 c 256
 282.666666667 639 269.333333333 633.333333333 258 622 c 128
 246.666666667 610.666666667 241 597.333333333 241 582 c 256
 241 566.666666667 246.666666667 553.333333333 258 542 c 128
 269.333333333 530.666666667 282.666666667 525 298 525 c 256
 313.333333333 525 326.666666667 530.666666667 338 542 c 128
 349.333333333 553.333333333 355 566.666666667 355 582 c 256
298 676 m 256
 324 676 346.166666667 666.833333333 364.5 648.5 c 128
 382.833333333 630.166666667 392 608 392 582 c 256
 392 556 382.833333333 533.833333333 364.5 515.5 c 128
 346.166666667 497.166666667 324 488 298 488 c 256
 272 488 249.833333333 497.166666667 231.5 515.5 c 128
 213.166666667 533.833333333 204 556 204 582 c 256
 204 608 213.166666667 630.166666667 231.5 648.5 c 128
 249.833333333 666.833333333 272 676 298 676 c 256
EndSplineSet
EndChar

StartChar: u0B95_u0BB7
Encoding: 67 -1 67
Width: 1315
Flags: HW
AnchorPoint: "V" 330 455 basechar 0
AnchorPoint: "N" 330 -3.09524 basechar 0
LayerCount: 2
Fore
SplineSet
454 219 m 1
 439.333333333 202.333333333 428.333333333 183.833333333 421 163.5 c 128
 413.666666667 143.166666667 410 122.333333333 410 101 c 0
 410 60.3333333333 421 40 443 40 c 0
 453 40 463.166666667 48.3333333333 473.5 65 c 128
 483.833333333 81.6666666667 489 99.3333333333 489 118 c 0
 489 167.333333333 477.333333333 201 454 219 c 1
280 401 m 1
 270 404.333333333 262.166666667 406.666666667 256.5 408 c 128
 250.833333333 409.333333333 241 410 227 410 c 0
 210.333333333 410 197 407.833333333 187 403.5 c 128
 177 399.166666667 169 391.666666667 163 381 c 128
 157 370.333333333 152.666666667 355.666666667 150 337 c 128
 147.333333333 318.333333333 146 297.333333333 146 274 c 1
 166 278 197.666666667 280 241 280 c 1
 243.666666667 300 245.666666667 313.666666667 247 321 c 128
 248.333333333 328.333333333 250.666666667 337.333333333 254 348 c 128
 257.333333333 358.666666667 261 368 265 376 c 0
 268 381 268 381 280 401 c 1
240 241 m 1
 220 241 204.333333333 240 193 238 c 128
 181.666666667 236 171 231.666666667 161 225 c 0
 141 212.333333333 127.5 198.166666667 120.5 182.5 c 128
 113.5 166.833333333 110 146.666666667 110 122 c 0
 110 90 115 68.3333333333 125 57 c 128
 135 45.6666666667 150.333333333 40 171 40 c 0
 198.333333333 40 217 51.3333333333 227 74 c 0
 233.666666667 89.3333333333 237 112.666666667 237 144 c 2
 237 165 l 1
 240 241 l 1
959 180 m 1
 973.666666667 209.333333333 987 239 999 269 c 0
 1008.33333333 293.666666667 1014.66666667 312 1018 324 c 0
 1018.66666667 328.666666667 1019.5 333.5 1020.5 338.5 c 128
 1021.5 343.5 1022 349.333333333 1022 356 c 0
 1022 372 1019 384.333333333 1013 393 c 0
 1005 404.333333333 992.333333333 410 975 410 c 0
 953 410 933.666666667 396.833333333 917 370.5 c 128
 900.333333333 344.166666667 892 313.666666667 892 279 c 0
 892 262.333333333 899.333333333 244.333333333 914 225 c 0
 925.333333333 209.666666667 940.333333333 194.666666667 959 180 c 1
1003 40 m 1
 1008.33333333 38 1014.83333333 36.6666666667 1022.5 36 c 128
 1030.16666667 35.3333333333 1039.33333333 35 1050 35 c 0
 1060 35 1060 35 1070 35 c 128
 1076.66666667 35 1083.33333333 35.3333333333 1090 36 c 0
 1106.66666667 36 1115 39 1115 45 c 0
 1115 50.3333333333 1108 56.6666666667 1094 64 c 0
 1071.33333333 75.3333333333 1049.33333333 84 1028 90 c 1
 1003 40 l 1
620 0 m 0
 614 0 609 2 605 6 c 128
 601 10 599 15 599 21 c 0
 599 31 605.666666667 37.3333333333 619 40 c 0
 643.666666667 46 661.666666667 56 673 70 c 0
 688.333333333 88.6666666667 696 118 696 158 c 0
 696 191.333333333 683.666666667 220.666666667 659 246 c 0
 637 268.666666667 614.666666667 280 592 280 c 0
 558.666666667 280 529 272.666666667 503 258 c 1
 534.333333333 248 558.166666667 233.5 574.5 214.5 c 128
 590.833333333 195.5 599 170 599 138 c 0
 599 107.333333333 590 78.6666666667 572 52 c 0
 546.666666667 14.6666666667 511.333333333 -4 466 -4 c 0
 436.666666667 -4 412.333333333 7.66666666667 393 31 c 0
 377.666666667 49.6666666667 370 73.6666666667 370 103 c 0
 370 131 373.666666667 155.5 381 176.5 c 128
 388.333333333 197.5 399 217 413 235 c 1
 408.333333333 236.333333333 403.666666667 237.5 399 238.5 c 128
 394.333333333 239.5 377 240 347 240 c 1
 346 162 l 2
 346 111.333333333 332.666666667 71.6666666667 306 43 c 128
 279.333333333 14.3333333333 239 0 185 0 c 0
 128.333333333 0 83.3333333333 10.3333333333 50 31 c 128
 16.6666666667 51.6666666667 0 81 0 119 c 0
 0 157.666666667 8.33333333333 189 25 213 c 128
 41.6666666667 237 69 254.666666667 107 266 c 1
 107 305 l 2
 107 349 115.666666667 383 133 407 c 0
 153.666666667 435.666666667 185.666666667 450 229 450 c 0
 250.333333333 450 268.333333333 448.333333333 283 445 c 0
 320.333333333 436.333333333 342.333333333 432 349 432 c 0
 361 432 371 432.833333333 379 434.5 c 128
 387 436.166666667 395.666666667 440 405 446 c 0
 410.333333333 449.333333333 415.666666667 451 421 451 c 0
 430.333333333 451 435 446.333333333 435 437 c 0
 435 431.666666667 433.166666667 426.666666667 429.5 422 c 128
 425.833333333 417.333333333 419 412.833333333 409 408.5 c 128
 399 404.166666667 390.166666667 397.333333333 382.5 388 c 128
 374.833333333 378.666666667 368.333333333 367 363 353 c 0
 360.333333333 346.333333333 357.5 334.666666667 354.5 318 c 128
 351.5 301.333333333 349.666666667 288.666666667 349 280 c 1
 375 280 399 278.666666667 421 276 c 0
 429 275.333333333 438.666666667 273.666666667 450 271 c 1
 470.666666667 287 494.166666667 299.166666667 520.5 307.5 c 128
 546.833333333 315.833333333 571.666666667 320 595 320 c 0
 656.333333333 320 706.833333333 304.5 746.5 273.5 c 128
 786.166666667 242.5 806 203 806 155 c 0
 806 134.333333333 802 114.666666667 794 96 c 128
 786 77.3333333333 774 58.6666666667 758 40 c 1
 764 41.3333333333 772.166666667 42.3333333333 782.5 43 c 128
 792.833333333 43.6666666667 803.333333333 44 814 44 c 0
 829.333333333 44 843.5 43.6666666667 856.5 43 c 128
 869.5 42.3333333333 881.333333333 41.3333333333 892 40 c 1
 900 50.6666666667 909 67.3333333333 919 90 c 128
 929 112.666666667 936.333333333 129.666666667 941 141 c 1
 914.333333333 160.333333333 894 179.666666667 880 199 c 0
 861.333333333 225 852 253.333333333 852 284 c 0
 852 328.666666667 863.666666667 367.5 887 400.5 c 128
 910.333333333 433.5 941.666666667 450 981 450 c 0
 1031 450 1068.66666667 438.333333333 1094 415 c 0
 1116.66666667 394.333333333 1128 366 1128 330 c 0
 1128 304 1120 272.666666667 1104 236 c 0
 1099.33333333 226 1081 190.333333333 1049 129 c 1
 1110.33333333 101 1143.66666667 85.6666666667 1149 83 c 0
 1179.66666667 66.3333333333 1195 49.6666666667 1195 33 c 0
 1195 23 1190.5 14.8333333333 1181.5 8.5 c 128
 1172.5 2.16666666667 1160.33333333 -1 1145 -1 c 0
 1140.33333333 -0.333333333333 1136.66666667 0 1134 0 c 2
 983 -1 l 1
 966.333333333 -37 952 -74 940 -112 c 0
 935.333333333 -128 933 -142.333333333 933 -155 c 0
 933 -163 934 -172 936 -182 c 128
 938 -192 939.333333333 -199.166666667 940 -203.5 c 128
 940.666666667 -207.833333333 941 -212 941 -216 c 0
 941 -218.666666667 940 -220.666666667 938 -222 c 128
 936 -223.333333333 932 -224 926 -224 c 0
 902.666666667 -224 884.666666667 -218.666666667 872 -208 c 0
 850 -189.333333333 839 -156 839 -108 c 0
 839 -96 842.666666667 -80 850 -60 c 128
 857.333333333 -40 865 -20.3333333333 873 -1 c 1
 851 -1 851 -1 837 -1 c 0
 749.666666667 1 702.333333333 2 695 2 c 0
 683.666666667 2 671.666666667 1.83333333333 659 1.5 c 128
 646.333333333 1.16666666667 633.333333333 0.666666666667 620 0 c 0
EndSplineSet
EndChar

StartChar: u0B95_u0BB7_u0BBF
Encoding: 68 -1 68
Width: 1379
Flags: HW
AnchorPoint: "V" 330 455 basechar 0
AnchorPoint: "N" 330 -3.09524 basechar 0
LayerCount: 2
Fore
SplineSet
454 219 m 1
 439.333333333 202.333333333 428.333333333 183.833333333 421 163.5 c 128
 413.666666667 143.166666667 410 122.333333333 410 101 c 0
 410 60.3333333333 421 40 443 40 c 0
 453 40 463.166666667 48.3333333333 473.5 65 c 128
 483.833333333 81.6666666667 489 99.3333333333 489 118 c 0
 489 167.333333333 477.333333333 201 454 219 c 1
280 401 m 1
 270 404.333333333 262.166666667 406.666666667 256.5 408 c 128
 250.833333333 409.333333333 241 410 227 410 c 0
 210.333333333 410 197 407.833333333 187 403.5 c 128
 177 399.166666667 169 391.666666667 163 381 c 128
 157 370.333333333 152.666666667 355.666666667 150 337 c 128
 147.333333333 318.333333333 146 297.333333333 146 274 c 1
 166 278 197.666666667 280 241 280 c 1
 243.666666667 300 245.666666667 313.666666667 247 321 c 128
 248.333333333 328.333333333 250.666666667 337.333333333 254 348 c 128
 257.333333333 358.666666667 261 368 265 376 c 0
 268 381 268 381 280 401 c 1
240 241 m 1
 220 241 204.333333333 240 193 238 c 128
 181.666666667 236 171 231.666666667 161 225 c 0
 141 212.333333333 127.5 198.166666667 120.5 182.5 c 128
 113.5 166.833333333 110 146.666666667 110 122 c 0
 110 90 115 68.3333333333 125 57 c 128
 135 45.6666666667 150.333333333 40 171 40 c 0
 198.333333333 40 217 51.3333333333 227 74 c 0
 233.666666667 89.3333333333 237 112.666666667 237 144 c 2
 237 165 l 1
 240 241 l 1
959 180 m 1
 973.666666667 209.333333333 987 239 999 269 c 0
 1008.33333333 293.666666667 1014.66666667 312 1018 324 c 0
 1018.66666667 328.666666667 1019.5 333.5 1020.5 338.5 c 128
 1021.5 343.5 1022 349.333333333 1022 356 c 0
 1022 372 1019 384.333333333 1013 393 c 0
 1005 404.333333333 992.333333333 410 975 410 c 0
 953 410 933.666666667 396.833333333 917 370.5 c 128
 900.333333333 344.166666667 892 313.666666667 892 279 c 0
 892 262.333333333 899.333333333 244.333333333 914 225 c 0
 925.333333333 209.666666667 940.333333333 194.666666667 959 180 c 1
1003 40 m 1
 1008.33333333 38 1014.83333333 36.6666666667 1022.5 36 c 128
 1030.16666667 35.3333333333 1039.33333333 35 1050 35 c 0
 1060 35 1060 35 1070 35 c 128
 1076.66666667 35 1083.33333333 35.3333333333 1090 36 c 0
 1106.66666667 36 1115 39 1115 45 c 0
 1115 50.3333333333 1108 56.6666666667 1094 64 c 0
 1071.33333333 75.3333333333 1049.33333333 84 1028 90 c 1
 1003 40 l 1
968 533 m 0
 968 576.333333333 979.333333333 610.666666667 1002 636 c 0
 1028 664.666666667 1066 679 1116 679 c 0
 1164 679 1200.33333333 662.666666667 1225 630 c 0
 1247.66666667 600 1259 558 1259 504 c 0
 1259 480 1257.16666667 458.166666667 1253.5 438.5 c 128
 1249.83333333 418.833333333 1243.33333333 392.666666667 1234 360 c 0
 1234 350.666666667 1238.33333333 339.666666667 1247 327 c 0
 1251.66666667 320.333333333 1254 313.666666667 1254 307 c 0
 1254 299.666666667 1252.16666667 293.166666667 1248.5 287.5 c 128
 1244.83333333 281.833333333 1239.33333333 279 1232 279 c 0
 1222 279 1213.33333333 284.333333333 1206 295 c 128
 1198.66666667 305.666666667 1195.66666667 316 1197 326 c 0
 1199 337.333333333 1204.66666667 360 1214 394 c 128
 1223.33333333 428 1228 454.333333333 1228 473 c 0
 1228 509 1219 537 1201 557 c 128
 1183 577 1155.33333333 587 1118 587 c 0
 1082.66666667 587 1056 578 1038 560 c 128
 1020 542 1011 519 1011 491 c 0
 1011 476.333333333 1014 462 1020 448 c 1
 1056 442 1083 428.333333333 1101 407 c 128
 1119 385.666666667 1128 360 1128 330 c 0
 1128 304 1120 272.666666667 1104 236 c 0
 1099.33333333 226 1081 190.333333333 1049 129 c 1
 1110.33333333 101 1143.66666667 85.6666666667 1149 83 c 0
 1179.66666667 66.3333333333 1195 49.6666666667 1195 33 c 0
 1195 23 1190.5 14.8333333333 1181.5 8.5 c 128
 1172.5 2.16666666667 1160.33333333 -1 1145 -1 c 0
 1140.33333333 -0.333333333333 1136.66666667 0 1134 0 c 2
 983 -1 l 1
 966.333333333 -37 952 -74 940 -112 c 0
 935.333333333 -128 933 -142.333333333 933 -155 c 0
 933 -163 934 -172 936 -182 c 128
 938 -192 939.333333333 -199.166666667 940 -203.5 c 128
 940.666666667 -207.833333333 941 -212 941 -216 c 0
 941 -218.666666667 940 -220.666666667 938 -222 c 128
 936 -223.333333333 932 -224 926 -224 c 0
 902.666666667 -224 884.666666667 -218.666666667 872 -208 c 0
 850 -189.333333333 839 -156 839 -108 c 0
 839 -96 842.666666667 -80 850 -60 c 128
 857.333333333 -40 865 -20.3333333333 873 -1 c 1
 851 -1 851 -1 837 -1 c 0
 749.666666667 1 702.333333333 2 695 2 c 0
 683.666666667 2 671.666666667 1.83333333333 659 1.5 c 128
 646.333333333 1.16666666667 633.333333333 0.666666666667 620 0 c 0
 614 0 609 2 605 6 c 128
 601 10 599 15 599 21 c 0
 599 31 605.666666667 37.3333333333 619 40 c 0
 643.666666667 46 661.666666667 56 673 70 c 0
 688.333333333 88.6666666667 696 118 696 158 c 0
 696 191.333333333 683.666666667 220.666666667 659 246 c 0
 637 268.666666667 614.666666667 280 592 280 c 0
 558.666666667 280 529 272.666666667 503 258 c 1
 534.333333333 248 558.166666667 233.5 574.5 214.5 c 128
 590.833333333 195.5 599 170 599 138 c 0
 599 107.333333333 590 78.6666666667 572 52 c 0
 546.666666667 14.6666666667 511.333333333 -4 466 -4 c 0
 436.666666667 -4 412.333333333 7.66666666667 393 31 c 0
 377.666666667 49.6666666667 370 73.6666666667 370 103 c 0
 370 131 373.666666667 155.5 381 176.5 c 128
 388.333333333 197.5 399 217 413 235 c 1
 408.333333333 236.333333333 403.666666667 237.5 399 238.5 c 128
 394.333333333 239.5 377 240 347 240 c 1
 346 162 l 2
 346 111.333333333 332.666666667 71.6666666667 306 43 c 128
 279.333333333 14.3333333333 239 0 185 0 c 0
 128.333333333 0 83.3333333333 10.3333333333 50 31 c 128
 16.6666666667 51.6666666667 0 81 0 119 c 0
 0 157.666666667 8.33333333333 189 25 213 c 128
 41.6666666667 237 69 254.666666667 107 266 c 1
 107 305 l 2
 107 349 115.666666667 383 133 407 c 0
 153.666666667 435.666666667 185.666666667 450 229 450 c 0
 250.333333333 450 268.333333333 448.333333333 283 445 c 0
 320.333333333 436.333333333 342.333333333 432 349 432 c 0
 361 432 371 432.833333333 379 434.5 c 128
 387 436.166666667 395.666666667 440 405 446 c 0
 410.333333333 449.333333333 415.666666667 451 421 451 c 0
 430.333333333 451 435 446.333333333 435 437 c 0
 435 431.666666667 433.166666667 426.666666667 429.5 422 c 128
 425.833333333 417.333333333 419 412.833333333 409 408.5 c 128
 399 404.166666667 390.166666667 397.333333333 382.5 388 c 128
 374.833333333 378.666666667 368.333333333 367 363 353 c 0
 360.333333333 346.333333333 357.5 334.666666667 354.5 318 c 128
 351.5 301.333333333 349.666666667 288.666666667 349 280 c 1
 375 280 399 278.666666667 421 276 c 0
 429 275.333333333 438.666666667 273.666666667 450 271 c 1
 470.666666667 287 494.166666667 299.166666667 520.5 307.5 c 128
 546.833333333 315.833333333 571.666666667 320 595 320 c 0
 656.333333333 320 706.833333333 304.5 746.5 273.5 c 128
 786.166666667 242.5 806 203 806 155 c 0
 806 134.333333333 802 114.666666667 794 96 c 128
 786 77.3333333333 774 58.6666666667 758 40 c 1
 764 41.3333333333 772.166666667 42.3333333333 782.5 43 c 128
 792.833333333 43.6666666667 803.333333333 44 814 44 c 0
 829.333333333 44 843.5 43.6666666667 856.5 43 c 128
 869.5 42.3333333333 881.333333333 41.3333333333 892 40 c 1
 900 50.6666666667 909 67.3333333333 919 90 c 128
 929 112.666666667 936.333333333 129.666666667 941 141 c 1
 914.333333333 160.333333333 894 179.666666667 880 199 c 0
 861.333333333 225 852 253.333333333 852 284 c 0
 852 328.666666667 864 367.5 888 400.5 c 128
 912 433.5 943.666666667 450 983 450 c 1
 979.666666667 460.666666667 976.333333333 473.666666667 973 489 c 128
 969.666666667 504.333333333 968 519 968 533 c 0
EndSplineSet
EndChar

StartChar: u0B95_u0BB7_u0BC0
Encoding: 69 -1 69
Width: 1389
Flags: HW
AnchorPoint: "V" 330 455 basechar 0
AnchorPoint: "N" 330 -3.09524 basechar 0
LayerCount: 2
Fore
SplineSet
1269 588 m 0
 1269 566.666666667 1261.66666667 547 1247 529 c 0
 1227 504.333333333 1198.66666667 492 1162 492 c 0
 1124.66666667 492 1096.66666667 501 1078 519 c 0
 1063.33333333 533.666666667 1056 552.666666667 1056 576 c 0
 1056 586.666666667 1057.66666667 597.666666667 1061 609 c 1
 1043 603.666666667 1028.83333333 593 1018.5 577 c 128
 1008.16666667 561 1003 544.666666667 1003 528 c 0
 1003 512.666666667 1006.33333333 497.833333333 1013 483.5 c 128
 1019.66666667 469.166666667 1028.66666667 455.666666667 1040 443 c 1
 1069.33333333 435 1091.33333333 421 1106 401 c 128
 1120.66666667 381 1128 357.333333333 1128 330 c 0
 1128 304 1120 272.666666667 1104 236 c 0
 1099.33333333 226 1081 190.333333333 1049 129 c 1
 1110.33333333 101 1143.66666667 85.6666666667 1149 83 c 0
 1179.66666667 66.3333333333 1195 49.6666666667 1195 33 c 0
 1195 23 1190.5 14.8333333333 1181.5 8.5 c 128
 1172.5 2.16666666667 1160.33333333 -1 1145 -1 c 0
 1140.33333333 -0.333333333333 1136.66666667 0 1134 0 c 2
 983 -1 l 1
 966.333333333 -37 952 -74 940 -112 c 0
 935.333333333 -128 933 -142.333333333 933 -155 c 0
 933 -163 934 -172 936 -182 c 128
 938 -192 939.333333333 -199.166666667 940 -203.5 c 128
 940.666666667 -207.833333333 941 -212 941 -216 c 0
 941 -218.666666667 940 -220.666666667 938 -222 c 128
 936 -223.333333333 932 -224 926 -224 c 0
 902.666666667 -224 884.666666667 -218.666666667 872 -208 c 0
 850 -189.333333333 839 -156 839 -108 c 0
 839 -96 842.666666667 -80 850 -60 c 128
 857.333333333 -40 865 -20.3333333333 873 -1 c 1
 851 -1 851 -1 837 -1 c 0
 749.666666667 1 702.333333333 2 695 2 c 0
 683.666666667 2 671.666666667 1.83333333333 659 1.5 c 128
 646.333333333 1.16666666667 633.333333333 0.666666666667 620 0 c 0
 614 0 609 2 605 6 c 128
 601 10 599 15 599 21 c 0
 599 31 605.666666667 37.3333333333 619 40 c 0
 643.666666667 46 661.666666667 56 673 70 c 0
 688.333333333 88.6666666667 696 118 696 158 c 0
 696 191.333333333 683.666666667 220.666666667 659 246 c 0
 637 268.666666667 614.666666667 280 592 280 c 0
 558.666666667 280 529 272.666666667 503 258 c 1
 534.333333333 248 558.166666667 233.5 574.5 214.5 c 128
 590.833333333 195.5 599 170 599 138 c 0
 599 107.333333333 590 78.6666666667 572 52 c 0
 546.666666667 14.6666666667 511.333333333 -4 466 -4 c 0
 436.666666667 -4 412.333333333 7.66666666667 393 31 c 0
 377.666666667 49.6666666667 370 73.6666666667 370 103 c 0
 370 131 373.666666667 155.5 381 176.5 c 128
 388.333333333 197.5 399 217 413 235 c 1
 408.333333333 236.333333333 403.666666667 237.5 399 238.5 c 128
 394.333333333 239.5 377 240 347 240 c 1
 346 162 l 2
 346 111.333333333 332.666666667 71.6666666667 306 43 c 128
 279.333333333 14.3333333333 239 0 185 0 c 0
 128.333333333 0 83.3333333333 10.3333333333 50 31 c 128
 16.6666666667 51.6666666667 0 81 0 119 c 0
 0 157.666666667 8.33333333333 189 25 213 c 128
 41.6666666667 237 69 254.666666667 107 266 c 1
 107 305 l 2
 107 349 115.666666667 383 133 407 c 0
 153.666666667 435.666666667 185.666666667 450 229 450 c 0
 250.333333333 450 268.333333333 448.333333333 283 445 c 0
 320.333333333 436.333333333 342.333333333 432 349 432 c 0
 361 432 371 432.833333333 379 434.5 c 128
 387 436.166666667 395.666666667 440 405 446 c 0
 410.333333333 449.333333333 415.666666667 451 421 451 c 0
 430.333333333 451 435 446.333333333 435 437 c 0
 435 431.666666667 433.166666667 426.666666667 429.5 422 c 128
 425.833333333 417.333333333 419 412.833333333 409 408.5 c 128
 399 404.166666667 390.166666667 397.333333333 382.5 388 c 128
 374.833333333 378.666666667 368.333333333 367 363 353 c 0
 360.333333333 346.333333333 357.5 334.666666667 354.5 318 c 128
 351.5 301.333333333 349.666666667 288.666666667 349 280 c 1
 375 280 399 278.666666667 421 276 c 0
 429 275.333333333 438.666666667 273.666666667 450 271 c 1
 470.666666667 287 494.166666667 299.166666667 520.5 307.5 c 128
 546.833333333 315.833333333 571.666666667 320 595 320 c 0
 656.333333333 320 706.833333333 304.5 746.5 273.5 c 128
 786.166666667 242.5 806 203 806 155 c 0
 806 134.333333333 802 114.666666667 794 96 c 128
 786 77.3333333333 774 58.6666666667 758 40 c 1
 764 41.3333333333 772.166666667 42.3333333333 782.5 43 c 128
 792.833333333 43.6666666667 803.333333333 44 814 44 c 0
 829.333333333 44 843.5 43.6666666667 856.5 43 c 128
 869.5 42.3333333333 881.333333333 41.3333333333 892 40 c 1
 900 50.6666666667 909 67.3333333333 919 90 c 128
 929 112.666666667 936.333333333 129.666666667 941 141 c 1
 914.333333333 160.333333333 894 179.666666667 880 199 c 0
 861.333333333 225 852 253.333333333 852 284 c 0
 852 328.666666667 863.666666667 367.5 887 400.5 c 128
 910.333333333 433.5 941.666666667 450 981 450 c 2
 986 450 l 1
 970.666666667 474 963 502.666666667 963 536 c 0
 963 576.666666667 977.666666667 610.666666667 1007 638 c 0
 1039 668 1082.66666667 683 1138 683 c 0
 1172.66666667 683 1203.16666667 674.333333333 1229.5 657 c 128
 1255.83333333 639.666666667 1269 616.666666667 1269 588 c 0
1163 578 m 0
 1163 588.666666667 1159.66666667 597.666666667 1153 605 c 128
 1146.33333333 612.333333333 1137.66666667 616 1127 616 c 256
 1116.33333333 616 1107.33333333 612.666666667 1100 606 c 128
 1092.66666667 599.333333333 1089 590.666666667 1089 580 c 256
 1089 569.333333333 1092.33333333 560.333333333 1099 553 c 128
 1105.66666667 545.666666667 1114.33333333 542 1125 542 c 0
 1150.33333333 542 1163 554 1163 578 c 0
1018 324 m 0
 1018.66666667 328.666666667 1019.5 333.5 1020.5 338.5 c 128
 1021.5 343.5 1022 349.333333333 1022 356 c 0
 1022 372 1019 384.333333333 1013 393 c 0
 1005 404.333333333 992.333333333 410 975 410 c 0
 953 410 933.666666667 396.833333333 917 370.5 c 128
 900.333333333 344.166666667 892 313.666666667 892 279 c 0
 892 262.333333333 899.333333333 244.333333333 914 225 c 0
 925.333333333 209.666666667 940.333333333 194.666666667 959 180 c 1
 973.666666667 209.333333333 987 239 999 269 c 0
 1008.33333333 293.666666667 1014.66666667 312 1018 324 c 0
1094 64 m 0
 1071.33333333 75.3333333333 1049.33333333 84 1028 90 c 1
 1003 40 l 1
 1008.33333333 38 1014.83333333 36.6666666667 1022.5 36 c 128
 1030.16666667 35.3333333333 1039.33333333 35 1050 35 c 0
 1060 35 1060 35 1070 35 c 128
 1076.66666667 35 1083.33333333 35.3333333333 1090 36 c 0
 1106.66666667 36 1115 39 1115 45 c 0
 1115 50.3333333333 1108 56.6666666667 1094 64 c 0
489 118 m 0
 489 167.333333333 477.333333333 201 454 219 c 1
 439.333333333 202.333333333 428.333333333 183.833333333 421 163.5 c 128
 413.666666667 143.166666667 410 122.333333333 410 101 c 0
 410 60.3333333333 421 40 443 40 c 0
 453 40 463.166666667 48.3333333333 473.5 65 c 128
 483.833333333 81.6666666667 489 99.3333333333 489 118 c 0
280 401 m 1
 270 404.333333333 262.166666667 406.666666667 256.5 408 c 128
 250.833333333 409.333333333 241 410 227 410 c 0
 210.333333333 410 197 407.833333333 187 403.5 c 128
 177 399.166666667 169 391.666666667 163 381 c 128
 157 370.333333333 152.666666667 355.666666667 150 337 c 128
 147.333333333 318.333333333 146 297.333333333 146 274 c 1
 166 278 197.666666667 280 241 280 c 1
 243.666666667 300 245.666666667 313.666666667 247 321 c 128
 248.333333333 328.333333333 250.666666667 337.333333333 254 348 c 128
 257.333333333 358.666666667 261 368 265 376 c 0
 268 381 268 381 280 401 c 1
240 241 m 1
 220 241 204.333333333 240 193 238 c 128
 181.666666667 236 171 231.666666667 161 225 c 0
 141 212.333333333 127.5 198.166666667 120.5 182.5 c 128
 113.5 166.833333333 110 146.666666667 110 122 c 0
 110 90 115 68.3333333333 125 57 c 128
 135 45.6666666667 150.333333333 40 171 40 c 0
 198.333333333 40 217 51.3333333333 227 74 c 0
 233.666666667 89.3333333333 237 112.666666667 237 144 c 2
 237 165 l 1
 240 241 l 1
EndSplineSet
EndChar

StartChar: u0B95_u0BB7_u0BCD
Encoding: 70 -1 70
Width: 1315
Flags: HW
AnchorPoint: "N" 330 -3.09524 basechar 0
LayerCount: 2
Fore
SplineSet
454 219 m 1
 439.333333333 202.333333333 428.333333333 183.833333333 421 163.5 c 128
 413.666666667 143.166666667 410 122.333333333 410 101 c 0
 410 60.3333333333 421 40 443 40 c 0
 453 40 463.166666667 48.3333333333 473.5 65 c 128
 483.833333333 81.6666666667 489 99.3333333333 489 118 c 0
 489 167.333333333 477.333333333 201 454 219 c 1
280 401 m 1
 270 404.333333333 262.166666667 406.666666667 256.5 408 c 128
 250.833333333 409.333333333 241 410 227 410 c 0
 210.333333333 410 197 407.833333333 187 403.5 c 128
 177 399.166666667 169 391.666666667 163 381 c 128
 157 370.333333333 152.666666667 355.666666667 150 337 c 128
 147.333333333 318.333333333 146 297.333333333 146 274 c 1
 166 278 197.666666667 280 241 280 c 1
 243.666666667 300 245.666666667 313.666666667 247 321 c 128
 248.333333333 328.333333333 250.666666667 337.333333333 254 348 c 128
 257.333333333 358.666666667 261 368 265 376 c 0
 268 381 268 381 280 401 c 1
240 241 m 1
 220 241 204.333333333 240 193 238 c 128
 181.666666667 236 171 231.666666667 161 225 c 0
 141 212.333333333 127.5 198.166666667 120.5 182.5 c 128
 113.5 166.833333333 110 146.666666667 110 122 c 0
 110 90 115 68.3333333333 125 57 c 128
 135 45.6666666667 150.333333333 40 171 40 c 0
 198.333333333 40 217 51.3333333333 227 74 c 0
 233.666666667 89.3333333333 237 112.666666667 237 144 c 2
 237 165 l 1
 240 241 l 1
959 180 m 1
 973.666666667 209.333333333 987 239 999 269 c 0
 1008.33333333 293.666666667 1014.66666667 312 1018 324 c 0
 1018.66666667 328.666666667 1019.5 333.5 1020.5 338.5 c 128
 1021.5 343.5 1022 349.333333333 1022 356 c 0
 1022 372 1019 384.333333333 1013 393 c 0
 1005 404.333333333 992.333333333 410 975 410 c 0
 953 410 933.666666667 396.833333333 917 370.5 c 128
 900.333333333 344.166666667 892 313.666666667 892 279 c 0
 892 262.333333333 899.333333333 244.333333333 914 225 c 0
 925.333333333 209.666666667 940.333333333 194.666666667 959 180 c 1
1003 40 m 1
 1008.33333333 38 1014.83333333 36.6666666667 1022.5 36 c 128
 1030.16666667 35.3333333333 1039.33333333 35 1050 35 c 0
 1060 35 1060 35 1070 35 c 128
 1076.66666667 35 1083.33333333 35.3333333333 1090 36 c 0
 1106.66666667 36 1115 39 1115 45 c 0
 1115 50.3333333333 1108 56.6666666667 1094 64 c 0
 1071.33333333 75.3333333333 1049.33333333 84 1028 90 c 1
 1003 40 l 1
620 0 m 0
 614 0 609 2 605 6 c 128
 601 10 599 15 599 21 c 0
 599 31 605.666666667 37.3333333333 619 40 c 0
 643.666666667 46 661.666666667 56 673 70 c 0
 688.333333333 88.6666666667 696 118 696 158 c 0
 696 191.333333333 683.666666667 220.666666667 659 246 c 0
 637 268.666666667 614.666666667 280 592 280 c 0
 558.666666667 280 529 272.666666667 503 258 c 1
 534.333333333 248 558.166666667 233.5 574.5 214.5 c 128
 590.833333333 195.5 599 170 599 138 c 0
 599 107.333333333 590 78.6666666667 572 52 c 0
 546.666666667 14.6666666667 511.333333333 -4 466 -4 c 0
 436.666666667 -4 412.333333333 7.66666666667 393 31 c 0
 377.666666667 49.6666666667 370 73.6666666667 370 103 c 0
 370 131 373.666666667 155.5 381 176.5 c 128
 388.333333333 197.5 399 217 413 235 c 1
 408.333333333 236.333333333 403.666666667 237.5 399 238.5 c 128
 394.333333333 239.5 377 240 347 240 c 1
 346 162 l 2
 346 111.333333333 332.666666667 71.6666666667 306 43 c 128
 279.333333333 14.3333333333 239 0 185 0 c 0
 128.333333333 0 83.3333333333 10.3333333333 50 31 c 128
 16.6666666667 51.6666666667 0 81 0 119 c 0
 0 157.666666667 8.33333333333 189 25 213 c 128
 41.6666666667 237 69 254.666666667 107 266 c 1
 107 305 l 2
 107 349 115.666666667 383 133 407 c 0
 153.666666667 435.666666667 185.666666667 450 229 450 c 0
 250.333333333 450 268.333333333 448.333333333 283 445 c 0
 320.333333333 436.333333333 342.333333333 432 349 432 c 0
 361 432 371 432.833333333 379 434.5 c 128
 387 436.166666667 395.666666667 440 405 446 c 0
 410.333333333 449.333333333 415.666666667 451 421 451 c 0
 430.333333333 451 435 446.333333333 435 437 c 0
 435 431.666666667 433.166666667 426.666666667 429.5 422 c 128
 425.833333333 417.333333333 419 412.833333333 409 408.5 c 128
 399 404.166666667 390.166666667 397.333333333 382.5 388 c 128
 374.833333333 378.666666667 368.333333333 367 363 353 c 0
 360.333333333 346.333333333 357.5 334.666666667 354.5 318 c 128
 351.5 301.333333333 349.666666667 288.666666667 349 280 c 1
 375 280 399 278.666666667 421 276 c 0
 429 275.333333333 438.666666667 273.666666667 450 271 c 1
 470.666666667 287 494.166666667 299.166666667 520.5 307.5 c 128
 546.833333333 315.833333333 571.666666667 320 595 320 c 0
 656.333333333 320 706.833333333 304.5 746.5 273.5 c 128
 786.166666667 242.5 806 203 806 155 c 0
 806 134.333333333 802 114.666666667 794 96 c 128
 786 77.3333333333 774 58.6666666667 758 40 c 1
 764 41.3333333333 772.166666667 42.3333333333 782.5 43 c 128
 792.833333333 43.6666666667 803.333333333 44 814 44 c 0
 829.333333333 44 843.5 43.6666666667 856.5 43 c 128
 869.5 42.3333333333 881.333333333 41.3333333333 892 40 c 1
 900 50.6666666667 909 67.3333333333 919 90 c 128
 929 112.666666667 936.333333333 129.666666667 941 141 c 1
 914.333333333 160.333333333 894 179.666666667 880 199 c 0
 861.333333333 225 852 253.333333333 852 284 c 0
 852 328.666666667 863.666666667 367.5 887 400.5 c 128
 910.333333333 433.5 941.666666667 450 981 450 c 0
 1031 450 1068.66666667 438.333333333 1094 415 c 0
 1116.66666667 394.333333333 1128 366 1128 330 c 0
 1128 304 1120 272.666666667 1104 236 c 0
 1099.33333333 226 1081 190.333333333 1049 129 c 1
 1110.33333333 101 1143.66666667 85.6666666667 1149 83 c 0
 1179.66666667 66.3333333333 1195 49.6666666667 1195 33 c 0
 1195 23 1190.5 14.8333333333 1181.5 8.5 c 128
 1172.5 2.16666666667 1160.33333333 -1 1145 -1 c 0
 1140.33333333 -0.333333333333 1136.66666667 0 1134 0 c 2
 983 -1 l 1
 966.333333333 -37 952 -74 940 -112 c 0
 935.333333333 -128 933 -142.333333333 933 -155 c 0
 933 -163 934 -172 936 -182 c 128
 938 -192 939.333333333 -199.166666667 940 -203.5 c 128
 940.666666667 -207.833333333 941 -212 941 -216 c 0
 941 -218.666666667 940 -220.666666667 938 -222 c 128
 936 -223.333333333 932 -224 926 -224 c 0
 902.666666667 -224 884.666666667 -218.666666667 872 -208 c 0
 850 -189.333333333 839 -156 839 -108 c 0
 839 -96 842.666666667 -80 850 -60 c 128
 857.333333333 -40 865 -20.3333333333 873 -1 c 1
 851 -1 851 -1 837 -1 c 0
 749.666666667 1 702.333333333 2 695 2 c 0
 683.666666667 2 671.666666667 1.83333333333 659 1.5 c 128
 646.333333333 1.16666666667 633.333333333 0.666666666667 620 0 c 0
650 525 m 256
 632.666666667 525 618 531 606 543 c 128
 594 555 588 569.666666667 588 587 c 256
 588 604.333333333 593.833333333 619.166666667 605.5 631.5 c 128
 617.166666667 643.833333333 632 650 650 650 c 0
 667.333333333 650 682 644 694 632 c 128
 706 620 712 605 712 587 c 0
 712 569.666666667 706 555 694 543 c 128
 682 531 667.333333333 525 650 525 c 256
EndSplineSet
EndChar

StartChar: u0B9A
Encoding: 71 2970 71
Width: 603
Flags: HW
AnchorPoint: "V" 330 455 basechar 0
AnchorPoint: "N" 330 13.2255 basechar 0
LayerCount: 2
Fore
SplineSet
483 301 m 0
 477.666666667 281 466.5 265.833333333 449.5 255.5 c 128
 432.5 245.166666667 398.333333333 240 347 240 c 1
 346 162 l 2
 346 111.333333333 332.666666667 71.6666666667 306 43 c 128
 279.333333333 14.3333333333 239 0 185 0 c 0
 128.333333333 0 83.3333333333 10.3333333333 50 31 c 128
 16.6666666667 51.6666666667 0 81 0 119 c 0
 0 157.666666667 8.33333333333 189 25 213 c 128
 41.6666666667 237 69 254.666666667 107 266 c 1
 107 305 l 2
 107 349 115.666666667 383 133 407 c 0
 153.666666667 435.666666667 185.666666667 450 229 450 c 0
 250.333333333 450 268.333333333 448.333333333 283 445 c 0
 320.333333333 436.333333333 342.333333333 432 349 432 c 0
 361 432 371 432.833333333 379 434.5 c 128
 387 436.166666667 395.666666667 440 405 446 c 0
 410.333333333 449.333333333 415.666666667 451 421 451 c 0
 430.333333333 451 435 446.333333333 435 437 c 0
 435 431.666666667 433.166666667 426.666666667 429.5 422 c 128
 425.833333333 417.333333333 419 412.833333333 409 408.5 c 128
 399 404.166666667 390.166666667 397.333333333 382.5 388 c 128
 374.833333333 378.666666667 368.333333333 367 363 353 c 0
 360.333333333 346.333333333 357.5 334.666666667 354.5 318 c 128
 351.5 301.333333333 349.666666667 288.666666667 349 280 c 1
 387 280 412 281.666666667 424 285 c 0
 446 291 459.333333333 304 464 324 c 0
 466 326.666666667 469 328 473 328 c 0
 481.666666667 328 486 323 486 313 c 0
 486 309 485 305 483 301 c 0
280 401 m 1
 270 404.333333333 262.166666667 406.666666667 256.5 408 c 128
 250.833333333 409.333333333 241 410 227 410 c 0
 210.333333333 410 197 407.833333333 187 403.5 c 128
 177 399.166666667 169 391.666666667 163 381 c 128
 157 370.333333333 152.666666667 355.666666667 150 337 c 128
 147.333333333 318.333333333 146 297.333333333 146 274 c 1
 166 278 197.666666667 280 241 280 c 1
 243.666666667 300 245.666666667 313.666666667 247 321 c 128
 248.333333333 328.333333333 250.666666667 337.333333333 254 348 c 128
 257.333333333 358.666666667 261 368 265 376 c 0
 268 381 268 381 280 401 c 1
240 241 m 1
 220 241 204.333333333 240 193 238 c 128
 181.666666667 236 171 231.666666667 161 225 c 0
 141.666666667 213 128.333333333 197.666666667 121 179 c 128
 113.666666667 160.333333333 110 138 110 112 c 256
 110 86 115.166666667 67.5 125.5 56.5 c 128
 135.833333333 45.5 151 40 171 40 c 0
 198.333333333 40 217 51.3333333333 227 74 c 0
 233.666666667 89.3333333333 237 112.666666667 237 144 c 2
 237 165 l 1
 240 241 l 1
EndSplineSet
EndChar

StartChar: u0B9A_u0BBF
Encoding: 72 -1 72
Width: 689
Flags: HW
AnchorPoint: "V" 330 652.187 basechar 0
AnchorPoint: "N" 330 13.2255 basechar 0
LayerCount: 2
Fore
SplineSet
280 401 m 1
 270 404.333333333 262.166666667 406.666666667 256.5 408 c 128
 250.833333333 409.333333333 241 410 227 410 c 0
 210.333333333 410 197 407.833333333 187 403.5 c 128
 177 399.166666667 169 391.666666667 163 381 c 128
 157 370.333333333 152.666666667 355.666666667 150 337 c 128
 147.333333333 318.333333333 146 297.333333333 146 274 c 1
 166 278 197.666666667 280 241 280 c 1
 243.666666667 300 245.666666667 313.666666667 247 321 c 128
 248.333333333 328.333333333 250.666666667 337.333333333 254 348 c 128
 257.333333333 358.666666667 261 368 265 376 c 0
 268 381 268 381 280 401 c 1
240 241 m 1
 220 241 204.333333333 240 193 238 c 128
 181.666666667 236 171 231.666666667 161 225 c 0
 141.666666667 213 128.333333333 197.666666667 121 179 c 128
 113.666666667 160.333333333 110 138 110 112 c 256
 110 86 115.166666667 67.5 125.5 56.5 c 128
 135.833333333 45.5 151 40 171 40 c 0
 198.333333333 40 217 51.3333333333 227 74 c 0
 233.666666667 89.3333333333 237 112.666666667 237 144 c 2
 237 165 l 1
 240 241 l 1
297 441 m 1
 291 454.333333333 286.333333333 468.166666667 283 482.5 c 128
 279.666666667 496.833333333 278 513.666666667 278 533 c 0
 278 576.333333333 289.333333333 610.666666667 312 636 c 0
 338 664.666666667 376 679 426 679 c 0
 474 679 510.333333333 662.666666667 535 630 c 0
 557.666666667 600 569 558 569 504 c 0
 569 480 567.166666667 458.166666667 563.5 438.5 c 128
 559.833333333 418.833333333 553.333333333 392.666666667 544 360 c 0
 544 350.666666667 548.333333333 339.666666667 557 327 c 0
 561.666666667 320.333333333 564 313.666666667 564 307 c 256
 564 300.333333333 561.5 294.5 556.5 289.5 c 128
 551.5 284.5 545.666666667 282 539 282 c 0
 529 282 520.833333333 286.833333333 514.5 296.5 c 128
 508.166666667 306.166666667 505.666666667 316 507 326 c 0
 509 337.333333333 514.666666667 360 524 394 c 128
 533.333333333 428 538 454.333333333 538 473 c 0
 538 509 529 537 511 557 c 128
 493 577 465.333333333 587 428 587 c 0
 392.666666667 587 366 578 348 560 c 128
 330 542 321 519 321 491 c 0
 321 470.333333333 326.666666667 450.666666667 338 432 c 1
 355.333333333 432 368 432.5 376 433.5 c 128
 384 434.5 393.666666667 438.666666667 405 446 c 0
 410.333333333 449.333333333 415.666666667 451 421 451 c 0
 430.333333333 451 435 446.333333333 435 437 c 0
 435 431.666666667 433.166666667 426.666666667 429.5 422 c 128
 425.833333333 417.333333333 419 412.833333333 409 408.5 c 128
 399 404.166666667 390.166666667 397.333333333 382.5 388 c 128
 374.833333333 378.666666667 368.333333333 367 363 353 c 0
 360.333333333 346.333333333 357.5 334.666666667 354.5 318 c 128
 351.5 301.333333333 349.666666667 288.666666667 349 280 c 1
 379.666666667 280 398.333333333 280.333333333 405 281 c 0
 432.333333333 283.666666667 450 293 458 309 c 0
 460 311.666666667 463 313 467 313 c 0
 475.666666667 313 480 308 480 298 c 0
 480 294 479 290 477 286 c 0
 470.333333333 268 456.166666667 255.833333333 434.5 249.5 c 128
 412.833333333 243.166666667 383.666666667 240 347 240 c 1
 346 162 l 2
 346 111.333333333 332.666666667 71.6666666667 306 43 c 128
 279.333333333 14.3333333333 239 0 185 0 c 0
 128.333333333 0 83.3333333333 10.3333333333 50 31 c 128
 16.6666666667 51.6666666667 0 81 0 119 c 0
 0 157.666666667 8.33333333333 189 25 213 c 128
 41.6666666667 237 69 254.666666667 107 266 c 1
 107 305 l 2
 107 349 115.666666667 383 133 407 c 0
 153.666666667 435.666666667 185.666666667 450 229 450 c 0
 242.333333333 450 254 449.166666667 264 447.5 c 128
 274 445.833333333 285 443.666666667 297 441 c 1
EndSplineSet
EndChar

StartChar: u0B9A_u0BC0
Encoding: 73 -1 73
Width: 669
Flags: HW
AnchorPoint: "V" 330 666.361 basechar 0
AnchorPoint: "N" 330 13.2255 basechar 0
LayerCount: 2
Fore
SplineSet
549 588 m 0
 549 566.666666667 541.666666667 547 527 529 c 0
 507 504.333333333 478.666666667 492 442 492 c 0
 404.666666667 492 376.666666667 501 358 519 c 0
 343.333333333 533.666666667 336 552.666666667 336 576 c 0
 336 586.666666667 337.666666667 597.666666667 341 609 c 1
 323 603.666666667 308.833333333 593 298.5 577 c 128
 288.166666667 561 283 544.666666667 283 528 c 0
 283 510 287.166666667 492.833333333 295.5 476.5 c 128
 303.833333333 460.166666667 315.333333333 445.666666667 330 433 c 1
 349 432 l 2
 361 432 371 432.833333333 379 434.5 c 128
 387 436.166666667 395.666666667 440 405 446 c 0
 410.333333333 449.333333333 415.666666667 451 421 451 c 0
 430.333333333 451 435 446.333333333 435 437 c 0
 435 431.666666667 433.166666667 426.666666667 429.5 422 c 128
 425.833333333 417.333333333 419 412.833333333 409 408.5 c 128
 399 404.166666667 390.166666667 397.333333333 382.5 388 c 128
 374.833333333 378.666666667 368.333333333 367 363 353 c 0
 360.333333333 346.333333333 357.5 334.666666667 354.5 318 c 128
 351.5 301.333333333 349.666666667 288.666666667 349 280 c 1
 387 280 412 281.666666667 424 285 c 0
 446 291 459.333333333 304 464 324 c 0
 466 326.666666667 469 328 473 328 c 0
 481.666666667 328 486 323 486 313 c 0
 486 309 485 305 483 301 c 0
 477.666666667 281 466.5 265.833333333 449.5 255.5 c 128
 432.5 245.166666667 398.333333333 240 347 240 c 1
 346 162 l 2
 346 111.333333333 332.666666667 71.6666666667 306 43 c 128
 279.333333333 14.3333333333 239 0 185 0 c 0
 128.333333333 0 83.3333333333 10.3333333333 50 31 c 128
 16.6666666667 51.6666666667 0 81 0 119 c 0
 0 157.666666667 8.33333333333 189 25 213 c 128
 41.6666666667 237 69 254.666666667 107 266 c 1
 107 305 l 2
 107 349 115.666666667 383 133 407 c 0
 153.666666667 435.666666667 185.666666667 450 229 450 c 0
 243.666666667 450 256.666666667 449 268 447 c 1
 251.333333333 471 243 500.666666667 243 536 c 0
 243 576.666666667 257.666666667 610.666666667 287 638 c 0
 319 668 362.666666667 683 418 683 c 0
 452.666666667 683 483.166666667 674.333333333 509.5 657 c 128
 535.833333333 639.666666667 549 616.666666667 549 588 c 0
443 578 m 0
 443 588.666666667 439.666666667 597.666666667 433 605 c 128
 426.333333333 612.333333333 417.666666667 616 407 616 c 256
 396.333333333 616 387.333333333 612.666666667 380 606 c 128
 372.666666667 599.333333333 369 590.666666667 369 580 c 256
 369 569.333333333 372.333333333 560.333333333 379 553 c 128
 385.666666667 545.666666667 394.333333333 542 405 542 c 0
 430.333333333 542 443 554 443 578 c 0
280 401 m 1
 270 404.333333333 262.166666667 406.666666667 256.5 408 c 128
 250.833333333 409.333333333 241 410 227 410 c 0
 210.333333333 410 197 407.833333333 187 403.5 c 128
 177 399.166666667 169 391.666666667 163 381 c 128
 157 370.333333333 152.666666667 355.666666667 150 337 c 128
 147.333333333 318.333333333 146 297.333333333 146 274 c 1
 166 278 197.666666667 280 241 280 c 1
 243.666666667 300 245.666666667 313.666666667 247 321 c 128
 248.333333333 328.333333333 250.666666667 337.333333333 254 348 c 128
 257.333333333 358.666666667 261 368 265 376 c 0
 268 381 268 381 280 401 c 1
240 241 m 1
 220 241 204.333333333 240 193 238 c 128
 181.666666667 236 171 231.666666667 161 225 c 0
 141.666666667 213 128.333333333 197.666666667 121 179 c 128
 113.666666667 160.333333333 110 138 110 112 c 256
 110 86 115.166666667 67.5 125.5 56.5 c 128
 135.833333333 45.5 151 40 171 40 c 0
 198.333333333 40 217 51.3333333333 227 74 c 0
 233.666666667 89.3333333333 237 112.666666667 237 144 c 2
 237 165 l 1
 240 241 l 1
EndSplineSet
EndChar

StartChar: u0B9A_u0BC1
Encoding: 74 -1 74
Width: 643
Flags: HW
AnchorPoint: "V" 330 455 basechar 0
AnchorPoint: "N" 330 13.2255 basechar 0
LayerCount: 2
Fore
SplineSet
523 271 m 0
 515 257 505 246.666666667 493 240 c 128
 481 233.333333333 475 228 475 224 c 2
 474 137 l 2
 474 108.333333333 468.833333333 87.1666666667 458.5 73.5 c 128
 448.166666667 59.8333333333 433.666666667 53 415 53 c 0
 404.333333333 53 399 57.3333333333 399 66 c 0
 399 68 399.666666667 71 401 75 c 0
 407 83.6666666667 411.5 93.1666666667 414.5 103.5 c 128
 417.5 113.833333333 419 125.666666667 419 139 c 2
 419 191 l 2
 419 213.666666667 409.833333333 225.666666667 391.5 227 c 128
 373.166666667 228.333333333 358 233 346 241 c 1
 346 162 l 2
 346 111.333333333 332.666666667 71.6666666667 306 43 c 128
 279.333333333 14.3333333333 239 0 185 0 c 0
 128.333333333 0 83.3333333333 10.3333333333 50 31 c 128
 16.6666666667 51.6666666667 0 81 0 119 c 0
 0 157.666666667 8.33333333333 189 25 213 c 128
 41.6666666667 237 69 254.666666667 107 266 c 1
 107 305 l 2
 107 349 115.666666667 383 133 407 c 0
 153.666666667 435.666666667 185.666666667 450 229 450 c 0
 250.333333333 450 268.333333333 448.333333333 283 445 c 0
 320.333333333 436.333333333 342.333333333 432 349 432 c 0
 361 432 371 432.833333333 379 434.5 c 128
 387 436.166666667 395.666666667 440 405 446 c 0
 410.333333333 449.333333333 415.666666667 451 421 451 c 0
 430.333333333 451 435 446.333333333 435 437 c 0
 435 431.666666667 433.166666667 426.666666667 429.5 422 c 128
 425.833333333 417.333333333 419 412.833333333 409 408.5 c 128
 399 404.166666667 390.166666667 397.333333333 382.5 388 c 128
 374.833333333 378.666666667 368.333333333 367 363 353 c 0
 360.333333333 346.333333333 357.5 334.333333333 354.5 317 c 128
 351.5 299.666666667 349.666666667 287 349 279 c 1
 375.666666667 269 403.333333333 264 432 264 c 0
 450 264 465.5 266.5 478.5 271.5 c 128
 491.5 276.5 500 284 504 294 c 0
 506 296.666666667 509 298 513 298 c 0
 521.666666667 298 526 293 526 283 c 0
 526 279 525 275 523 271 c 0
280 401 m 1
 270 404.333333333 262.166666667 406.666666667 256.5 408 c 128
 250.833333333 409.333333333 241 410 227 410 c 0
 210.333333333 410 197 407.833333333 187 403.5 c 128
 177 399.166666667 169 391.666666667 163 381 c 128
 157 370.333333333 152.666666667 355.666666667 150 337 c 128
 147.333333333 318.333333333 146 297.333333333 146 274 c 1
 166 278 197.666666667 280 241 280 c 1
 243.666666667 300 245.666666667 313.666666667 247 321 c 128
 248.333333333 328.333333333 250.666666667 337.333333333 254 348 c 128
 257.333333333 358.666666667 261 368 265 376 c 0
 268 381 268 381 280 401 c 1
240 241 m 1
 220 241 204.333333333 240 193 238 c 128
 181.666666667 236 171 231.666666667 161 225 c 0
 141.666666667 213 128.333333333 197.666666667 121 179 c 128
 113.666666667 160.333333333 110 138 110 112 c 256
 110 86 115.166666667 67.5 125.5 56.5 c 128
 135.833333333 45.5 151 40 171 40 c 0
 198.333333333 40 217 51.3333333333 227 74 c 0
 233.666666667 89.3333333333 237 112.666666667 237 144 c 2
 237 165 l 1
 240 241 l 1
EndSplineSet
EndChar

StartChar: u0B9A_u0BC2
Encoding: 75 -1 75
Width: 775
Flags: HW
AnchorPoint: "V" 330 455 basechar 0
AnchorPoint: "N" 330 13.2255 basechar 0
LayerCount: 2
Fore
SplineSet
655 40 m 0
 655 -12.6666666667 642 -58.6666666667 616 -98 c 0
 576 -158.666666667 508 -198.666666667 412 -218 c 0
 390.666666667 -222.666666667 367 -225 341 -225 c 0
 289.666666667 -225 247.333333333 -215.666666667 214 -197 c 0
 177.333333333 -176.333333333 159 -147.333333333 159 -110 c 0
 159 -92.6666666667 166.833333333 -78.1666666667 182.5 -66.5 c 128
 198.166666667 -54.8333333333 218.666666667 -49 244 -49 c 0
 268.666666667 -49 295.666666667 -55.3333333333 325 -68 c 0
 331 -71.3333333333 334 -74.3333333333 334 -77 c 0
 334 -81 329 -83 319 -83 c 0
 313 -83 308.333333333 -82.3333333333 305 -81 c 0
 285 -75.6666666667 266.333333333 -73 249 -73 c 0
 230.333333333 -73 215.666666667 -75.8333333333 205 -81.5 c 128
 194.333333333 -87.1666666667 189 -96.3333333333 189 -109 c 0
 189 -135.666666667 202 -156.5 228 -171.5 c 128
 254 -186.5 286.666666667 -194 326 -194 c 0
 352.666666667 -194 378 -190.666666667 402 -184 c 0
 465.333333333 -166.666666667 508.666666667 -135.333333333 532 -90 c 0
 546.666666667 -61.3333333333 554 -25.3333333333 554 18 c 2
 554 40 l 2
 554 64 548.166666667 86.8333333333 536.5 108.5 c 128
 524.833333333 130.166666667 510.333333333 141 493 141 c 0
 487.666666667 141 481.666666667 139.333333333 475 136 c 1
 475 108 469.5 87.1666666667 458.5 73.5 c 128
 447.5 59.8333333333 433 53 415 53 c 0
 404.333333333 53 399 57.3333333333 399 66 c 0
 399 68 399.666666667 71 401 75 c 0
 407 83.6666666667 411.5 93.1666666667 414.5 103.5 c 128
 417.5 113.833333333 419 125.666666667 419 139 c 2
 419 191 l 2
 419 213.666666667 409.833333333 225.666666667 391.5 227 c 128
 373.166666667 228.333333333 358 233 346 241 c 1
 346 162 l 2
 346 111.333333333 332.666666667 71.6666666667 306 43 c 128
 279.333333333 14.3333333333 239 0 185 0 c 0
 128.333333333 0 83.3333333333 10.3333333333 50 31 c 128
 16.6666666667 51.6666666667 0 81 0 119 c 0
 0 157.666666667 8.33333333333 189 25 213 c 128
 41.6666666667 237 69 254.666666667 107 266 c 1
 107 305 l 2
 107 349 115.666666667 383 133 407 c 0
 153.666666667 435.666666667 185.666666667 450 229 450 c 0
 250.333333333 450 268.333333333 448.333333333 283 445 c 0
 320.333333333 436.333333333 342.333333333 432 349 432 c 0
 361 432 371 432.833333333 379 434.5 c 128
 387 436.166666667 395.666666667 440 405 446 c 0
 410.333333333 449.333333333 415.666666667 451 421 451 c 0
 430.333333333 451 435 446.333333333 435 437 c 0
 435 431.666666667 433.166666667 426.666666667 429.5 422 c 128
 425.833333333 417.333333333 419 412.833333333 409 408.5 c 128
 399 404.166666667 390.166666667 397.333333333 382.5 388 c 128
 374.833333333 378.666666667 368.333333333 367 363 353 c 0
 360.333333333 346.333333333 357.5 334.333333333 354.5 317 c 128
 351.5 299.666666667 349.666666667 287 349 279 c 1
 375.666666667 269 403.333333333 264 432 264 c 0
 450 264 465.5 266.5 478.5 271.5 c 128
 491.5 276.5 500 284 504 294 c 0
 506 296.666666667 509 298 513 298 c 0
 521.666666667 298 526 293 526 283 c 0
 526 279 525 275 523 271 c 0
 515 257 505 246.666666667 493 240 c 128
 481 233.333333333 475 228 475 224 c 2
 475 176 l 1
 480.333333333 179.333333333 487.333333333 182 496 184 c 128
 504.666666667 186 513 187 521 187 c 0
 555 187 585 174.666666667 611 150 c 0
 640.333333333 122 655 85.3333333333 655 40 c 0
280 401 m 1
 270 404.333333333 262.166666667 406.666666667 256.5 408 c 128
 250.833333333 409.333333333 241 410 227 410 c 0
 210.333333333 410 197 407.833333333 187 403.5 c 128
 177 399.166666667 169 391.666666667 163 381 c 128
 157 370.333333333 152.666666667 355.666666667 150 337 c 128
 147.333333333 318.333333333 146 297.333333333 146 274 c 1
 166 278 197.666666667 280 241 280 c 1
 243.666666667 300 245.666666667 313.666666667 247 321 c 128
 248.333333333 328.333333333 250.666666667 337.333333333 254 348 c 128
 257.333333333 358.666666667 261 368 265 376 c 0
 268 381 268 381 280 401 c 1
240 241 m 1
 220 241 204.333333333 240 193 238 c 128
 181.666666667 236 171 231.666666667 161 225 c 0
 141.666666667 213 128.333333333 197.666666667 121 179 c 128
 113.666666667 160.333333333 110 138 110 112 c 256
 110 86 115.166666667 67.5 125.5 56.5 c 128
 135.833333333 45.5 151 40 171 40 c 0
 198.333333333 40 217 51.3333333333 227 74 c 0
 233.666666667 89.3333333333 237 112.666666667 237 144 c 2
 237 165 l 1
 240 241 l 1
EndSplineSet
EndChar

StartChar: u0B9A_u0BCD
Encoding: 76 -1 76
Width: 603
Flags: HW
AnchorPoint: "N" 330 13.2255 basechar 0
LayerCount: 2
Fore
SplineSet
392 587 m 0
 392 569.666666667 386 555 374 543 c 128
 362 531 347.333333333 525 330 525 c 256
 312.666666667 525 298 531 286 543 c 128
 274 555 268 569.666666667 268 587 c 256
 268 604.333333333 273.833333333 619.166666667 285.5 631.5 c 128
 297.166666667 643.833333333 312 650 330 650 c 0
 347.333333333 650 362 644 374 632 c 128
 386 620 392 605 392 587 c 0
483 301 m 0
 477.666666667 281 466.5 265.833333333 449.5 255.5 c 128
 432.5 245.166666667 398.333333333 240 347 240 c 1
 346 162 l 2
 346 111.333333333 332.666666667 71.6666666667 306 43 c 128
 279.333333333 14.3333333333 239 0 185 0 c 0
 128.333333333 0 83.3333333333 10.3333333333 50 31 c 128
 16.6666666667 51.6666666667 0 81 0 119 c 0
 0 157.666666667 8.33333333333 189 25 213 c 128
 41.6666666667 237 69 254.666666667 107 266 c 1
 107 305 l 2
 107 349 115.666666667 383 133 407 c 0
 153.666666667 435.666666667 185.666666667 450 229 450 c 0
 250.333333333 450 268.333333333 448.333333333 283 445 c 0
 320.333333333 436.333333333 342.333333333 432 349 432 c 0
 361 432 371 432.833333333 379 434.5 c 128
 387 436.166666667 395.666666667 440 405 446 c 0
 410.333333333 449.333333333 415.666666667 451 421 451 c 0
 430.333333333 451 435 446.333333333 435 437 c 0
 435 431.666666667 433.166666667 426.666666667 429.5 422 c 128
 425.833333333 417.333333333 419 412.833333333 409 408.5 c 128
 399 404.166666667 390.166666667 397.333333333 382.5 388 c 128
 374.833333333 378.666666667 368.333333333 367 363 353 c 0
 360.333333333 346.333333333 357.5 334.666666667 354.5 318 c 128
 351.5 301.333333333 349.666666667 288.666666667 349 280 c 1
 387 280 412 281.666666667 424 285 c 0
 446 291 459.333333333 304 464 324 c 0
 466 326.666666667 469 328 473 328 c 0
 481.666666667 328 486 323 486 313 c 0
 486 309 485 305 483 301 c 0
280 401 m 1
 270 404.333333333 262.166666667 406.666666667 256.5 408 c 128
 250.833333333 409.333333333 241 410 227 410 c 0
 210.333333333 410 197 407.833333333 187 403.5 c 128
 177 399.166666667 169 391.666666667 163 381 c 128
 157 370.333333333 152.666666667 355.666666667 150 337 c 128
 147.333333333 318.333333333 146 297.333333333 146 274 c 1
 166 278 197.666666667 280 241 280 c 1
 243.666666667 300 245.666666667 313.666666667 247 321 c 128
 248.333333333 328.333333333 250.666666667 337.333333333 254 348 c 128
 257.333333333 358.666666667 261 368 265 376 c 0
 268 381 268 381 280 401 c 1
240 241 m 1
 220 241 204.333333333 240 193 238 c 128
 181.666666667 236 171 231.666666667 161 225 c 0
 141.666666667 213 128.333333333 197.666666667 121 179 c 128
 113.666666667 160.333333333 110 138 110 112 c 256
 110 86 115.166666667 67.5 125.5 56.5 c 128
 135.833333333 45.5 151 40 171 40 c 0
 198.333333333 40 217 51.3333333333 227 74 c 0
 233.666666667 89.3333333333 237 112.666666667 237 144 c 2
 237 165 l 1
 240 241 l 1
EndSplineSet
EndChar

StartChar: u0B9C
Encoding: 77 2972 77
Width: 725
Flags: HW
AnchorPoint: "V" 330 455 basechar 0
AnchorPoint: "N" 330 -152.537 basechar 0
LayerCount: 2
Fore
SplineSet
153 -55 m 0
 162.333333333 -55 217.666666667 -21.3333333333 319 46 c 0
 367 78 410.333333333 94 449 94 c 0
 494.333333333 94 529.666666667 87.6666666667 555 75 c 0
 588.333333333 58.3333333333 605 30.6666666667 605 -8 c 0
 605 -46 592.333333333 -78 567 -104 c 0
 535 -137.333333333 486.666666667 -154 422 -154 c 0
 389.333333333 -154 365 -146.666666667 349 -132 c 0
 335.666666667 -120 329 -104.333333333 329 -85 c 0
 329 -57 337.666666667 -41 355 -37 c 1
 362.333333333 -59.6666666667 382.333333333 -71 415 -71 c 0
 440.333333333 -71 460 -64.6666666667 474 -52 c 128
 488 -39.3333333333 495 -24.6666666667 495 -8 c 0
 495 10 491.333333333 24.8333333333 484 36.5 c 128
 476.666666667 48.1666666667 463.666666667 54 445 54 c 0
 407.666666667 54 369.666666667 37.3333333333 331 4 c 0
 281 -43 281 -43 231 -90 c 1
 189 -123.333333333 145.333333333 -140 100 -140 c 0
 74.6666666667 -140 52.6666666667 -129 34 -107 c 0
 11.3333333333 -81 0 -45.3333333333 0 0 c 0
 0 59.3333333333 57.3333333333 100.333333333 172 123 c 0
 228.666666667 133.666666667 285.666666667 144.666666667 343 156 c 1
 387 168 421.333333333 186.666666667 446 212 c 0
 474 240.666666667 488 276.333333333 488 319 c 0
 488 379.666666667 472 410 440 410 c 0
 420.666666667 410 405 402.666666667 393 388 c 0
 383.666666667 376 377.333333333 362 374 346 c 1
 378 334 380 323 380 313 c 2
 380 278 l 2
 380 255.333333333 372.5 235.5 357.5 218.5 c 128
 342.5 201.5 322.333333333 193 297 193 c 0
 287 193 275.333333333 195 262 199 c 1
 269.333333333 210.333333333 274.166666667 222 276.5 234 c 128
 278.833333333 246 280 262 280 282 c 2
 280 323 l 2
 280 352.333333333 273.333333333 374.166666667 260 388.5 c 128
 246.666666667 402.833333333 228.333333333 410 205 410 c 0
 183 410 164.333333333 407.833333333 149 403.5 c 128
 133.666666667 399.166666667 119.333333333 391.666666667 106 381 c 1
 110 381.666666667 116 382 124 382 c 0
 182.666666667 382 212 351.333333333 212 290 c 0
 212 257.333333333 200 232.666666667 176 216 c 0
 156 202 131.666666667 195 103 195 c 0
 73.6666666667 195 51.6666666667 202.333333333 37 217 c 128
 22.3333333333 231.666666667 15 256.333333333 15 291 c 0
 15 340.333333333 32.8333333333 379.166666667 68.5 407.5 c 128
 104.166666667 435.833333333 150.333333333 450 207 450 c 0
 240.333333333 450 269.666666667 444 295 432 c 0
 316.333333333 422 334.333333333 407.666666667 349 389 c 1
 355 405 366.666666667 418.666666667 384 430 c 0
 404 443.333333333 427.666666667 450 455 450 c 0
 550.333333333 450 598 405 598 315 c 0
 598 267.666666667 572.333333333 227.333333333 521 194 c 0
 483 169.333333333 432 149 368 133 c 0
 322 122.333333333 277 111.5 233 100.5 c 128
 189 89.5 158 77 140 63 c 0
 118.666666667 46.3333333333 108 22 108 -10 c 0
 108 -22.6666666667 111.666666667 -33.3333333333 119 -42 c 128
 126.333333333 -50.6666666667 137.666666667 -55 153 -55 c 0
117 302 m 0
 117 313.333333333 114.166666667 323.5 108.5 332.5 c 128
 102.833333333 341.5 95.3333333333 346 86 346 c 0
 77.3333333333 346 70 341 64 331 c 128
 58 321 55 309 55 295 c 0
 55 277.666666667 57 263.333333333 61 252 c 128
 65 240.666666667 72.6666666667 235 84 235 c 0
 97.3333333333 235 106.166666667 240.833333333 110.5 252.5 c 128
 114.833333333 264.166666667 117 280.666666667 117 302 c 0
EndSplineSet
EndChar

StartChar: u0B9C_u0BBF
Encoding: 78 -1 78
Width: 829
Flags: HW
AnchorPoint: "V" 330 455 basechar 0
AnchorPoint: "N" 330 -152.537 basechar 0
LayerCount: 2
Fore
SplineSet
117 302 m 0
 117 313.333333333 114.166666667 323.5 108.5 332.5 c 128
 102.833333333 341.5 95.3333333333 346 86 346 c 0
 77.3333333333 346 70 341 64 331 c 128
 58 321 55 309 55 295 c 0
 55 277.666666667 57 263.333333333 61 252 c 128
 65 240.666666667 72.6666666667 235 84 235 c 0
 97.3333333333 235 106.166666667 240.833333333 110.5 252.5 c 128
 114.833333333 264.166666667 117 280.666666667 117 302 c 0
433 450 m 1
 423 475.333333333 418 503 418 533 c 0
 418 576.333333333 429.333333333 610.666666667 452 636 c 0
 478 664.666666667 516 679 566 679 c 0
 614 679 650.333333333 662.666666667 675 630 c 0
 697.666666667 600 709 558 709 504 c 0
 709 480 707.166666667 458.166666667 703.5 438.5 c 128
 699.833333333 418.833333333 693.333333333 392.666666667 684 360 c 0
 684 350.666666667 688.333333333 339.666666667 697 327 c 0
 701.666666667 320.333333333 704 313.666666667 704 307 c 256
 704 300.333333333 701.5 294.5 696.5 289.5 c 128
 691.5 284.5 685.666666667 282 679 282 c 0
 669 282 660.833333333 286.833333333 654.5 296.5 c 128
 648.166666667 306.166666667 645.666666667 316 647 326 c 0
 649 337.333333333 654.666666667 360 664 394 c 128
 673.333333333 428 678 454.333333333 678 473 c 0
 678 509 669 537 651 557 c 128
 633 577 605.333333333 587 568 587 c 0
 532.666666667 587 506 578 488 560 c 128
 470 542 461 519 461 491 c 0
 461 477.666666667 463.666666667 464 469 450 c 1
 510.333333333 450 542.166666667 438.166666667 564.5 414.5 c 128
 586.833333333 390.833333333 598 357.666666667 598 315 c 0
 598 267.666666667 572.333333333 227.333333333 521 194 c 0
 483 169.333333333 432 149 368 133 c 0
 322 122.333333333 277 111.5 233 100.5 c 128
 189 89.5 158 77 140 63 c 0
 118.666666667 46.3333333333 108 22 108 -10 c 0
 108 -22.6666666667 111.666666667 -33.3333333333 119 -42 c 128
 126.333333333 -50.6666666667 137.666666667 -55 153 -55 c 0
 162.333333333 -55 217.666666667 -21.3333333333 319 46 c 0
 367 78 410.333333333 94 449 94 c 0
 494.333333333 94 529.666666667 87.6666666667 555 75 c 0
 588.333333333 58.3333333333 605 30.6666666667 605 -8 c 0
 605 -46 592.333333333 -78 567 -104 c 0
 535 -137.333333333 486.666666667 -154 422 -154 c 0
 389.333333333 -154 365 -146.666666667 349 -132 c 0
 335.666666667 -120 329 -104.333333333 329 -85 c 0
 329 -57 337.666666667 -41 355 -37 c 1
 362.333333333 -59.6666666667 382.333333333 -71 415 -71 c 0
 440.333333333 -71 460 -64.6666666667 474 -52 c 128
 488 -39.3333333333 495 -24.6666666667 495 -8 c 0
 495 10 491.333333333 24.8333333333 484 36.5 c 128
 476.666666667 48.1666666667 463.666666667 54 445 54 c 0
 407.666666667 54 369.666666667 37.3333333333 331 4 c 0
 281 -43 281 -43 231 -90 c 1
 189 -123.333333333 145.333333333 -140 100 -140 c 0
 74.6666666667 -140 52.6666666667 -129 34 -107 c 0
 11.3333333333 -81 0 -45.3333333333 0 0 c 0
 0 59.3333333333 57.3333333333 100.333333333 172 123 c 0
 228.666666667 133.666666667 285.666666667 144.666666667 343 156 c 1
 387 168 421.333333333 186.666666667 446 212 c 0
 474 240.666666667 488 276.333333333 488 319 c 0
 488 379.666666667 472 410 440 410 c 0
 420.666666667 410 405 402.666666667 393 388 c 0
 383.666666667 376 377.333333333 362 374 346 c 1
 378 334 380 323 380 313 c 2
 380 278 l 2
 380 255.333333333 372.5 235.5 357.5 218.5 c 128
 342.5 201.5 322.333333333 193 297 193 c 0
 287 193 275.333333333 195 262 199 c 1
 269.333333333 210.333333333 274.166666667 222 276.5 234 c 128
 278.833333333 246 280 262 280 282 c 2
 280 323 l 2
 280 352.333333333 273.333333333 374.166666667 260 388.5 c 128
 246.666666667 402.833333333 228.333333333 410 205 410 c 0
 183 410 164.333333333 407.833333333 149 403.5 c 128
 133.666666667 399.166666667 119.333333333 391.666666667 106 381 c 1
 110 381.666666667 116 382 124 382 c 0
 182.666666667 382 212 351.333333333 212 290 c 0
 212 257.333333333 200 232.666666667 176 216 c 0
 156 202 131.666666667 195 103 195 c 0
 73.6666666667 195 51.6666666667 202.333333333 37 217 c 128
 22.3333333333 231.666666667 15 256.333333333 15 291 c 0
 15 340.333333333 32.8333333333 379.166666667 68.5 407.5 c 128
 104.166666667 435.833333333 150.333333333 450 207 450 c 0
 240.333333333 450 269.666666667 444 295 432 c 0
 316.333333333 422 334.333333333 407.666666667 349 389 c 1
 353.666666667 402.333333333 363.666666667 415 379 427 c 128
 394.333333333 439 412.333333333 446.666666667 433 450 c 1
EndSplineSet
EndChar

StartChar: u0B9C_u0BC0
Encoding: 79 -1 79
Width: 838
Flags: HW
AnchorPoint: "V" 330 455 basechar 0
AnchorPoint: "N" 330 -152.537 basechar 0
LayerCount: 2
Fore
SplineSet
719 588 m 0
 719 566.666666667 711.666666667 547 697 529 c 0
 677 504.333333333 648.666666667 492 612 492 c 0
 574.666666667 492 546.666666667 501 528 519 c 0
 513.333333333 533.666666667 506 552.666666667 506 576 c 0
 506 586.666666667 507.666666667 597.666666667 511 609 c 1
 493 603.666666667 478.833333333 593 468.5 577 c 128
 458.166666667 561 453 544.666666667 453 528 c 0
 453 514 456 500 462 486 c 128
 468 472 475.666666667 459.333333333 485 448 c 1
 560.333333333 438.666666667 598 394.333333333 598 315 c 0
 598 267.666666667 572.333333333 227.333333333 521 194 c 0
 483 169.333333333 432 149 368 133 c 0
 322 122.333333333 277 111.5 233 100.5 c 128
 189 89.5 158 77 140 63 c 0
 118.666666667 46.3333333333 108 22 108 -10 c 0
 108 -22.6666666667 111.666666667 -33.3333333333 119 -42 c 128
 126.333333333 -50.6666666667 137.666666667 -55 153 -55 c 0
 162.333333333 -55 217.666666667 -21.3333333333 319 46 c 0
 367 78 410.333333333 94 449 94 c 0
 494.333333333 94 529.666666667 87.6666666667 555 75 c 0
 588.333333333 58.3333333333 605 30.6666666667 605 -8 c 0
 605 -46 592.333333333 -78 567 -104 c 0
 535 -137.333333333 486.666666667 -154 422 -154 c 0
 389.333333333 -154 365 -146.666666667 349 -132 c 0
 335.666666667 -120 329 -104.333333333 329 -85 c 0
 329 -57 337.666666667 -41 355 -37 c 1
 362.333333333 -59.6666666667 382.333333333 -71 415 -71 c 0
 440.333333333 -71 460 -64.6666666667 474 -52 c 128
 488 -39.3333333333 495 -24.6666666667 495 -8 c 0
 495 10 491.333333333 24.8333333333 484 36.5 c 128
 476.666666667 48.1666666667 463.666666667 54 445 54 c 0
 407.666666667 54 369.666666667 37.3333333333 331 4 c 0
 281 -43 281 -43 231 -90 c 1
 189 -123.333333333 145.333333333 -140 100 -140 c 0
 74.6666666667 -140 52.6666666667 -129 34 -107 c 0
 11.3333333333 -81 0 -45.3333333333 0 0 c 0
 0 59.3333333333 57.3333333333 100.333333333 172 123 c 0
 228.666666667 133.666666667 285.666666667 144.666666667 343 156 c 1
 387 168 421.333333333 186.666666667 446 212 c 0
 474 240.666666667 488 276.333333333 488 319 c 0
 488 379.666666667 472 410 440 410 c 0
 420.666666667 410 405 402.666666667 393 388 c 0
 383.666666667 376 377.333333333 362 374 346 c 1
 378 334 380 323 380 313 c 2
 380 278 l 2
 380 255.333333333 372.5 235.5 357.5 218.5 c 128
 342.5 201.5 322.333333333 193 297 193 c 0
 287 193 275.333333333 195 262 199 c 1
 269.333333333 210.333333333 274.166666667 222 276.5 234 c 128
 278.833333333 246 280 262 280 282 c 2
 280 323 l 2
 280 352.333333333 273.333333333 374.166666667 260 388.5 c 128
 246.666666667 402.833333333 228.333333333 410 205 410 c 0
 183 410 164.333333333 407.833333333 149 403.5 c 128
 133.666666667 399.166666667 119.333333333 391.666666667 106 381 c 1
 110 381.666666667 116 382 124 382 c 0
 182.666666667 382 212 351.333333333 212 290 c 0
 212 257.333333333 200 232.666666667 176 216 c 0
 156 202 131.666666667 195 103 195 c 0
 73.6666666667 195 51.6666666667 202.333333333 37 217 c 128
 22.3333333333 231.666666667 15 256.333333333 15 291 c 0
 15 340.333333333 32.8333333333 379.166666667 68.5 407.5 c 128
 104.166666667 435.833333333 150.333333333 450 207 450 c 0
 240.333333333 450 269.666666667 444 295 432 c 0
 316.333333333 422 334.333333333 407.666666667 349 389 c 1
 355 403 364.666666667 415.333333333 378 426 c 0
 394.666666667 438.666666667 414 446.333333333 436 449 c 1
 420.666666667 473 413 502 413 536 c 0
 413 576.666666667 427.666666667 610.666666667 457 638 c 0
 489 668 532.666666667 683 588 683 c 0
 622.666666667 683 653.166666667 674.333333333 679.5 657 c 128
 705.833333333 639.666666667 719 616.666666667 719 588 c 0
613 578 m 0
 613 588.666666667 609.666666667 597.666666667 603 605 c 128
 596.333333333 612.333333333 587.666666667 616 577 616 c 256
 566.333333333 616 557.333333333 612.666666667 550 606 c 128
 542.666666667 599.333333333 539 590.666666667 539 580 c 256
 539 569.333333333 542.333333333 560.333333333 549 553 c 128
 555.666666667 545.666666667 564.333333333 542 575 542 c 0
 600.333333333 542 613 554 613 578 c 0
117 302 m 0
 117 313.333333333 114.166666667 323.5 108.5 332.5 c 128
 102.833333333 341.5 95.3333333333 346 86 346 c 0
 77.3333333333 346 70 341 64 331 c 128
 58 321 55 309 55 295 c 0
 55 277.666666667 57 263.333333333 61 252 c 128
 65 240.666666667 72.6666666667 235 84 235 c 0
 97.3333333333 235 106.166666667 240.833333333 110.5 252.5 c 128
 114.833333333 264.166666667 117 280.666666667 117 302 c 0
EndSplineSet
EndChar

StartChar: u0B9C_u0BCD
Encoding: 80 -1 80
Width: 725
Flags: HW
AnchorPoint: "N" 330 -152.537 basechar 0
LayerCount: 2
Fore
SplineSet
330 525 m 256
 312.666666667 525 298 531 286 543 c 128
 274 555 268 569.666666667 268 587 c 256
 268 604.333333333 273.833333333 619.166666667 285.5 631.5 c 128
 297.166666667 643.833333333 312 650 330 650 c 0
 347.333333333 650 362 644 374 632 c 128
 386 620 392 605 392 587 c 0
 392 569.666666667 386 555 374 543 c 128
 362 531 347.333333333 525 330 525 c 256
153 -55 m 0
 162.333333333 -55 217.666666667 -21.3333333333 319 46 c 0
 367 78 410.333333333 94 449 94 c 0
 494.333333333 94 529.666666667 87.6666666667 555 75 c 0
 588.333333333 58.3333333333 605 30.6666666667 605 -8 c 0
 605 -46 592.333333333 -78 567 -104 c 0
 535 -137.333333333 486.666666667 -154 422 -154 c 0
 389.333333333 -154 365 -146.666666667 349 -132 c 0
 335.666666667 -120 329 -104.333333333 329 -85 c 0
 329 -57 337.666666667 -41 355 -37 c 1
 362.333333333 -59.6666666667 382.333333333 -71 415 -71 c 0
 440.333333333 -71 460 -64.6666666667 474 -52 c 128
 488 -39.3333333333 495 -24.6666666667 495 -8 c 0
 495 10 491.333333333 24.8333333333 484 36.5 c 128
 476.666666667 48.1666666667 463.666666667 54 445 54 c 0
 407.666666667 54 369.666666667 37.3333333333 331 4 c 0
 281 -43 281 -43 231 -90 c 1
 189 -123.333333333 145.333333333 -140 100 -140 c 0
 74.6666666667 -140 52.6666666667 -129 34 -107 c 0
 11.3333333333 -81 0 -45.3333333333 0 0 c 0
 0 59.3333333333 57.3333333333 100.333333333 172 123 c 0
 228.666666667 133.666666667 285.666666667 144.666666667 343 156 c 1
 387 168 421.333333333 186.666666667 446 212 c 0
 474 240.666666667 488 276.333333333 488 319 c 0
 488 379.666666667 472 410 440 410 c 0
 420.666666667 410 405 402.666666667 393 388 c 0
 383.666666667 376 377.333333333 362 374 346 c 1
 378 334 380 323 380 313 c 2
 380 278 l 2
 380 255.333333333 372.5 235.5 357.5 218.5 c 128
 342.5 201.5 322.333333333 193 297 193 c 0
 287 193 275.333333333 195 262 199 c 1
 269.333333333 210.333333333 274.166666667 222 276.5 234 c 128
 278.833333333 246 280 262 280 282 c 2
 280 323 l 2
 280 352.333333333 273.333333333 374.166666667 260 388.5 c 128
 246.666666667 402.833333333 228.333333333 410 205 410 c 0
 183 410 164.333333333 407.833333333 149 403.5 c 128
 133.666666667 399.166666667 119.333333333 391.666666667 106 381 c 1
 110 381.666666667 116 382 124 382 c 0
 182.666666667 382 212 351.333333333 212 290 c 0
 212 257.333333333 200 232.666666667 176 216 c 0
 156 202 131.666666667 195 103 195 c 0
 73.6666666667 195 51.6666666667 202.333333333 37 217 c 128
 22.3333333333 231.666666667 15 256.333333333 15 291 c 0
 15 340.333333333 32.8333333333 379.166666667 68.5 407.5 c 128
 104.166666667 435.833333333 150.333333333 450 207 450 c 0
 240.333333333 450 269.666666667 444 295 432 c 0
 316.333333333 422 334.333333333 407.666666667 349 389 c 1
 355 405 366.666666667 418.666666667 384 430 c 0
 404 443.333333333 427.666666667 450 455 450 c 0
 550.333333333 450 598 405 598 315 c 0
 598 267.666666667 572.333333333 227.333333333 521 194 c 0
 483 169.333333333 432 149 368 133 c 0
 322 122.333333333 277 111.5 233 100.5 c 128
 189 89.5 158 77 140 63 c 0
 118.666666667 46.3333333333 108 22 108 -10 c 0
 108 -22.6666666667 111.666666667 -33.3333333333 119 -42 c 128
 126.333333333 -50.6666666667 137.666666667 -55 153 -55 c 0
117 302 m 0
 117 313.333333333 114.166666667 323.5 108.5 332.5 c 128
 102.833333333 341.5 95.3333333333 346 86 346 c 0
 77.3333333333 346 70 341 64 331 c 128
 58 321 55 309 55 295 c 0
 55 277.666666667 57 263.333333333 61 252 c 128
 65 240.666666667 72.6666666667 235 84 235 c 0
 97.3333333333 235 106.166666667 240.833333333 110.5 252.5 c 128
 114.833333333 264.166666667 117 280.666666667 117 302 c 0
EndSplineSet
EndChar

StartChar: u0B9E
Encoding: 81 2974 81
Width: 904
Flags: HW
AnchorPoint: "V" 420 455 basechar 0
AnchorPoint: "N" 420 -205 basechar 0
LayerCount: 2
Fore
SplineSet
784 132 m 0
 784 14.6666666667 747.666666667 -71.6666666667 675 -127 c 0
 607 -179 507.666666667 -205 377 -205 c 0
 266.333333333 -205 175.833333333 -175.333333333 105.5 -116 c 128
 35.1666666667 -56.6666666667 0 22.6666666667 0 122 c 0
 0 162 3.33333333333 199.333333333 10 234 c 128
 16.6666666667 268.666666667 26.6666666667 296 40 316 c 0
 45.3333333333 323.333333333 51.3333333333 327 58 327 c 0
 69.3333333333 327 75 321 75 309 c 0
 75 304.333333333 73 298.333333333 69 291 c 0
 60.3333333333 277 53.3333333333 256 48 228 c 128
 42.6666666667 200 40 163.666666667 40 119 c 0
 40 32.3333333333 76.3333333333 -37.3333333333 149 -90 c 0
 213.666666667 -136.666666667 289.333333333 -160 376 -160 c 0
 474 -160 550 -130 604 -70 c 0
 651.333333333 -17.3333333333 675 48.3333333333 675 127 c 0
 675 161.666666667 670.5 190 661.5 212 c 128
 652.5 234 639.333333333 245 622 245 c 0
 611.333333333 245 599.666666667 240.666666667 587 232 c 1
 585 132 l 2
 585 86 572.333333333 51 547 27 c 0
 525.666666667 6.33333333333 498.333333333 -4 465 -4 c 0
 451 -4 444 0.333333333333 444 9 c 0
 444 12.3333333333 445.666666667 16.6666666667 449 22 c 0
 457 36.6666666667 463.5 53.8333333333 468.5 73.5 c 128
 473.5 93.1666666667 476 113.666666667 476 135 c 0
 476 154.333333333 476.833333333 183.166666667 478.5 221.5 c 128
 480.166666667 259.833333333 481 280.333333333 481 283 c 0
 481 323.666666667 492.333333333 362.666666667 515 400 c 1
 503 402.666666667 489 405 473 407 c 128
 457 409 437.333333333 410 414 410 c 0
 358.666666667 410 311.166666667 396.333333333 271.5 369 c 128
 231.833333333 341.666666667 205.666666667 306.333333333 193 263 c 1
 215 279.666666667 238 288 262 288 c 0
 296.666666667 288 324 279 344 261 c 0
 368 239.666666667 380 208.333333333 380 167 c 0
 380 115 371.666666667 75.6666666667 355 49 c 0
 334.333333333 16.3333333333 299.666666667 0 251 0 c 0
 212.333333333 0 184.166666667 14.3333333333 166.5 43 c 128
 148.833333333 71.6666666667 140 114 140 170 c 0
 140 254.666666667 163 321.666666667 209 371 c 0
 258.333333333 423.666666667 327.333333333 450 416 450 c 0
 451.333333333 450 482 447.666666667 508 443 c 128
 534 438.333333333 560.666666667 433.666666667 588 429 c 0
 598.666666667 429 608 430.166666667 616 432.5 c 128
 624 434.833333333 633.333333333 439.333333333 644 446 c 0
 649.333333333 449.333333333 654.666666667 451 660 451 c 0
 669.333333333 451 674 446.333333333 674 437 c 0
 674 431.666666667 672.166666667 426.666666667 668.5 422 c 128
 664.833333333 417.333333333 659 413.333333333 651 410 c 0
 631 401.333333333 616.5 386.333333333 607.5 365 c 128
 598.5 343.666666667 592.666666667 315.666666667 590 281 c 2
 589 272 l 1
 613 286 636.666666667 293 660 293 c 0
 694.666666667 293 724 278.5 748 249.5 c 128
 772 220.5 784 181.333333333 784 132 c 0
280 146 m 0
 280 170.666666667 277 188.333333333 271 199 c 0
 263 213 249.666666667 220 231 220 c 0
 209.666666667 220 195 209.666666667 187 189 c 0
 182.333333333 177 180 161 180 141 c 0
 180 73.6666666667 196 40 228 40 c 0
 248 40 261.666666667 49.6666666667 269 69 c 128
 276.333333333 88.3333333333 280 114 280 146 c 0
EndSplineSet
EndChar

